<?xml version="1.0" standalone="no"?>
<!DOCTYPE svg PUBLIC "-//W3C//DTD SVG 20010904//EN"
 "http://www.w3.org/TR/2001/REC-SVG-20010904/DTD/svg10.dtd">
<svg version="1.0" xmlns="http://www.w3.org/2000/svg"
 width="1563.000000pt" height="1563.000000pt" viewBox="0 0 1563.000000 1563.000000"
 preserveAspectRatio="xMidYMid meet">
<metadata>
Created by potrace 1.14, written by Peter Selinger 2001-2017
</metadata>
<g transform="translate(0.000000,1563.000000) scale(0.100000,-0.100000)"
fill="#000000" stroke="none">
<path d="M11409 13966 c-2 -2 -38 -6 -79 -9 -363 -28 -865 -242 -1330 -568
-381 -267 -546 -349 -897 -444 -104 -29 -339 -62 -496 -72 -230 -13 -574 -4
-827 22 -330 35 -463 24 -611 -50 -103 -52 -197 -158 -260 -290 -34 -73 -90
-245 -103 -320 -3 -16 -16 -95 -30 -175 -74 -433 -96 -480 -450 -920 -177
-219 -247 -320 -305 -435 -93 -187 -106 -489 -28 -676 43 -104 38 -103 109
-27 35 36 118 124 184 195 67 70 139 147 160 169 33 35 100 87 356 276 9 7 59
42 110 78 156 109 247 221 299 365 30 86 31 216 4 380 -25 144 -25 265 -2 331
25 68 64 140 159 287 151 235 313 471 269 392 -39 -72 -254 -577 -265 -625
-17 -74 -13 -148 19 -285 14 -60 29 -139 34 -175 14 -97 5 -350 -14 -407 -8
-24 17 -25 49 -2 18 13 70 58 115 99 45 41 103 90 129 108 90 65 286 150 524
226 105 34 122 43 178 93 76 69 97 102 165 257 140 320 167 360 340 498 39 30
98 86 130 123 33 37 69 78 80 90 11 13 47 54 80 91 33 37 69 77 80 90 11 12
47 54 80 93 33 38 64 70 69 70 5 1 4 -5 -2 -11 -5 -7 -35 -62 -67 -123 -240
-459 -208 -414 -387 -554 -71 -56 -107 -110 -154 -231 -24 -63 -49 -124 -54
-135 -16 -33 -78 -195 -75 -195 14 0 337 176 405 221 107 69 171 91 450 149
200 42 410 77 505 85 44 4 98 9 120 11 79 7 321 201 396 317 43 67 74 160 89
267 27 199 52 260 146 355 36 35 101 115 145 177 44 62 87 122 95 133 8 11 37
54 66 95 146 213 188 273 188 267 0 -19 -213 -453 -261 -532 -11 -16 -22 -37
-26 -45 -10 -20 -40 -64 -90 -131 -62 -82 -84 -155 -98 -334 -8 -108 -11 -133
-20 -185 -18 -110 -82 -216 -163 -270 -26 -18 -38 -30 -27 -27 11 3 43 9 70
13 62 9 38 3 245 57 155 40 224 56 310 71 126 21 226 44 344 78 76 22 148 42
160 44 42 9 203 33 256 39 94 11 153 47 227 139 68 86 223 313 363 533 84 133
106 161 71 87 -67 -138 -330 -738 -326 -742 11 -11 503 149 596 195 103 49
202 80 319 98 19 3 46 8 60 10 61 10 190 25 240 29 30 3 96 8 145 12 110 9
503 10 565 2 65 -9 130 -27 130 -37 0 -4 -8 -17 -17 -29 -10 -11 -25 -29 -33
-39 -16 -18 -203 -263 -243 -317 -222 -299 -303 -352 -817 -533 -406 -143
-510 -198 -675 -360 -68 -66 -231 -252 -365 -417 -95 -117 -135 -162 -226
-253 -88 -87 -133 -116 -211 -133 -107 -24 -330 -153 -498 -289 -109 -88 -263
-239 -327 -321 -153 -194 -256 -260 -443 -285 -27 -4 -61 -9 -75 -11 -32 -5
-373 -4 -505 1 -152 7 -452 7 -522 1 -217 -19 -383 -87 -580 -236 l-64 -49
-127 1 c-128 0 -191 -5 -247 -22 -16 -5 -73 -14 -125 -20 -52 -5 -131 -19
-175 -31 -44 -11 -87 -22 -95 -24 -8 -2 -49 -12 -90 -24 -41 -11 -88 -22 -105
-25 -16 -3 -78 -14 -136 -24 -189 -33 -336 -10 -524 83 -114 56 -227 135 -318
221 -29 28 -58 53 -64 57 -14 9 29 -90 89 -208 147 -287 337 -452 558 -482 19
-3 36 -6 38 -8 2 -1 -7 -22 -18 -46 -21 -42 -23 -44 -71 -46 -89 -3 -173 -57
-213 -136 -19 -37 -20 -38 -28 -15 -42 113 -187 229 -373 297 -50 18 -78 38
-160 119 -55 54 -137 127 -182 162 -46 35 -83 65 -83 67 0 3 8 2 18 -1 14 -5
21 7 40 66 80 255 280 499 617 756 209 159 329 228 600 344 177 76 303 139
535 268 597 333 1170 588 1715 766 174 57 365 117 490 153 39 11 102 30 140
41 39 12 77 23 85 25 8 2 134 38 280 80 288 83 711 201 775 216 41 10 587 157
685 185 30 8 66 17 80 20 48 9 102 25 98 29 -3 3 -82 -11 -164 -29 -12 -2 -39
-7 -60 -10 -22 -4 -46 -8 -54 -11 -8 -2 -26 -6 -40 -9 -34 -6 -240 -45 -265
-50 -11 -3 -238 -48 -505 -101 -267 -53 -588 -119 -715 -146 -213 -46 -395
-84 -455 -95 -14 -3 -31 -7 -39 -10 -8 -3 -67 -16 -130 -30 -64 -14 -123 -27
-131 -29 -8 -2 -85 -20 -170 -40 -209 -50 -397 -103 -441 -126 -62 -31 -225
-94 -414 -158 -603 -207 -775 -284 -1125 -499 -266 -164 -465 -270 -655 -349
-225 -92 -350 -165 -485 -281 -203 -175 -393 -406 -566 -689 -67 -109 -80
-124 -98 -118 -12 3 -62 9 -113 12 -90 6 -92 6 -104 36 -20 48 -134 214 -196
283 -78 89 -172 161 -323 247 -76 42 -180 117 -305 216 -201 161 -314 230
-640 390 -82 41 -181 91 -218 112 -135 76 -439 188 -1231 451 -650 217 -628
210 -621 197 4 -5 11 -9 17 -9 7 0 95 -34 197 -76 711 -290 1036 -429 1300
-555 79 -38 145 -69 147 -69 2 0 54 -28 116 -61 193 -105 404 -241 677 -437
96 -69 218 -150 274 -183 33 -19 73 -42 90 -53 157 -92 365 -286 463 -432 30
-45 54 -86 54 -91 0 -5 -32 -19 -71 -30 -55 -17 -69 -18 -65 -7 3 8 -9 5 -32
-10 -20 -13 -59 -33 -87 -44 -257 -103 -270 -107 -330 -106 -65 1 -154 26
-330 94 -138 53 -130 51 -255 59 -124 8 -152 20 -235 97 -101 94 -177 136
-301 168 -55 13 -79 17 -221 31 -29 3 -77 7 -105 10 -29 3 -78 8 -108 11 -200
19 -284 40 -361 91 -34 22 -99 94 -99 108 0 4 -26 44 -57 88 -113 161 -291
324 -410 378 -94 42 -99 47 -327 397 -148 224 -211 280 -471 409 -316 158
-348 187 -495 439 -47 82 -93 159 -100 171 -8 12 -11 26 -7 30 10 9 145 9 207
0 25 -4 65 -9 89 -12 24 -3 65 -10 90 -16 25 -6 64 -13 86 -16 55 -8 278 -72
289 -84 6 -5 16 -9 22 -9 7 0 33 -14 58 -30 40 -27 240 -126 332 -165 32 -13
35 -13 30 3 -3 9 -35 115 -71 235 -37 120 -65 221 -62 224 3 2 8 -6 12 -19 14
-43 172 -355 204 -402 37 -54 70 -73 168 -97 40 -10 105 -32 145 -50 40 -17
150 -57 243 -89 181 -62 327 -116 360 -132 14 -7 10 0 -11 23 -63 68 -68 88
-71 267 -2 145 -4 168 -23 200 -48 86 -91 186 -134 314 -25 76 -46 141 -45
145 0 5 10 -12 23 -37 104 -206 165 -314 216 -385 51 -69 58 -95 64 -215 3
-58 9 -119 15 -137 14 -47 67 -120 138 -190 65 -63 66 -63 188 -89 53 -11 296
-88 360 -114 88 -36 136 -61 165 -87 48 -42 223 -164 227 -159 7 7 -66 276
-80 297 -8 11 -38 45 -65 74 -59 62 -67 77 -116 203 -67 170 -87 227 -78 217
5 -6 57 -80 115 -165 59 -85 133 -184 166 -220 72 -79 99 -131 141 -275 33
-115 62 -175 102 -212 13 -12 82 -51 153 -87 160 -79 222 -124 304 -221 35
-41 70 -75 76 -75 8 0 11 16 10 43 -2 77 22 211 58 318 42 122 42 157 3 284
-70 230 -84 275 -81 275 6 0 174 -346 190 -389 22 -63 19 -145 -10 -242 -38
-125 -41 -191 -16 -267 28 -84 56 -125 127 -193 239 -227 261 -250 366 -396
61 -84 114 -150 119 -147 5 3 21 28 34 55 57 111 69 265 31 384 -28 88 -54
137 -156 300 -156 249 -195 355 -199 532 -2 95 -8 169 -16 221 -3 17 -8 48
-11 68 -22 141 -113 259 -232 302 -70 26 -111 30 -322 37 -91 3 -174 7 -185 9
-11 2 -56 7 -100 10 -113 10 -309 51 -412 87 -206 71 -373 175 -537 334 -44
43 -236 194 -307 242 -264 178 -520 259 -692 219 -30 -7 -85 -29 -123 -48
-248 -128 -509 -164 -1029 -144 -127 5 -160 3 -218 -13 -91 -25 -170 -65 -307
-157 -106 -71 -205 -125 -238 -130 -8 -2 -16 -5 -18 -7 -3 -2 32 -61 78 -130
46 -69 103 -159 128 -199 163 -265 284 -406 426 -498 44 -27 132 -71 197 -96
177 -69 207 -104 284 -334 50 -152 90 -227 154 -291 54 -54 182 -129 221 -129
35 0 199 -93 246 -138 27 -26 87 -100 134 -163 115 -156 193 -218 340 -273 64
-24 154 -48 228 -60 19 -3 45 -8 56 -10 12 -2 39 -7 60 -10 63 -10 214 -53
284 -81 99 -40 154 -71 280 -155 192 -129 202 -132 445 -135 99 -1 190 -6 202
-11 20 -8 16 -12 -45 -44 -113 -58 -433 -260 -500 -315 -9 -8 -56 -42 -103
-77 -140 -103 -246 -195 -390 -338 -117 -117 -157 -166 -244 -300 -58 -90
-161 -239 -398 -575 -52 -73 -379 -562 -432 -645 -96 -150 -232 -395 -294
-529 -73 -159 -105 -260 -127 -396 -4 -27 -8 -54 -9 -60 -3 -11 -73 -358 -80
-397 -51 -258 -86 -456 -100 -558 -3 -25 -8 -56 -10 -70 -3 -14 -7 -51 -10
-83 -4 -32 -8 -66 -10 -75 -8 -42 -18 -219 -20 -342 -2 -180 9 -302 45 -477
53 -256 103 -392 240 -657 37 -72 94 -201 125 -286 52 -140 67 -179 96 -245 4
-11 27 -63 49 -115 116 -267 279 -532 353 -572 58 -31 218 -30 392 2 33 6 116
22 185 35 69 13 141 27 160 30 37 6 94 16 122 21 9 1 48 5 85 9 56 5 115 13
143 20 3 0 23 4 45 9 145 28 517 157 705 243 527 242 716 375 1005 708 39 44
72 82 75 85 3 3 27 32 55 65 27 33 52 62 55 65 3 3 21 25 40 50 19 25 37 47
40 50 14 14 342 431 431 550 10 14 58 75 105 135 75 94 184 253 233 336 151
257 379 705 481 944 l21 50 25 -75 c166 -498 429 -974 933 -1685 90 -127 272
-377 281 -385 3 -3 32 -39 65 -80 556 -702 1366 -1302 1870 -1383 17 -3 73
-12 125 -21 52 -9 112 -18 134 -21 41 -5 106 -14 146 -20 29 -4 183 -25 220
-30 14 -2 56 -6 95 -10 38 -4 72 -8 75 -10 3 -1 39 -6 80 -10 106 -9 149 -14
195 -19 22 -3 96 -10 165 -16 69 -6 145 -13 168 -15 24 -3 81 -8 125 -11 45
-2 109 -7 142 -10 117 -10 551 -12 615 -3 92 13 178 58 239 125 146 160 293
457 425 862 50 153 135 461 161 582 9 41 18 82 20 90 11 48 35 171 41 204 3
21 7 46 9 55 21 93 67 324 70 351 3 19 10 70 16 115 15 103 19 355 7 465 -43
417 -201 887 -497 1480 -127 253 -295 550 -388 682 -18 26 -33 50 -33 52 0 4
-89 138 -107 161 -4 6 -21 30 -38 55 -63 94 -349 476 -375 500 -3 3 -52 61
-110 130 -362 433 -897 963 -1208 1199 -232 175 -411 273 -767 420 -82 34
-373 121 -475 142 -12 2 114 30 220 49 132 23 178 28 310 35 241 13 292 17
390 31 193 28 351 75 470 141 101 57 170 113 289 238 210 220 269 272 371 328
96 53 188 85 352 122 162 37 265 79 361 149 131 93 202 191 329 455 49 102
110 216 134 253 90 135 192 200 379 242 335 74 582 212 835 466 120 119 149
153 295 340 122 156 333 407 417 495 46 48 47 61 8 68 -44 9 -206 113 -260
167 -5 5 -130 114 -184 160 -16 14 -34 30 -40 35 -53 50 -213 157 -286 192
-74 36 -200 75 -280 87 -19 3 -82 7 -140 11 -58 3 -127 8 -155 10 -27 3 -77 7
-110 10 -80 7 -163 15 -200 20 -35 4 -128 18 -135 20 -3 0 -30 5 -60 9 -30 4
-62 9 -70 11 -8 2 -28 6 -45 9 -84 16 -111 23 -255 63 -69 19 -134 38 -145 42
-11 5 -54 21 -95 36 -116 43 -243 109 -390 204 -172 111 -261 144 -410 150
-36 1 -67 4 -71 7 -3 2 -8 2 -10 0z m-2008 -4861 c79 -55 221 -206 403 -430
54 -65 131 -155 173 -199 111 -117 302 -348 411 -496 23 -30 45 -60 50 -65 25
-29 262 -360 322 -450 246 -366 440 -734 581 -1099 38 -98 46 -132 18 -78 -62
121 -211 353 -404 632 -318 457 -446 626 -645 850 -41 46 -88 100 -105 119
-16 19 -39 44 -50 55 -11 12 -45 50 -75 86 -30 36 -57 67 -60 70 -15 14 -141
174 -254 325 -90 119 -170 210 -266 305 -151 149 -197 188 -336 286 -75 54
-92 70 -83 81 7 7 14 11 17 9 2 -3 23 7 45 21 23 14 52 29 66 33 34 9 146 -23
192 -55z m-3134 20 c54 -36 94 -118 132 -270 l10 -40 78 -3 c163 -6 202 -14
258 -51 60 -39 163 -135 269 -251 l59 -65 -16 -80 c-9 -44 -19 -96 -22 -115
-3 -19 -8 -42 -10 -50 -2 -8 -7 -42 -11 -75 -3 -33 -8 -69 -10 -80 -2 -11 -7
-54 -10 -95 -3 -41 -8 -86 -10 -100 -2 -14 -3 -79 -2 -145 5 -297 0 -496 -17
-670 -3 -22 -7 -148 -10 -280 -5 -196 -30 -505 -50 -624 -5 -26 -14 -116 -30
-281 -13 -140 -17 -164 -31 -209 -29 -89 -148 -309 -324 -601 -193 -321 -299
-509 -344 -610 -113 -256 -245 -460 -450 -699 -141 -164 -326 -344 -501 -489
-182 -149 -499 -319 -840 -452 -245 -95 -803 -286 -888 -304 -12 -3 -49 -13
-82 -22 -33 -9 -69 -18 -80 -20 -11 -2 -65 -13 -120 -24 -108 -21 -143 -28
-190 -35 -29 -4 -34 1 -115 117 -47 67 -113 167 -147 222 -35 56 -71 115 -82
131 -46 71 -114 224 -147 328 -42 133 -62 195 -74 222 -5 11 -40 106 -78 210
-168 461 -203 614 -197 865 2 80 6 154 8 165 3 11 8 47 12 80 3 32 8 62 10 65
1 3 6 27 9 54 4 27 9 52 11 56 2 3 6 26 10 50 3 25 8 53 11 62 3 9 7 27 9 40
12 62 28 146 31 173 3 17 9 53 14 80 5 28 11 66 14 85 52 365 136 722 206 885
297 682 522 1049 893 1455 63 70 297 319 318 339 109 108 259 249 319 301 41
36 77 67 80 70 3 3 48 39 100 81 220 174 552 388 735 473 102 48 118 54 200
79 170 52 216 55 620 43 149 -4 195 -2 265 13 96 20 172 18 207 -4z m2286
-183 c178 -120 582 -503 847 -802 36 -40 70 -78 75 -84 6 -6 33 -38 60 -71 28
-33 55 -65 60 -71 6 -6 24 -28 40 -49 17 -21 51 -63 76 -94 110 -134 363 -475
454 -611 17 -25 35 -50 40 -56 42 -48 598 -907 700 -1082 6 -9 74 -123 151
-252 137 -228 266 -451 334 -575 18 -33 45 -82 60 -110 62 -113 148 -279 221
-425 68 -137 106 -218 202 -430 106 -235 198 -497 313 -895 97 -336 149 -507
295 -965 92 -291 92 -299 4 -85 -32 77 -70 169 -85 205 -15 36 -48 117 -75
180 -26 63 -58 139 -71 168 -13 29 -24 54 -24 56 0 6 -267 631 -301 704 -16
35 -29 65 -29 67 0 2 -13 32 -29 67 -34 73 -74 162 -122 268 -68 152 -336 677
-415 813 -19 32 -34 60 -34 63 0 10 -485 858 -535 934 -12 19 -65 107 -117
195 -433 733 -922 1474 -1301 1975 -61 80 -126 163 -146 185 -20 22 -49 57
-66 76 -37 45 -104 118 -249 273 -107 116 -154 164 -356 370 l-95 97 40 -6
c22 -4 57 -19 78 -33z m-361 -542 c80 -124 180 -281 223 -350 84 -137 575
-956 614 -1023 166 -290 512 -825 828 -1282 30 -44 116 -170 191 -280 76 -110
189 -275 252 -367 289 -421 290 -424 94 -183 -58 72 -121 148 -139 170 -26 32
-197 242 -248 305 -7 8 -77 96 -157 195 -80 99 -147 182 -150 185 -3 3 -89
109 -190 235 -102 127 -190 237 -197 245 -113 136 -250 327 -360 500 -114 180
-163 268 -323 575 -40 77 -77 144 -81 150 -5 5 -9 14 -9 21 0 15 -161 312
-212 389 -84 129 -254 490 -402 854 -25 62 -46 118 -46 124 0 12 119 -164 312
-463z m2250 222 c59 -43 146 -115 265 -218 104 -89 378 -367 474 -479 143
-166 226 -277 405 -540 71 -104 360 -520 416 -598 203 -283 441 -654 537 -839
67 -128 92 -189 166 -398 18 -52 57 -160 85 -240 86 -241 161 -480 176 -560 3
-14 7 -32 9 -40 14 -45 45 -242 51 -318 11 -142 7 -313 -11 -457 -11 -85 -15
-124 -20 -170 -3 -27 -8 -61 -10 -75 -2 -14 -7 -47 -10 -75 -10 -77 -15 -110
-60 -395 -13 -82 -37 -216 -40 -220 -2 -3 -6 -30 -10 -60 -10 -78 -18 -78 -11
0 4 36 9 97 11 135 3 39 8 93 10 120 23 239 24 912 1 1030 -2 11 -7 45 -11 75
-8 64 -8 62 -36 200 -20 105 -85 366 -113 457 -118 386 -220 665 -316 868 -59
125 -264 459 -564 920 -65 99 -148 226 -184 283 -277 428 -435 652 -661 937
-151 189 -380 452 -531 608 -47 48 -86 93 -88 100 -2 8 -1 8 5 2 4 -6 34 -29
65 -53z m-2852 -532 c37 -175 32 -153 64 -275 32 -121 129 -412 156 -468 11
-23 20 -45 20 -50 0 -20 155 -324 235 -462 48 -82 98 -168 110 -190 51 -90
249 -422 266 -447 11 -14 19 -28 19 -31 0 -26 464 -736 648 -992 232 -322 622
-824 676 -870 6 -5 22 -23 35 -40 12 -16 37 -46 54 -65 18 -19 68 -76 112
-125 44 -49 85 -95 90 -101 6 -6 48 -52 95 -104 47 -51 99 -107 115 -125 50
-52 262 -279 291 -311 15 -16 71 -76 124 -134 129 -140 150 -164 267 -310 143
-178 213 -247 413 -406 188 -149 502 -369 748 -523 28 -18 52 -35 52 -37 0 -2
-30 8 -67 23 -38 14 -79 29 -93 33 -26 9 -125 50 -225 95 -314 140 -655 351
-870 539 -69 60 -266 255 -375 372 -140 148 -309 335 -421 464 -41 47 -76 87
-80 90 -7 6 -131 150 -184 215 -22 26 -47 55 -56 64 -21 22 -327 394 -375 457
-21 28 -68 89 -104 135 -36 46 -146 193 -244 327 -98 134 -208 284 -244 332
-390 521 -658 922 -857 1285 -82 149 -214 424 -249 517 -73 196 -139 435 -160
583 -4 22 -11 63 -16 90 -9 49 -14 83 -25 195 -4 30 -8 75 -11 100 -8 72 -13
512 -6 545 4 21 11 -14 23 -110 10 -77 32 -205 49 -285z m-316 -265 c3 -17 7
-52 11 -80 3 -27 7 -61 9 -75 3 -14 7 -41 10 -60 42 -267 148 -701 196 -805 5
-11 18 -42 29 -70 11 -27 62 -135 114 -240 52 -104 116 -234 142 -288 40 -84
65 -130 149 -282 44 -78 555 -791 637 -889 5 -6 48 -63 94 -126 46 -63 88
-119 92 -125 88 -112 94 -126 31 -70 -161 142 -422 411 -562 580 -144 173
-134 161 -192 240 -280 387 -436 690 -588 1148 -70 210 -140 482 -161 624 -2
15 -7 48 -10 73 -4 25 -8 56 -11 70 -10 61 -16 263 -9 334 7 82 11 89 19 41z
m56 -1470 c54 -163 153 -425 207 -545 114 -253 260 -526 363 -681 646 -969
1143 -1608 1505 -1939 123 -112 153 -138 275 -240 68 -58 134 -113 145 -123
20 -19 575 -464 629 -505 37 -29 31 -28 -59 8 -217 86 -498 256 -755 456 -69
54 -127 100 -130 103 -3 3 -43 40 -90 81 -216 190 -600 603 -816 875 -17 22
-51 65 -75 95 -149 186 -320 434 -509 735 -62 99 -150 234 -196 301 -136 198
-208 346 -309 630 -67 187 -162 511 -190 644 -2 8 -13 58 -25 110 -12 52 -26
115 -31 140 -5 25 -11 54 -14 65 l-5 20 9 -20 c5 -11 37 -105 71 -210z m5234
-4241 c3 -8 2 -12 -4 -9 -6 3 -10 10 -10 16 0 14 7 11 14 -7z"/>
<path d="M5475 8739 c-22 -4 -55 -10 -73 -13 -113 -21 -291 -113 -552 -287
-318 -211 -470 -337 -770 -639 -91 -92 -181 -185 -200 -207 -19 -22 -76 -84
-127 -139 -281 -304 -464 -574 -662 -974 -34 -69 -67 -133 -72 -143 -22 -41
-128 -288 -152 -354 -46 -127 -103 -369 -132 -563 -3 -19 -9 -62 -15 -95 -5
-33 -16 -103 -25 -155 -8 -52 -17 -106 -20 -120 -16 -84 -27 -138 -31 -160 -3
-14 -12 -59 -20 -100 -9 -41 -17 -86 -19 -100 -2 -14 -12 -68 -21 -120 -17
-96 -24 -344 -13 -410 23 -125 73 -284 194 -609 46 -124 97 -271 115 -326 48
-154 60 -185 97 -255 39 -72 143 -240 149 -240 17 0 285 78 389 114 999 340
1256 476 1650 871 244 244 434 493 526 692 112 238 136 287 201 403 39 69 130
224 203 345 244 407 332 563 340 603 1 9 6 51 9 92 4 41 9 91 11 110 2 19 7
60 10 90 6 59 10 92 21 180 7 63 9 80 19 175 3 39 8 77 10 85 2 8 7 40 10 70
13 117 18 136 60 220 43 85 43 87 49 220 4 74 8 158 10 185 21 282 21 286 13
565 -5 183 6 347 32 510 l9 55 -46 46 c-46 46 -48 47 -127 53 -101 8 -125 12
-205 36 -126 37 -245 129 -302 232 l-23 43 -85 1 c-47 1 -132 5 -190 9 -150
11 -200 12 -245 4z m28 -214 c9 -4 17 -16 17 -27 0 -19 -5 -20 -62 -16 l-63 4
34 -34 c25 -24 31 -36 22 -41 -11 -7 -74 -1 -145 15 l-30 6 25 -23 c35 -33 59
-70 59 -90 0 -22 -29 -19 -94 9 -27 12 -50 22 -52 22 -3 0 23 -33 51 -64 6 -6
25 -30 44 -54 l34 -43 -39 16 c-109 45 -159 112 -152 201 9 108 58 136 228
130 58 -2 113 -7 123 -11z m397 -126 c219 -42 471 -272 469 -428 l0 -46 -21
55 c-11 30 -30 69 -41 85 -27 40 -97 105 -139 129 -27 16 -22 9 24 -38 58 -57
100 -119 113 -166 6 -24 5 -23 -25 8 -43 44 -126 105 -180 131 -32 15 -38 16
-20 4 54 -38 114 -100 146 -151 45 -70 43 -82 -8 -40 -24 19 -71 53 -105 76
-66 45 -242 136 -249 129 -2 -2 8 -10 24 -18 104 -53 245 -175 290 -252 18
-32 19 -36 4 -28 -9 5 -26 19 -37 31 -28 31 -118 91 -192 129 -35 17 -63 30
-63 28 0 -2 22 -18 49 -35 65 -43 150 -129 180 -183 l24 -44 -49 45 c-96 89
-205 152 -374 216 -92 35 -123 52 -152 83 -21 22 -36 46 -33 53 2 7 7 30 10
51 14 102 84 169 194 186 49 8 75 6 161 -10z m-1065 -87 c-22 -20 -92 -84
-155 -142 -301 -276 -510 -493 -655 -678 -5 -7 -15 -18 -20 -25 -6 -7 -82
-106 -169 -222 -88 -115 -162 -212 -166 -215 -16 -11 -175 -267 -243 -390 -13
-25 -47 -85 -74 -135 -122 -221 -223 -494 -397 -1070 -68 -225 -196 -610 -225
-675 -9 -21 -10 -18 -5 20 4 25 8 52 9 60 1 8 6 35 10 60 4 25 9 54 12 65 7
33 13 67 24 130 19 113 40 210 85 395 25 102 47 193 49 203 12 58 93 292 143
412 27 66 70 178 96 248 50 137 94 214 257 459 90 134 261 374 278 388 3 3 28
32 56 65 51 62 281 332 300 351 5 6 37 42 70 80 113 132 341 349 460 441 117
90 285 211 295 212 3 0 -13 -16 -35 -37z m116 -238 c47 -27 49 -44 5 -34 -20
4 -36 6 -36 4 0 -2 11 -20 25 -40 23 -33 24 -39 11 -52 -13 -13 -22 -13 -78 3
-35 9 -69 22 -75 27 -28 23 -10 -5 28 -45 47 -48 89 -110 89 -131 0 -28 -61
-22 -214 19 -27 7 -26 5 16 -33 43 -40 103 -134 96 -151 -5 -14 -125 16 -185
47 -95 48 -145 131 -129 216 8 40 24 60 90 110 86 66 150 86 252 82 48 -2 83
-9 105 -22z m574 -188 c171 -36 347 -136 487 -277 111 -113 159 -202 165 -311
l4 -73 -27 70 c-48 125 -117 215 -222 287 -54 37 -67 30 -18 -9 57 -44 136
-148 162 -211 12 -31 21 -58 20 -60 -2 -2 -23 17 -47 41 -60 60 -140 118 -224
162 -38 20 -59 28 -46 19 13 -10 40 -33 60 -51 20 -18 39 -33 42 -33 3 0 28
-28 56 -62 51 -64 97 -143 91 -158 -2 -5 -23 9 -48 31 -73 65 -247 177 -355
229 -129 62 -171 73 -77 20 41 -22 95 -55 120 -72 72 -48 223 -208 256 -269
l30 -54 -61 56 c-34 31 -92 77 -130 102 -68 45 -234 137 -247 137 -4 0 26 -22
66 -49 121 -81 219 -183 268 -280 l22 -44 -61 60 c-118 117 -324 236 -531 308
-147 52 -217 103 -227 167 -8 52 31 182 64 216 7 7 13 17 13 20 0 14 97 71
146 85 49 15 183 16 249 3z m1004 -90 c16 -10 9 -45 -32 -163 -17 -51 -37 -93
-43 -93 -18 0 -92 57 -110 86 -10 14 -18 44 -18 66 0 33 5 45 29 64 49 39 141
60 174 40z m-2104 -299 c86 -19 124 -33 147 -54 38 -34 18 -37 -112 -18 -14 2
-50 6 -80 10 -30 3 -68 8 -85 12 -24 4 -12 -9 62 -66 104 -80 135 -117 112
-132 -16 -10 -193 -4 -261 9 -27 5 -48 9 -48 7 0 -1 23 -17 51 -35 105 -68
192 -179 158 -201 -21 -15 -124 -3 -217 24 -46 13 -80 21 -75 17 4 -4 53 -39
108 -78 149 -107 142 -101 125 -112 -27 -17 -64 -11 -135 23 -92 45 -176 121
-205 189 -42 97 -16 219 70 327 46 58 77 80 123 91 49 11 183 4 262 -13z m681
-242 c280 -71 564 -285 676 -511 35 -71 41 -94 44 -160 4 -83 -4 -87 -26 -14
-29 97 -101 213 -171 275 -43 38 -157 115 -171 115 -5 0 12 -17 39 -38 91 -73
171 -173 212 -266 34 -77 25 -80 -42 -13 -35 34 -95 83 -133 108 -74 50 -214
131 -214 124 0 -2 21 -18 48 -36 83 -57 214 -198 256 -278 21 -40 36 -74 34
-76 -2 -2 -24 12 -48 32 -140 112 -315 226 -421 276 -104 48 -172 77 -175 74
-2 -1 25 -18 59 -37 190 -103 339 -232 438 -378 55 -83 62 -103 21 -64 -61 60
-122 107 -212 166 -132 86 -281 163 -265 136 3 -6 10 -10 15 -10 14 0 99 -58
160 -109 99 -83 159 -153 210 -246 l33 -60 -59 59 c-32 32 -83 77 -114 100
-30 22 -57 43 -60 46 -3 3 -36 24 -75 47 -105 63 -272 140 -397 184 -118 41
-186 81 -228 132 -21 26 -24 40 -23 91 4 101 47 203 113 264 28 26 131 77 170
85 76 14 211 6 306 -18z m1374 -70 c16 -20 12 -23 -34 -30 -20 -4 -54 -12 -74
-19 l-37 -13 36 -17 c20 -9 48 -30 63 -45 l28 -29 -22 -15 c-16 -11 -44 -15
-96 -14 -72 2 -73 2 -51 -15 12 -10 25 -18 28 -18 3 0 14 -12 25 -27 24 -33
36 -83 24 -103 -11 -18 -59 -17 -100 3 -18 10 -35 15 -37 13 -3 -2 18 -35 46
-72 27 -38 48 -70 46 -72 -5 -5 -87 47 -118 77 -60 55 -73 122 -47 230 17 73
74 131 156 158 77 26 147 29 164 8z m-2525 -503 c61 -13 81 -21 83 -35 3 -17
-2 -18 -55 -13 -32 4 -83 9 -113 12 -30 2 -66 7 -80 9 -15 3 -5 -5 25 -21 28
-15 69 -42 93 -62 37 -30 42 -37 30 -49 -14 -14 -109 -20 -223 -14 -27 2 -53
2 -56 2 -3 -1 15 -22 39 -48 45 -48 132 -187 132 -210 0 -34 -76 -34 -169 1
-24 9 -45 16 -46 16 -1 0 14 -17 34 -38 37 -39 117 -179 108 -189 -3 -3 -30 3
-59 12 -187 62 -271 155 -271 301 0 61 5 82 36 146 44 91 101 151 170 176 69
26 214 28 322 4z m2139 -174 c51 -15 144 -68 173 -100 23 -24 40 -88 24 -88
-5 0 -42 11 -82 25 -40 13 -74 23 -76 21 -2 -1 12 -23 30 -47 40 -52 67 -102
67 -124 0 -25 -66 -8 -195 49 l-59 27 52 -52 c29 -29 80 -88 113 -131 49 -66
57 -82 49 -99 -12 -22 -16 -21 -143 53 -38 22 -70 38 -72 36 -2 -2 14 -32 36
-67 41 -63 104 -199 96 -207 -8 -8 -123 74 -173 123 -153 149 -169 319 -47
490 74 104 109 120 207 91z m-1549 -23 c64 -11 208 -61 287 -101 221 -111 427
-305 507 -478 28 -62 45 -155 36 -202 -7 -40 -11 -41 -19 -4 -11 60 -58 165
-100 225 -56 80 -171 178 -256 218 l-35 17 25 -21 c88 -73 133 -117 169 -163
48 -62 95 -147 109 -199 l10 -36 -71 70 c-75 74 -208 169 -307 219 -33 17 -60
29 -60 26 0 -2 18 -16 41 -30 135 -90 279 -261 310 -369 l9 -30 -33 29 c-17
16 -34 32 -37 35 -3 3 -32 25 -65 50 -33 24 -62 46 -65 49 -6 6 -91 63 -105
70 -5 3 -29 18 -53 33 -75 49 -342 175 -342 162 0 -2 39 -24 86 -50 176 -95
331 -227 433 -370 81 -112 81 -126 4 -58 -38 32 -70 61 -73 64 -31 37 -383
239 -417 239 -4 0 26 -20 67 -45 150 -93 254 -190 335 -315 59 -91 64 -113 13
-60 -105 111 -267 222 -452 310 -137 65 -156 73 -273 114 -120 41 -167 69
-217 128 -37 42 -37 44 -32 109 18 206 126 333 311 366 17 3 32 6 33 8 6 6
183 -2 227 -10z m-1021 -761 c9 -8 16 -19 16 -23 0 -7 -91 -37 -180 -59 l-34
-8 76 -38 c97 -48 107 -59 87 -94 -13 -23 -20 -26 -54 -24 -22 2 -67 10 -100
18 -81 19 -85 18 -44 -10 69 -47 119 -133 125 -214 l4 -54 -32 6 c-18 4 -67
33 -109 66 l-77 59 64 -94 c38 -55 59 -95 52 -95 -23 0 -100 54 -156 109 -99
97 -116 181 -61 301 54 118 98 142 284 156 44 3 82 8 84 10 10 9 41 3 55 -12z
m544 -98 c115 -9 295 -76 416 -154 23 -15 43 -29 46 -32 3 -3 23 -18 45 -34
50 -37 138 -128 175 -181 76 -111 111 -220 95 -303 l-7 -37 -18 66 c-38 148
-147 282 -294 363 -53 29 -74 30 -29 1 50 -33 135 -119 175 -177 65 -97 107
-214 53 -149 -38 44 -139 121 -223 169 -66 37 -158 82 -169 82 -3 0 28 -22 69
-49 103 -69 187 -156 240 -251 53 -92 46 -95 -54 -20 -123 92 -281 181 -414
235 -155 61 -174 64 -62 7 207 -106 370 -249 453 -397 l28 -50 -39 35 c-21 19
-41 37 -44 40 -40 39 -213 147 -295 185 -50 23 -157 65 -164 65 -3 0 26 -17
64 -38 126 -67 214 -140 294 -241 37 -48 87 -131 78 -131 -1 0 -29 24 -61 54
-140 132 -368 250 -631 326 -60 18 -126 40 -145 50 -56 28 -110 89 -111 125
-9 249 133 420 366 442 33 3 62 7 63 8 2 2 9 2 15 0 7 -2 45 -6 85 -9z m1732
-9 c77 -14 150 -64 150 -103 0 -30 -10 -55 -20 -49 -4 2 -37 7 -73 11 l-65 6
1 -58 c1 -59 -10 -174 -17 -181 -2 -2 -25 30 -51 72 -49 76 -61 90 -50 56 8
-26 9 -126 2 -176 -4 -22 -9 -59 -12 -83 -13 -90 -15 -90 -75 -18 -30 35 -55
64 -56 63 -1 -1 4 -27 12 -57 7 -30 20 -87 27 -127 l14 -72 -31 21 c-65 44
-148 140 -179 205 -26 57 -31 79 -31 147 0 71 4 90 32 150 34 72 100 158 136
178 56 31 168 37 286 15z m-2571 -779 c11 -29 4 -33 -53 -33 -54 1 -61 -10
-13 -19 19 -3 42 -12 52 -20 17 -12 18 -18 7 -40 -11 -25 -15 -26 -93 -26
l-81 0 39 -44 c42 -48 87 -125 97 -168 5 -23 3 -28 -13 -28 -24 0 -83 25 -135
57 -41 26 -41 26 -20 2 31 -34 104 -141 104 -151 0 -10 -46 20 -94 62 -62 53
-95 91 -116 136 -20 40 -22 57 -17 126 4 69 9 84 32 108 27 28 92 47 180 53
22 1 57 3 78 5 31 2 39 -1 46 -20z m2044 -26 c87 -40 221 -132 209 -144 -9 -9
-43 3 -154 57 -39 19 -73 34 -74 32 -2 -1 8 -36 22 -77 32 -97 56 -199 49
-210 -3 -5 -14 -7 -25 -5 -22 4 -125 55 -179 88 -19 11 -32 17 -29 11 61 -104
117 -205 123 -224 7 -22 5 -23 -32 -18 -22 3 -84 24 -138 47 -53 23 -100 40
-103 37 -8 -9 39 -75 107 -149 33 -37 61 -72 61 -78 0 -11 -70 26 -130 69
-138 99 -180 231 -118 366 31 65 149 190 208 219 50 25 121 18 203 -21z
m-1513 -66 c268 -41 546 -247 627 -466 17 -43 28 -150 17 -150 -5 0 -17 25
-27 56 -35 110 -129 226 -231 285 -70 40 -77 36 -19 -10 93 -74 155 -156 188
-251 l16 -44 -48 48 c-54 54 -131 109 -213 152 -106 55 -116 55 -35 -1 30 -21
79 -64 109 -96 83 -90 156 -231 86 -166 -54 50 -192 137 -310 197 -73 36 -220
94 -220 86 0 -3 25 -16 55 -30 165 -75 351 -237 410 -356 l17 -35 -38 36 c-33
31 -110 86 -190 136 -24 16 -114 59 -174 84 l-45 19 25 -20 c14 -11 29 -20 34
-20 19 0 134 -91 186 -146 52 -55 120 -151 120 -168 0 -5 -12 5 -27 21 -117
123 -358 252 -589 313 -91 24 -151 56 -188 100 -22 27 -25 38 -21 90 15 252
200 380 485 336z m967 -721 c20 -9 57 -32 82 -52 45 -38 112 -106 107 -110 -1
-2 -49 13 -106 32 -57 19 -105 34 -106 32 -2 -2 6 -32 17 -67 22 -72 29 -124
18 -141 -9 -16 -44 4 -97 55 l-43 41 18 -35 c21 -42 25 -191 6 -197 -6 -2 -24
10 -40 27 -15 18 -41 41 -57 53 l-28 20 12 -23 c7 -12 14 -57 17 -99 l5 -76
-41 39 c-107 104 -115 262 -17 394 79 108 164 144 253 107z m-1669 -18 c3 -12
-6 -19 -27 -23 -17 -4 -35 -12 -41 -19 -8 -10 -3 -16 25 -25 59 -19 38 -73
-25 -64 l-25 4 25 -20 c14 -11 28 -20 31 -20 4 0 9 -20 11 -45 4 -52 -6 -55
-77 -30 -45 16 -55 18 -40 7 15 -10 58 -72 53 -77 -2 -2 -25 9 -50 25 -61 38
-88 89 -77 145 17 92 27 103 134 142 67 24 79 24 83 0z m530 -38 c236 -67 421
-238 438 -406 l5 -48 -35 73 c-39 81 -110 158 -176 192 -48 25 -64 21 -23 -5
47 -29 117 -108 142 -159 12 -26 21 -49 19 -51 -2 -2 -21 13 -43 33 -42 39
-92 71 -164 103 -52 23 -67 18 -19 -7 46 -24 142 -122 167 -172 l21 -42 -77
50 c-91 60 -191 110 -288 145 -96 34 -104 31 -18 -9 127 -60 231 -142 294
-233 l30 -43 -73 53 c-69 49 -203 117 -258 132 -14 3 -1 -7 29 -24 56 -32 133
-91 164 -126 39 -45 77 -104 62 -99 -8 3 -15 10 -15 14 0 11 -108 84 -177 119
-87 43 -174 75 -277 100 -102 25 -131 39 -165 75 -22 23 -23 31 -19 100 4 61
11 85 34 123 35 57 95 101 161 119 65 18 184 15 261 -7z m601 -533 c25 -14
101 -89 101 -102 0 -3 -16 7 -35 22 l-35 26 -1 -36 c-1 -20 -2 -42 -3 -48 -2
-26 -36 -18 -73 19 l-40 39 5 -73 5 -74 -27 10 c-14 6 -38 18 -52 28 l-27 17
7 -39 c4 -22 10 -51 12 -65 5 -22 0 -19 -35 19 -22 25 -42 53 -44 63 -8 29 87
146 153 190 32 21 54 22 89 4z m-799 -106 c109 -33 216 -130 226 -206 4 -33 3
-35 -6 -15 -25 56 -111 141 -143 141 -6 0 4 -11 21 -24 41 -29 79 -74 85 -97
4 -14 -3 -12 -32 11 -20 15 -54 35 -76 44 -39 15 -39 15 -15 -2 35 -24 100
-91 100 -103 0 -5 -28 6 -62 24 -66 35 -178 80 -178 72 0 -3 12 -10 26 -15 47
-18 132 -80 160 -118 l29 -37 -30 21 c-40 28 -131 74 -147 74 -7 0 3 -9 22
-21 40 -24 110 -89 110 -102 0 -4 -15 3 -33 17 -47 36 -130 71 -217 90 -140
32 -158 48 -145 132 13 91 102 149 210 137 17 -2 59 -13 95 -23z"/>
<path d="M4825 8543 c-230 -145 -455 -290 -505 -327 -88 -65 -230 -176 -290
-226 -30 -26 -93 -77 -140 -115 -47 -38 -87 -71 -90 -75 -3 -3 -53 -47 -111
-97 -326 -282 -434 -421 -640 -828 -58 -115 -151 -298 -205 -405 -148 -289
-255 -517 -275 -588 -15 -54 -18 -91 -14 -230 2 -92 6 -180 8 -197 3 -16 9
-59 13 -95 4 -36 9 -68 10 -72 1 -5 2 -22 3 -40 2 -51 11 -26 16 43 8 109 14
174 30 334 5 45 8 68 21 140 14 79 30 132 62 205 87 198 476 973 537 1070 135
214 309 411 565 641 58 52 127 114 154 139 97 89 283 248 381 325 21 17 50 40
64 52 99 83 226 185 346 277 195 151 201 157 60 69z"/>
<path d="M6842 8103 c0 -82 -9 -199 -16 -212 -13 -21 -20 -166 -21 -426 -2
-259 -9 -437 -20 -455 -2 -3 -6 -36 -10 -75 -3 -38 -8 -72 -10 -75 -2 -4 -7
-29 -10 -56 -4 -27 -10 -65 -15 -84 -5 -19 -11 -60 -15 -90 -3 -30 -8 -75 -11
-100 -3 -25 -10 -71 -15 -103 -6 -32 -12 -73 -14 -92 -3 -19 -9 -52 -13 -72
-13 -57 -3 -179 18 -235 22 -57 19 -76 -21 -180 -30 -79 -40 -103 -134 -308
-70 -152 -278 -590 -292 -612 -2 -5 -2 -8 0 -8 3 0 51 78 107 173 57 94 109
182 116 194 8 12 22 37 32 55 11 18 46 80 79 138 98 171 108 191 146 286 66
167 79 238 83 439 3 205 16 373 30 396 1 3 6 30 9 60 4 30 12 99 20 154 7 55
13 190 14 300 0 110 3 292 7 405 11 320 8 479 -11 509 -2 4 -6 25 -9 46 -8 58
-17 110 -21 113 -2 2 -3 -36 -3 -85z"/>
<path d="M2555 3570 c9 -16 18 -30 21 -30 2 0 -2 14 -11 30 -9 17 -18 30 -21
30 -2 0 2 -13 11 -30z"/>
<path d="M2580 3526 c0 -2 18 -50 39 -108 21 -58 65 -190 96 -294 84 -276 96
-304 206 -471 l101 -151 45 4 c73 6 124 14 185 29 31 8 78 17 105 20 125 16
258 57 493 151 38 15 212 103 469 236 65 33 722 467 751 495 8 8 -30 -14 -85
-49 -228 -146 -461 -263 -593 -298 -59 -16 -118 -43 -210 -96 -145 -85 -312
-171 -392 -204 -30 -12 -64 -26 -75 -31 -64 -28 -328 -107 -380 -114 -22 -3
-49 -7 -60 -10 -21 -4 -116 -14 -177 -19 -36 -2 -36 -2 -120 123 -96 143 -108
168 -188 376 -31 82 -68 170 -82 195 -14 25 -46 84 -72 133 -41 76 -56 98 -56
83z"/>
<path d="M12287 12113 c-1 0 -49 -4 -107 -8 -103 -7 -143 -14 -84 -16 16 0 36
-2 44 -3 8 -2 53 -6 100 -10 47 -4 101 -9 120 -11 19 -2 107 -7 195 -10 88 -3
186 -8 218 -10 82 -7 176 -16 217 -21 19 -2 98 -6 175 -10 77 -3 157 -7 178
-8 20 -2 37 1 37 6 0 4 -4 8 -8 8 -4 0 -84 16 -177 35 -94 20 -181 38 -195 41
-55 11 -703 27 -713 17z"/>
<path d="M13398 12003 c7 -3 16 -2 19 1 4 3 -2 6 -13 5 -11 0 -14 -3 -6 -6z"/>
<path d="M10430 11519 c-122 -13 -165 -18 -185 -23 -11 -2 -42 -7 -70 -10 -27
-4 -57 -9 -65 -11 -8 -2 -33 -6 -55 -9 -65 -10 -147 -27 -143 -31 2 -2 91 -7
198 -10 340 -10 395 -15 597 -54 139 -27 226 -37 433 -46 69 -4 143 -8 165
-10 22 -3 66 -7 98 -10 145 -13 182 -17 187 -20 3 -2 35 -6 70 -10 36 -3 72
-8 80 -10 8 -2 44 -7 80 -10 36 -3 76 -7 90 -10 14 -2 54 -7 90 -11 36 -3 70
-8 75 -11 7 -4 7 -3 0 4 -19 19 -322 123 -427 148 -88 20 -106 22 -248 35 -69
6 -172 20 -229 31 -57 12 -115 22 -130 24 -14 2 -42 6 -61 10 -107 18 -149 25
-190 30 -25 3 -53 9 -64 12 -29 8 -224 10 -296 2z"/>
<path d="M1829 11405 c-2 -2 -47 -6 -99 -10 -100 -7 -130 -14 -64 -16 21 0 48
-2 59 -4 11 -3 94 -7 185 -10 91 -4 176 -9 190 -11 14 -2 88 -7 165 -10 77 -3
146 -7 153 -10 7 -2 11 0 8 5 -7 10 -131 31 -276 45 -30 3 -66 8 -80 11 -31 6
-237 15 -241 10z"/>
<path d="M3239 10895 c-3 -2 -128 -7 -279 -10 -317 -7 -350 -9 -445 -30 -38
-9 -85 -19 -103 -22 -76 -13 -25 -18 226 -20 789 -7 940 -12 1020 -29 12 -2
22 -2 22 0 0 13 -292 91 -375 101 -27 4 -52 8 -56 10 -3 3 -8 3 -10 0z"/>
<path d="M8440 10725 c-63 -15 -136 -46 -165 -69 -19 -14 -17 -14 19 -5 46 13
199 16 276 6 30 -4 75 -9 100 -12 55 -6 258 -41 320 -55 176 -40 311 -73 383
-94 47 -14 104 -28 128 -31 24 -4 46 -8 49 -10 11 -7 138 -16 275 -20 164 -4
248 -20 350 -65 46 -21 293 -100 330 -106 22 -3 43 -8 46 -10 16 -10 299 -22
299 -13 0 3 -19 11 -42 18 -70 21 -279 100 -338 128 -30 14 -102 48 -160 76
-214 102 -325 129 -495 119 -145 -7 -265 -7 -306 0 -19 4 -100 28 -180 53
-265 84 -283 87 -669 99 -120 3 -180 1 -220 -9z"/>
<path d="M4065 10280 c-11 -4 -38 -10 -60 -14 -22 -3 -56 -10 -75 -14 -50 -12
-153 -7 -240 12 -106 24 -176 14 -366 -50 -58 -19 -147 -44 -196 -54 -89 -19
-118 -29 -82 -29 11 0 57 -2 104 -5 82 -4 139 4 335 47 33 7 76 12 95 10 114
-9 312 -11 350 -4 180 35 579 49 648 24 42 -16 32 2 -16 26 -52 27 -106 40
-192 46 -131 10 -284 13 -305 5z"/>
<path d="M7315 10039 c-33 -4 -89 -17 -124 -29 -118 -39 -321 -121 -321 -129
0 -5 24 -7 53 -6 28 2 124 6 212 10 88 3 169 8 180 10 123 26 518 26 685 0 50
-8 196 -27 230 -31 19 -2 66 -11 105 -20 38 -8 79 -18 90 -20 11 -2 31 -6 45
-9 43 -9 73 -15 155 -30 44 -8 118 -21 163 -30 46 -9 88 -15 94 -13 15 5 -278
121 -433 172 -149 48 -298 84 -425 101 -157 21 -602 36 -709 24z"/>
<path d="M4647 9794 c-1 -1 -27 -5 -58 -8 -31 -4 -66 -8 -77 -11 -11 -2 -36
-6 -57 -9 -50 -8 -226 -53 -256 -65 -25 -11 17 -10 211 6 190 15 568 8 598
-11 4 -2 27 -7 52 -11 25 -4 47 -8 50 -10 6 -4 153 -30 225 -40 22 -3 47 -8
55 -11 32 -9 -28 28 -120 75 -116 60 -156 68 -398 87 -79 6 -222 11 -225 8z"/>
</g>
</svg>
