<?xml version="1.0" standalone="no"?>
<!DOCTYPE svg PUBLIC "-//W3C//DTD SVG 1.1//EN" "http://www.w3.org/Graphics/SVG/1.1/DTD/svg11.dtd" >
<svg xmlns="http://www.w3.org/2000/svg" xmlns:xlink="http://www.w3.org/1999/xlink" version="1.1">
<metadata>
Created by FontForge 20170731 at Sun Mar 27 19:50:53 2016
 By Aleksey,,,
Copyright (c) 2016, Dario Manuel Muhafara, Ghiath Alsory (only Arabic glyphs), with Reserved Font Name "Sukar".
</metadata>
<defs>
<font id="SukarRegular" horiz-adv-x="1096" >
  <font-face 
    font-family="Sukar"
    font-weight="400"
    font-stretch="normal"
    units-per-em="2048"
    panose-1="2 0 5 0 0 0 0 0 0 0"
    ascent="1638"
    descent="-410"
    x-height="958"
    cap-height="1364"
    bbox="-348 -786 2989 1862"
    underline-thickness="150"
    underline-position="-442"
    unicode-range="U+001D-FEFC"
  />
<missing-glyph horiz-adv-x="1024" 
d="M100 0v1434h824v-1434h-824zM150 50h724v1334h-724v-1334zM325 1148q31 28 58 43q53 30 112 30q92 0 148 -47.5t56 -127.5q0 -49 -23 -98.5t-87 -129.5q-63 -80 -99 -132t-36 -99q0 -38 24 -133h-32q-35 97 -35 148q0 76 81.5 218t81.5 217q0 57 -33 90t-91 33
q-38 0 -69 -17q-26 -15 -56 -40v45zM389 334l57 58q11 10 20 10q10 0 22 -11l56 -60q9 -11 9 -20q0 -11 -10 -22l-56 -62q-14 -14 -21 -14q-11 0 -20 10l-61 71q-7 9 -7 18q0 10 11 22z" />
    <glyph glyph-name="uniFC5E" unicode="&#x651;&#x64c;" horiz-adv-x="0" arabic-form="isolated" 
d="M171 230q8 9 30 9q12 0 27 -6q-12 -33 -12 -83v-22q0 -56 -31 -90q-33 -38 -89 -38h-5q-49 0 -81 30l-12 11l-12 -11q-32 -30 -81 -30h-3q-53 0 -86 35q-34 36 -34 94v67q0 26 9 34q8 9 30 9q12 0 27 -6q-12 -33 -12 -83v-21q0 -96 66 -96h2q39 0 56 36q11 23 11 60v50
q0 25 9 34q8 8 30 8q12 0 27 -5q-12 -34 -12 -84v-3q0 -96 66 -96h5q66 0 66 96v67q0 26 9 34zM148 410q88 7 88 76v9q-5 67 -85 67h-14q-43 -4 -65 -22q-21 -19 -21 -52v-8l4 -60l2 -16l16 1zM288 491q1 -7 1 -14q0 -55 -35 -91q-38 -38 -103 -43l-166 -13q-6 -1 -14 -1
q-53 0 -82 29q-28 27 -36 89q-11 77 -74 77q-22 0 -49 -10l-9 27q62 21 91 21q77 0 84 -72l2 -20q2 -77 59 -77l43 5l-1 15l-6 56q-1 7 -1 14q0 54 36 90q38 39 102 44h15q59 0 98 -32q41 -35 45 -94z" />
    <glyph glyph-name="uniFC5F" unicode="&#x651;&#x64d;" horiz-adv-x="0" arabic-form="isolated" 
d="M219 95q13 -11 17 -45v-6q0 -13 -3 -29q-38 8 -82 8q-26 0 -60 -3l-243 -19q-11 -1 -18 -1q-26 0 -35 8q-13 11 -17 45v6q0 14 3 29q37 -8 81 -8q28 0 61 3l242 19q9 1 19 1q25 0 35 -8zM219 264q13 -10 17 -45v-6q0 -13 -3 -29q-37 8 -82 8q-28 0 -60 -3l-242 -19h-1
q-11 -1 -18 -1q-25 0 -35 8q-14 11 -17 46v6q0 13 3 28q37 -8 81 -8q28 0 61 3l242 19q9 1 19 1q25 0 35 -8zM173 585q8 8 30 8q12 0 27 -5q-12 -34 -12 -84v-21q-1 -56 -32 -91q-32 -37 -88 -38h-6q-48 0 -80 30l-12 12l-12 -12q-32 -29 -81 -30h-3q-53 0 -86 36
q-34 35 -34 93v68q0 25 8 34q9 8 31 8q12 0 27 -5q-12 -33 -12 -84v-21q0 -95 66 -95h2q39 0 56 35q11 23 11 60v50q0 26 8 34q9 9 31 9q12 0 27 -6q-12 -33 -12 -83v-4q0 -95 66 -95h4q67 0 67 95v68q0 25 9 34z" />
    <glyph glyph-name="uniFC60" unicode="&#x651;&#x64e;" horiz-adv-x="0" arabic-form="isolated" 
d="M217 424q13 -10 16 -45q1 -5 1 -11q0 -11 -3 -24q-37 8 -82 8q-26 0 -60 -3l-243 -19q-8 -1 -18 -1q-26 0 -35 8q-14 11 -17 46v6q0 13 3 28q36 -8 81 -8q28 0 61 3l242 20h19q25 0 35 -8zM171 230q8 9 30 9q12 0 27 -6q-12 -33 -12 -83v-22q-1 -55 -32 -90
q-32 -38 -88 -38h-6q-48 0 -80 30l-12 11l-13 -11q-31 -30 -81 -30h-2q-53 0 -86 35q-34 36 -34 94v67q0 26 8 34q9 9 31 9q12 0 27 -6q-12 -33 -12 -83v-21q0 -96 66 -96h2q39 0 56 36q11 23 11 60v50q0 25 8 34q9 8 31 8q12 0 27 -5q-13 -34 -13 -84v-3q0 -96 67 -96h4
q67 0 67 96v67q0 26 9 34z" />
    <glyph glyph-name="uniFC61" unicode="&#x651;&#x64f;" horiz-adv-x="0" arabic-form="isolated" 
d="M173 230q9 9 31 9q12 0 26 -6q-12 -33 -12 -83v-22q0 -55 -31 -90q-33 -38 -89 -38h-5q-49 0 -81 30l-12 11l-12 -11q-32 -30 -81 -30h-3q-53 0 -86 35q-34 36 -34 94v67q0 26 9 34q9 9 30 9q12 0 27 -6q-12 -33 -12 -83v-21q0 -96 67 -96h2q38 0 55 36q11 22 11 60v50
q0 25 9 34q8 8 30 8q12 0 27 -5q-12 -34 -12 -84v-3q0 -96 67 -96h4q66 0 67 96v67q0 26 8 34zM99 418q88 8 88 77v8q-6 67 -85 67h-15q-43 -3 -64 -22q-22 -19 -22 -51v-9l5 -59l1 -17l16 1zM236 499q1 -7 1 -14q0 -54 -35 -90q-38 -39 -102 -44l-166 -13l-113 -8
q-6 -1 -13 -1q-15 0 -20 4q-7 8 -10 36v4q0 9 3 27q19 -4 53 -4q7 0 21 1l94 6l-2 18l-6 56q-1 7 -1 14q0 54 36 90q38 39 102 44q9 1 16 1q58 0 97 -33q41 -34 45 -94z" />
    <glyph glyph-name="uniFC62" unicode="&#x651;&#x650;" horiz-adv-x="0" arabic-form="isolated" 
d="M217 95q13 -11 17 -45v-6q0 -13 -3 -29q-37 8 -82 8q-28 0 -60 -3l-242 -19h-1q-11 -1 -18 -1q-26 0 -35 8q-14 11 -17 45v6q0 13 3 29q36 -8 81 -8q28 0 61 3l242 19q9 1 19 1q25 0 35 -8zM171 416q8 8 30 8q12 0 27 -5q-12 -34 -12 -84v-22q-1 -55 -32 -90
q-32 -38 -88 -38h-6q-48 0 -80 30l-12 11l-13 -11q-31 -30 -80 -30h-3q-53 0 -86 36q-34 35 -34 93v67q0 26 8 35q9 8 31 8q12 0 27 -5q-12 -34 -12 -84v-21q0 -96 66 -96h2q39 0 56 36q11 23 11 60v50q0 25 8 34q9 8 31 8q12 0 27 -5q-13 -33 -13 -84v-3q0 -96 67 -96h4
q67 0 67 96v67q0 26 9 35z" />
    <glyph glyph-name="uniFC63" unicode="&#x651;&#x64b;" horiz-adv-x="0" arabic-form="isolated" 
d="M217 424q13 -10 17 -45v-6q0 -13 -3 -29q-38 9 -82 9q-26 0 -60 -4l-242 -19q-10 -1 -19 -1q-26 0 -35 8q-14 11 -17 46v6q0 13 3 28q37 -8 81 -8q29 0 61 3l242 20h19q25 0 35 -8zM217 594q13 -11 17 -46v-6q0 -13 -3 -28q-38 8 -82 8q-26 0 -60 -3l-242 -19
q-10 -1 -19 -1q-26 0 -35 8q-14 11 -17 45v6q0 14 3 29q37 -8 81 -8q29 0 61 3l242 19q10 1 19 1q25 0 35 -8zM171 230q8 9 30 9q12 0 27 -6q-12 -33 -12 -83v-22q-1 -55 -32 -90q-32 -38 -88 -38h-5q-49 0 -81 30l-12 11l-12 -11q-32 -30 -81 -30h-3q-53 0 -86 35
q-34 36 -34 94v67q0 26 8 34q9 9 31 9q12 0 27 -6q-12 -33 -12 -83v-21q0 -96 66 -96h2q39 0 56 36q11 23 11 60v50q0 25 8 34q9 8 31 8q12 0 27 -5q-13 -34 -13 -84v-3q0 -96 67 -96h5q66 0 66 96v67q0 26 9 34z" />
    <glyph glyph-name="uniFDF2" unicode="&#xfedf;&#xfee0;&#xfeea;" horiz-adv-x="2550" arabic-form="isolated" 
d="M1665 1614q-8 -8 -25 -8t-32 5q12 40 12 139v74q0 21 8 29q9 9 25 9q17 0 32 -6q-11 -40 -11 -139v-73q0 -21 -9 -30zM802 885h-288q-147 0 -222 -113q-66 -100 -66 -272q0 -170 68 -272q76 -113 220 -113q146 0 221 113q67 101 67 272v385zM2388 1375q47 0 90 -17
q-32 -113 -32 -321v-538q-1 -215 -114 -352q-121 -146 -328 -147h-16q-245 1 -364 199q-120 -198 -365 -199h-17q-242 0 -363 199q-120 -199 -365 -199q-205 0 -327 146q-115 138 -115 353t114 354q121 147 326 147h444v-500q0 -172 66 -272q75 -113 221 -113h16
q287 0 288 383v603q0 60 24 84t72 24q47 0 90 -17q-32 -112 -32 -320v-373q0 -384 287 -384h16q287 0 287 385v766q0 60 24 84q25 25 73 25zM1543 1297q-52 0 -86 35q-33 36 -33 93v68q0 25 8 34q9 9 31 9q12 0 26 -6q-12 -33 -12 -83v-22q0 -95 67 -95h2q38 0 56 36
q11 23 11 59v50q0 26 8 34q9 9 31 9q11 0 26 -6q-12 -33 -12 -83v-4q0 -95 67 -95h4q67 0 67 95v68q0 26 8 34q9 9 31 9q12 0 27 -6q-12 -33 -12 -83v-22q-1 -56 -32 -91q-32 -37 -88 -37h-6q-48 0 -80 29l-12 12l-13 -12q-31 -29 -81 -29h-3z" />
    <glyph glyph-name="uniFEF5" unicode="&#xfedf;&#xfe82;" horiz-adv-x="1050" arabic-form="isolated" 
d="M516 249q-24 -24 -72 -24t-91 17q33 113 33 321v703q0 60 24 84q24 25 72 25q47 0 90 -18q-32 -113 -32 -320v-704q0 -60 -24 -84zM955 1374q48 0 90 -16q-32 -113 -32 -321v-538q-1 -215 -114 -352q-120 -146 -328 -147h-351q-93 0 -116 54q-4 10 -4 21q0 35 43 78
q45 -38 103 -38h325q288 0 288 385v766q0 60 24 84t72 24zM649 1550v-4q0 -39 -63 -72q-26 -13 -63 -13q-10 0 -20 1l-98 35q-49 -1 -75 -59q-52 16 -54 46v4q0 39 50 65q38 20 77 20q10 0 20 -1l98 -35q55 3 75 59q51 -17 53 -46z" />
    <glyph glyph-name="uniFEF6" unicode="&#xfee0;&#xfe82;" horiz-adv-x="1298" arabic-form="final" 
d="M516 249q-25 -24 -73 -24q-47 0 -90 17q33 113 33 321v703q0 60 24 84q24 25 72 25q47 0 90 -18q-32 -112 -32 -320v-704q0 -60 -24 -84zM1309 115v-115h-10q-242 0 -363 199q-120 -198 -365 -199h-351q-93 0 -116 54q-4 10 -4 21q0 35 43 78q45 -38 103 -38h325
q288 0 288 385v766q0 60 24 84t72 24t90 -16q-32 -113 -32 -321v-538q0 -172 66 -272q75 -112 221 -112h9zM649 1550v-4q0 -39 -63 -72q-26 -13 -63 -13q-10 0 -20 1l-98 35q-49 -1 -75 -59q-52 16 -54 46v4q0 39 50 65q38 20 77 20q10 0 20 -1l98 -35q55 3 75 59
q51 -17 53 -46z" />
    <glyph glyph-name="uniFEF7" unicode="&#xfedf;&#xfe84;" horiz-adv-x="1050" arabic-form="isolated" 
d="M516 249q-25 -24 -72 -24q-48 0 -91 17q33 113 33 321v703q0 60 24 84q24 25 72 25q47 0 90 -18q-32 -112 -32 -320v-704q0 -60 -24 -84zM955 1374q48 0 90 -16q-32 -113 -32 -321v-538q-1 -215 -114 -352q-120 -146 -328 -147h-351q-93 0 -116 54q-4 10 -4 21
q0 35 43 78q45 -38 103 -38h325q288 0 288 385v766q0 60 24 84t72 24zM609 1556q21 -21 21 -40q0 -7 -3 -14q-13 -29 -58 -29h-152q-28 0 -38 -6q-20 -12 -25 -37l-3 -14l-14 2q-44 9 -44 46q0 43 45 64q17 8 32 12q-28 44 -28 104q0 72 39 119q38 46 99 51l15 1
q54 -1 90 -18q45 -22 45 -65q0 -37 -44 -45l-14 -3l-1 15q-5 24 -27 36q-10 7 -39 7h-12q-35 -1 -49 -25q-14 -23 -14 -73q0 -98 65 -98h64q17 0 30 11l10 9z" />
    <glyph glyph-name="uniFEF8" unicode="&#xfee0;&#xfe84;" horiz-adv-x="1298" arabic-form="final" 
d="M516 249q-24 -24 -72 -24t-91 17q33 113 33 321v703q0 60 24 84q24 25 72 25t90 -18q-32 -112 -32 -320v-704q0 -60 -24 -84zM1309 115v-115h-10q-242 0 -363 199q-119 -198 -365 -199h-351q-93 0 -116 54q-4 10 -4 21q0 35 43 78q45 -38 103 -38h325q288 0 288 385v766
q0 60 24 84t72 24t90 -16q-32 -114 -32 -321v-538q0 -172 66 -272q75 -112 221 -112h9zM609 1556q21 -21 21 -40q0 -7 -3 -14q-13 -29 -58 -29h-152q-28 0 -38 -6q-20 -12 -25 -37l-3 -14l-14 2q-44 9 -44 46q0 43 45 64q17 8 32 12q-28 44 -28 104q0 72 39 119q38 46 99 51
l15 1q54 -1 90 -18q45 -22 45 -65q0 -36 -44 -45l-14 -3l-1 15q-5 24 -27 36q-10 7 -39 7h-11q-36 -1 -50 -25q-14 -23 -14 -73q0 -98 65 -98h64q17 0 30 11l10 9z" />
    <glyph glyph-name="uniFEF9" unicode="&#xfedf;&#xfe88;" horiz-adv-x="1050" arabic-form="isolated" 
d="M516 250q-25 -24 -73 -24q-47 0 -90 16q33 113 33 321v704q0 59 24 83q24 25 72 25q47 0 90 -17q-32 -113 -32 -321v-703q0 -60 -24 -84zM955 1375q48 0 90 -17q-32 -113 -32 -321v-538q-1 -215 -114 -352q-120 -146 -328 -147h-351q-93 0 -116 55q-4 10 -4 21
q0 34 43 78q45 -38 103 -38h325q288 0 288 384v767q0 59 24 83q24 25 72 25zM568 -356q21 -21 21 -40q0 -7 -3 -14q-13 -29 -58 -29h-152q-28 0 -38 -6q-20 -12 -25 -38l-3 -14l-14 3q-44 9 -44 45q0 43 45 65q17 8 32 12q-28 44 -28 104q0 72 39 119q38 45 99 51h15
q53 0 90 -17q45 -22 45 -65q0 -37 -44 -45l-14 -3l-1 15q-5 23 -27 36q-10 6 -39 6h-11q-36 0 -50 -24q-14 -23 -14 -74q0 -98 65 -98h64q17 0 30 12l10 8z" />
    <glyph glyph-name="uniFEFA" unicode="&#xfee0;&#xfe88;" horiz-adv-x="1298" arabic-form="final" 
d="M516 250q-25 -24 -72 -24q-48 0 -91 16q33 113 33 321v704q0 59 24 83q24 25 72 25q47 0 90 -17q-32 -113 -32 -321v-703q0 -60 -24 -84zM1309 116v-116h-10q-242 0 -363 200q-120 -199 -365 -200h-351q-93 0 -116 55q-4 10 -4 21q0 34 43 78q45 -38 103 -38h325
q288 0 288 384v767q0 59 24 83q24 25 72 25t90 -17q-32 -112 -32 -321v-538q0 -171 66 -271q75 -112 221 -112h9zM569 -356q21 -21 21 -40q0 -7 -3 -14q-13 -29 -58 -29h-152q-28 0 -38 -6q-20 -12 -25 -38l-3 -14l-14 3q-43 9 -43 45q0 43 44 65q17 8 32 12q-28 44 -28 104
q0 72 39 119q38 45 99 51h15q54 0 90 -17q45 -22 45 -65q0 -37 -44 -45l-14 -3l-1 15q-5 24 -27 36q-10 6 -39 6h-11q-36 0 -50 -24q-14 -23 -14 -74q0 -98 65 -98h64q17 0 30 12l10 8z" />
    <glyph glyph-name="uniFEFB" unicode="&#xfedf;&#xfe8e;" horiz-adv-x="1050" arabic-form="isolated" 
d="M516 249q-25 -24 -73 -24q-47 0 -90 16q33 113 33 321v704q0 59 24 83q24 25 72 25q47 0 90 -17q-32 -113 -32 -321v-703q0 -60 -24 -84zM955 1374q48 0 90 -17q-32 -113 -32 -321v-538q-1 -215 -114 -352q-120 -146 -328 -147h-351q-93 0 -116 55q-4 10 -4 21
q0 34 43 78q45 -38 103 -38h325q288 0 288 384v767q0 59 24 83q24 25 72 25z" />
    <glyph glyph-name="uniFEFC" unicode="&#xfee0;&#xfe8e;" horiz-adv-x="1298" arabic-form="final" 
d="M516 249q-25 -24 -72 -24q-48 0 -91 16q33 113 33 321v704q0 59 24 83q24 25 72 25q47 0 90 -17q-32 -113 -32 -321v-703q0 -60 -24 -84zM1309 115v-116h-10q-242 0 -363 200q-120 -199 -365 -200h-351q-93 0 -116 55q-4 10 -4 21q0 34 43 78q45 -38 103 -38h325
q288 0 288 384v767q0 59 24 83q24 25 72 25t90 -17q-32 -112 -32 -321v-538q0 -171 66 -271q75 -112 221 -112h9z" />
    <glyph glyph-name="uni0621" unicode="&#x621;" horiz-adv-x="1077" arabic-form="isolated" 
d="M840 115q58 0 103 38q43 -44 43 -78q0 -11 -4 -21q-23 -54 -116 -54h-481q-112 0 -147 -22q-66 -39 -84 -121q-82 16 -82 81q0 88 95 134q85 42 209 43q-143 140 -143 386q0 214 113 351q120 146 325 147h4q131 0 217 -42q95 -46 95 -134q0 -66 -82 -82q-17 83 -83 122
q-36 21 -147 21q-146 0 -221 -112q-67 -101 -67 -272q0 -385 287 -385h166z" />
    <glyph glyph-name="uni0622" unicode="&#x622;" horiz-adv-x="468" arabic-form="isolated" 
d="M386 1358q-33 -113 -33 -321v-929q0 -60 -24 -83q-24 -25 -72 -25t-90 17q32 113 32 321v928q0 60 24 84q24 25 73 25q47 0 90 -17zM463 1550v-4q0 -38 -63 -71q-27 -14 -64 -14q-9 0 -20 1l-98 35q-49 -1 -74 -59q-52 16 -54 46v4q0 39 50 65q37 20 77 20q9 0 19 -1
l99 -35q55 3 74 59q52 -16 54 -46z" />
    <glyph glyph-name="uni0623" unicode="&#x623;" horiz-adv-x="451" arabic-form="isolated" 
d="M387 1358q-32 -113 -32 -321v-929q0 -60 -24 -83q-25 -25 -72 -25q-48 0 -91 17q33 113 33 321v928q0 60 24 84q24 25 72 25t90 -17zM425 1556q21 -21 21 -40q0 -7 -3 -14q-13 -29 -58 -29h-152q-28 0 -38 -6q-20 -12 -25 -37l-3 -14l-14 2q-43 9 -43 46q0 43 44 64
q17 8 32 12q-28 44 -28 104q0 72 39 120q38 45 99 50l15 1q54 0 90 -18q45 -22 45 -64q0 -37 -44 -46l-13 -2l-2 14q-5 24 -27 37q-10 6 -39 6h-11q-35 -1 -50 -25q-14 -23 -14 -73q0 -98 65 -98h64q17 0 31 11l10 9z" />
    <glyph glyph-name="uni0624" unicode="&#x624;" horiz-adv-x="1086" arabic-form="isolated" 
d="M284 500q0 -172 66 -272q75 -112 222 -112h288v384q0 172 -67 272q-75 113 -221 113q-144 0 -219 -113q-69 -102 -69 -272zM572 1000q207 0 328 -145q114 -138 114 -353v-502q-2 -214 -114 -350q-120 -146 -327 -147h-172q-93 0 -116 55q-4 10 -4 21q0 34 43 78
q45 -38 103 -38h145q286 0 288 381h-290q-205 0 -326 148q-114 138 -114 354q0 214 115 353q122 145 327 145zM707 1219q21 -21 21 -40q0 -7 -3 -14q-13 -29 -58 -29h-152q-28 0 -38 -7q-20 -11 -25 -37l-3 -14l-14 3q-43 8 -43 45q0 43 44 65q17 8 32 12q-28 44 -28 104
q0 72 39 119q38 45 99 51h15q54 0 90 -17q45 -22 45 -65q0 -37 -44 -45l-13 -3l-2 15q-5 24 -26 36q-11 6 -40 6h-11q-36 0 -50 -24q-14 -23 -14 -74q0 -98 65 -98h64q17 0 31 12l10 8z" />
    <glyph glyph-name="uni0625" unicode="&#x625;" horiz-adv-x="416" arabic-form="isolated" 
d="M394 1358q-32 -113 -32 -321v-928q0 -60 -25 -84q-24 -25 -72 -25q-47 0 -90 17q32 113 32 321v929q0 60 25 83q24 25 72 25q47 0 90 -17zM390 -356q21 -21 21 -40q0 -7 -3 -14q-13 -29 -58 -29h-152q-28 0 -38 -6q-20 -12 -25 -38l-3 -14l-14 3q-43 9 -43 45q0 43 44 65
q18 8 32 12q-28 44 -28 104q0 72 39 119q38 45 99 51h15q54 0 90 -17q45 -22 45 -65q0 -37 -44 -45l-14 -3l-1 15q-5 23 -26 36q-11 6 -40 6h-11q-36 0 -50 -24q-14 -23 -14 -74q0 -98 65 -98h64q17 0 30 12l11 8z" />
    <glyph glyph-name="uni0626" unicode="&#x626;" horiz-adv-x="1366" arabic-form="isolated" 
d="M387 697q21 -21 21 -40q0 -7 -3 -14q-13 -29 -58 -29h-152q-28 0 -38 -6q-20 -12 -25 -38l-3 -14l-14 3q-43 9 -43 46q0 42 44 64q17 8 32 12q-28 44 -28 104q0 72 40 119q37 46 98 51h15q54 0 91 -17q44 -22 44 -65q0 -37 -43 -45l-14 -3l-2 15q-5 24 -26 36
q-11 7 -40 7h-11q-35 -1 -50 -25q-14 -23 -14 -73q0 -98 65 -98h64q17 0 31 11l10 8zM1331 76v-6q-28 -251 -176 -403q-158 -164 -411 -164q-273 0 -434 196q-153 185 -153 472v230q0 60 24 84q24 25 72 25t90 -17q-32 -113 -32 -321v-2q0 -552 435 -552q368 0 425 382h-155
q-207 2 -327 149q-113 137 -113 353q0 214 114 351q119 146 325 147h3q131 0 218 -42q95 -46 95 -134q0 -66 -83 -82q-17 83 -83 122q-35 21 -153 21q-281 0 -281 -385q0 -384 287 -384h167q57 0 102 38q44 -44 44 -78z" />
    <glyph glyph-name="uni0627" unicode="&#x627;" horiz-adv-x="394" arabic-form="isolated" 
d="M389 1358q-33 -113 -33 -321v-929q0 -60 -24 -83q-24 -25 -72 -25t-90 17q32 113 32 321v928q0 60 24 84q24 25 72 25t91 -17z" />
    <glyph glyph-name="uni0628" unicode="&#x628;" horiz-adv-x="1505" arabic-form="isolated" 
d="M852 -303q-30 -29 -68 -29q-39 0 -67 28q-28 29 -28 72t30 72t69 29q38 0 66 -29t28 -71t-30 -72zM1409 1000q48 0 91 -17q-33 -113 -33 -321v-163q-1 -215 -113 -352q-121 -146 -328 -147h-513q-208 1 -328 147q-113 137 -113 351v246q0 60 24 84t72 24q47 0 90 -17
q-32 -112 -32 -321v-14q0 -385 288 -385h511q288 0 288 385v391q0 60 24 84q24 25 72 25z" />
    <glyph glyph-name="uni0629" unicode="&#x629;" horiz-adv-x="961" arabic-form="isolated" 
d="M801 885h-287q-147 0 -222 -113q-66 -100 -66 -272q0 -170 68 -272q76 -113 220 -113q146 0 220 113q67 101 67 272v385zM956 498q0 -215 -114 -352q-122 -146 -328 -146q-205 0 -327 146q-115 138 -115 352q0 216 114 355q121 147 326 147h444v-502zM505 1203
q-30 -30 -69 -30q-38 0 -66 29q-29 28 -29 71t30 72q31 30 69 30q39 0 67 -30q28 -29 28 -71t-30 -71zM768 1203q-30 -30 -69 -30t-67 29q-28 28 -28 71t30 72q30 30 69 30q38 0 67 -30q28 -29 28 -71t-30 -71z" />
    <glyph glyph-name="uni062A" unicode="&#x62a;" horiz-adv-x="1505" arabic-form="isolated" 
d="M1409 1000q48 0 91 -17q-33 -112 -33 -321v-163q0 -215 -113 -352q-121 -146 -328 -147h-513q-208 1 -328 147q-113 137 -113 352v245q0 60 24 84t72 24q47 0 90 -17q-32 -112 -32 -320v-15q0 -385 288 -385h511q288 0 288 385v391q0 60 24 84q24 25 72 25zM721 1203
q-30 -30 -69 -30q-38 0 -66 29q-28 28 -28 71t30 72q30 30 68 30q39 0 67 -30q28 -29 28 -71t-30 -71zM984 1203q-30 -30 -69 -30q-38 0 -67 29q-28 28 -28 71t30 72q30 30 69 30q38 0 67 -30q28 -29 28 -71t-30 -71z" />
    <glyph glyph-name="uni062B" unicode="&#x62b;" horiz-adv-x="1505" arabic-form="isolated" 
d="M852 1421q-30 -30 -68 -30q-39 0 -67 29q-28 28 -28 71t30 72t69 29q38 0 66 -29t28 -71t-30 -71zM1409 1000q48 0 91 -17q-33 -112 -33 -321v-163q0 -215 -113 -352q-121 -146 -328 -147h-513q-207 1 -328 147q-113 137 -113 352v245q0 60 24 84t72 24q47 0 90 -17
q-32 -113 -32 -320v-15q0 -385 288 -385h511q288 0 288 385v391q0 60 24 84q24 25 72 25zM721 1203q-30 -30 -68 -30q-39 0 -67 29q-28 28 -28 71t30 72q30 30 68 30q39 0 67 -30q28 -29 28 -71t-30 -71zM984 1203q-30 -30 -69 -30q-38 0 -67 29q-28 28 -28 71t30 72
q30 30 69 30q38 0 67 -30q28 -29 28 -71t-30 -71z" />
    <glyph glyph-name="uni062C" unicode="&#x62c;" horiz-adv-x="985" arabic-form="isolated" 
d="M874 -302q-29 -29 -68 -29t-67 28t-28 71q0 44 30 73t69 29q38 0 66 -29t28 -72q0 -42 -30 -71zM942 390q0 -252 38 -350q-46 -40 -107 -40h-514q-55 0 -103 -47q-51 -50 -51 -145q0 -96 52 -146q47 -45 94 -45q6 0 13 1h143q60 0 106 39q43 -44 43 -78q0 -11 -4 -21
q-23 -55 -116 -55h-172q-116 0 -196 77q-95 92 -96 226v4q1 134 96 226q83 79 193 79h6h445q-25 113 -25 286v176q0 176 -52 241q-54 67 -219 67q-110 0 -160 -25q-77 -40 -95 -118q-103 17 -103 82q0 86 101 128q115 48 272 48q219 0 314 -73q97 -73 97 -262v-275z" />
    <glyph glyph-name="uni062D" unicode="&#x62d;" horiz-adv-x="984" arabic-form="isolated" 
d="M942 390q0 -252 37 -350q-45 -40 -106 -40h-514q-55 0 -103 -47q-51 -50 -51 -145q0 -96 52 -146q47 -45 94 -45q6 0 13 1h223q60 0 106 39q43 -44 43 -78q0 -11 -4 -21q-23 -55 -116 -55h-252q-116 0 -196 77q-95 92 -96 226v4q1 134 96 226q83 79 193 79h6h445
q-25 113 -25 286v176q0 176 -52 241q-54 67 -219 67q-110 0 -160 -25q-77 -40 -95 -118q-103 17 -103 82q0 86 101 128q115 48 272 48q219 0 314 -73q97 -73 97 -262v-275z" />
    <glyph glyph-name="uni062E" unicode="&#x62e;" horiz-adv-x="984" arabic-form="isolated" 
d="M617 1202q-30 -29 -69 -29q-38 0 -66 28q-29 28 -29 71q0 44 30 73t69 29t67 -29t28 -72q0 -42 -30 -71zM942 390q0 -252 37 -350q-45 -40 -106 -40h-514q-55 0 -103 -47q-51 -50 -51 -145q0 -96 52 -146q47 -45 94 -45q6 0 13 1h223q60 0 106 39q43 -44 43 -78
q0 -11 -4 -21q-23 -55 -116 -55h-252q-116 0 -196 77q-95 92 -96 226v4q1 134 96 226q83 79 193 79h6h445q-25 113 -25 286v176q0 176 -52 241q-54 67 -219 67q-110 0 -160 -25q-77 -40 -95 -118q-103 17 -103 82q0 86 101 128q115 48 272 48q219 0 314 -73q97 -73 97 -262
v-275z" />
    <glyph glyph-name="uni062F" unicode="&#x62f;" horiz-adv-x="982" arabic-form="isolated" 
d="M538 1000q206 -2 326 -147q113 -137 113 -352t-113 -353q-120 -146 -327 -148h-266q-93 0 -117 54q-4 10 -4 20q0 35 44 79q45 -38 103 -38h238q287 0 287 385t-280 385q-118 0 -154 -22q-66 -39 -83 -121q-83 16 -83 81q0 88 95 134q87 42 218 43h3z" />
    <glyph glyph-name="uni0630" unicode="&#x630;" horiz-adv-x="982" arabic-form="isolated" 
d="M615 1203q-30 -30 -68 -30q-39 0 -67 29q-28 28 -28 71t30 72t69 29q38 0 66 -29t28 -71t-30 -71zM538 1000q206 -2 326 -147q113 -137 113 -352t-113 -353q-120 -146 -327 -148h-266q-93 0 -117 54q-4 10 -4 20q0 35 44 79q45 -38 103 -38h238q287 0 287 385t-280 385
q-118 0 -154 -22q-66 -39 -83 -121q-83 16 -83 81q0 88 95 134q87 42 218 43h3z" />
    <glyph glyph-name="uni0631" unicode="&#x631;" horiz-adv-x="627" arabic-form="isolated" 
d="M466 1000q48 0 90 -17q-32 -112 -32 -320v-661q-1 -214 -113 -351q-121 -147 -328 -148h-32q-93 0 -117 55q-4 9 -4 20q0 34 44 79q46 -39 105 -39h3q288 0 288 385v889q0 60 24 84t72 24z" />
    <glyph glyph-name="uni0632" unicode="&#x632;" horiz-adv-x="627" arabic-form="isolated" 
d="M466 1000q48 0 90 -17q-32 -112 -32 -320v-661q-1 -214 -113 -351q-121 -147 -328 -148h-32q-93 0 -117 55q-4 9 -4 20q0 34 44 79q46 -39 106 -39h2q288 0 288 385v889q0 60 24 84t72 24zM526 1202q-30 -29 -68 -29q-39 0 -67 28t-28 71q0 44 30 73t69 29q38 0 66 -29
t28 -72q0 -42 -30 -71z" />
    <glyph glyph-name="uni0633" unicode="&#x633;" horiz-adv-x="2730" arabic-form="isolated" 
d="M2635 1000q48 0 90 -17q-32 -112 -32 -320v-164q-1 -215 -114 -352q-120 -146 -328 -147q-245 1 -365 199q-119 -196 -361 -199h-285q-43 -222 -190 -355q-156 -142 -391 -142q-273 0 -434 196q-153 185 -153 472v230q0 60 24 84q24 25 72 25q47 0 90 -18
q-32 -112 -32 -320v-2q0 -552 435 -552q368 0 425 382v745q0 60 24 84q25 24 72 24q48 0 90 -17q-32 -113 -32 -321v-400h282q286 1 287 384v246q0 59 24 84q24 24 72 24t91 -17q-33 -113 -33 -321v-16q0 -384 288 -384t288 385v392q0 60 24 84t72 24z" />
    <glyph glyph-name="uni0634" unicode="&#x634;" horiz-adv-x="2730" arabic-form="isolated" 
d="M2635 1000q48 0 90 -17q-32 -112 -32 -320v-164q-1 -215 -114 -352q-120 -146 -328 -147q-245 1 -365 199q-119 -196 -361 -199h-285q-43 -222 -190 -355q-156 -142 -391 -142q-273 0 -434 196q-153 185 -153 472v230q0 60 24 84q24 25 72 25q47 0 90 -18
q-32 -112 -32 -320v-2q0 -552 435 -552q368 0 425 382v745q0 60 24 84q25 24 72 24q48 0 90 -17q-32 -113 -32 -321v-400h282q286 1 287 384v246q0 59 24 84q24 24 72 24t91 -17q-33 -113 -33 -321v-16q0 -384 288 -384t288 385v392q0 60 24 84t72 24zM1972 1421
q-30 -29 -69 -29q-38 0 -67 28q-28 28 -28 71q0 44 30 73t69 29t66 -29q29 -29 29 -72q0 -42 -30 -71zM1840 1203q-30 -29 -68 -29q-39 0 -67 28t-28 71q0 44 30 73t69 29q38 0 66 -29t28 -72q0 -42 -30 -71zM2103 1203q-30 -29 -69 -29q-38 0 -66 28q-29 28 -29 71
q0 44 31 73q29 29 68 29t67 -29t28 -72q0 -42 -30 -71z" />
    <glyph glyph-name="uni0635" unicode="&#x635;" horiz-adv-x="2306" arabic-form="isolated" 
d="M1861 116q286 1 286 384q0 172 -67 272q-75 113 -221 113q-82 0 -190 -51q-228 -109 -429 -400v-318h621zM1859 1000q207 0 328 -146q114 -137 114 -352q0 -216 -112 -354q-121 -146 -328 -148h-621q-43 -222 -190 -355q-156 -142 -391 -142q-273 0 -434 196
q-153 185 -153 472v230q0 61 24 84q24 25 72 25t90 -17q-32 -114 -32 -321v-1q0 -552 436 -552q367 0 424 381v892q0 60 24 84t72 24t90 -17q-32 -112 -32 -320v-37q310 374 619 374z" />
    <glyph glyph-name="uni0636" unicode="&#x636;" horiz-adv-x="2306" arabic-form="isolated" 
d="M1657 1203q-30 -29 -68 -29q-39 0 -67 28t-28 71q0 44 30 73t68 29q39 0 67 -29t28 -72q0 -42 -30 -71zM1861 116q286 1 286 384q0 172 -67 272q-75 113 -221 113q-82 0 -190 -51q-228 -109 -429 -400v-318h621zM1859 1000q207 0 328 -146q114 -137 114 -352
q0 -216 -112 -354q-121 -146 -328 -148h-621q-43 -222 -190 -355q-156 -142 -391 -142q-273 0 -434 196q-153 185 -153 472v230q0 61 24 84q24 25 72 25t90 -17q-32 -114 -32 -321v-1q0 -552 436 -552q367 0 424 381v892q0 60 24 84t72 24t90 -17q-32 -112 -32 -320v-37
q310 374 619 374z" />
    <glyph glyph-name="uni0637" unicode="&#x637;" horiz-adv-x="1523" arabic-form="isolated" 
d="M1078 115q286 1 286 385q0 171 -67 272q-75 113 -221 113q-82 0 -190 -52q-228 -109 -429 -399v-319h621zM1076 1000q207 0 328 -146q114 -137 114 -353q0 -215 -112 -353q-121 -147 -328 -148h-872q-93 0 -116 54q-4 10 -4 21q0 35 43 78q46 -38 106 -38h68v1151
q0 60 24 84q25 24 72 24q48 0 90 -16q-32 -112 -32 -321v-411q309 374 619 374z" />
    <glyph glyph-name="uni0638" unicode="&#x638;" horiz-adv-x="1523" arabic-form="isolated" 
d="M1078 115q286 1 286 385q0 171 -67 272q-75 113 -221 113q-82 0 -190 -52q-228 -109 -429 -399v-319h621zM1076 1000q207 0 328 -146q114 -137 114 -353q0 -215 -112 -353q-121 -147 -328 -148h-872q-93 0 -116 54q-4 10 -4 21q0 35 43 78q46 -38 106 -38h68v1151
q0 60 24 84q25 24 72 24q48 0 91 -16q-33 -113 -33 -321v-411q310 374 619 374zM843 1173q-39 0 -67 29q-28 28 -28 71t30 72t68 29q39 0 67 -29t28 -71t-30 -71q-30 -30 -68 -30z" />
    <glyph glyph-name="uni0639" unicode="&#x639;" horiz-adv-x="979" arabic-form="isolated" 
d="M891 258q83 -16 83 -81q0 -88 -95 -134q-82 -40 -186 -43h-329q-60 0 -108 -47q-51 -50 -51 -145q0 -96 52 -146q45 -44 107 -44h143q60 0 106 39q43 -44 43 -78q0 -11 -4 -21q-23 -55 -116 -55h-172q-116 0 -196 77q-96 93 -96 226v4q0 133 96 226q55 53 136 71
q-151 140 -151 395q0 214 113 351q120 146 325 147h4q131 0 218 -42q95 -46 95 -134q0 -66 -83 -82q-17 82 -83 122q-37 21 -154 21q-281 0 -281 -385q0 -384 287 -385h70q102 1 144 26q67 39 83 117z" />
    <glyph glyph-name="uni063A" unicode="&#x63a;" horiz-adv-x="979" arabic-form="isolated" 
d="M891 258q83 -16 83 -81q0 -88 -95 -134q-82 -40 -186 -43h-329q-60 0 -108 -47q-51 -50 -51 -145q0 -96 52 -146q45 -44 107 -44h143q60 0 106 39q43 -44 43 -78q0 -11 -4 -21q-23 -55 -116 -55h-172q-116 0 -196 77q-96 93 -96 226v4q0 133 96 226q55 53 136 71
q-151 140 -151 395q0 214 113 351q120 146 325 147h4q131 0 218 -42q95 -46 95 -134q0 -66 -83 -82q-17 82 -83 122q-37 21 -154 21q-281 0 -281 -385q0 -384 287 -385h70q102 1 144 26q67 39 83 117zM639 1203q-30 -29 -69 -29q-38 0 -66 28q-29 28 -29 71q0 44 31 73
q29 29 68 29t67 -29t28 -72q0 -42 -30 -71z" />
    <glyph glyph-name="uni0641" unicode="&#x641;" horiz-adv-x="1854" arabic-form="isolated" 
d="M1412 1174q-38 0 -66 28q-29 28 -29 71t30 72q31 30 69 30q39 0 67 -30q28 -29 28 -71t-30 -71t-69 -29zM1407 115q147 0 221 113q67 100 67 272q0 170 -69 272q-76 113 -219 113q-146 0 -221 -113q-67 -101 -67 -272v-385h288zM1407 1000q205 0 326 -146
q116 -138 116 -353t-115 -354q-121 -147 -326 -147h-894q-208 1 -328 147q-113 137 -114 352v245q0 60 24 84q25 24 72 24q48 0 90 -17q-32 -113 -32 -320v-15q0 -385 288 -385h451v386q0 216 114 353q121 146 328 146z" />
    <glyph glyph-name="uni0642" unicode="&#x642;" horiz-adv-x="1359" arabic-form="isolated" 
d="M1200 500q0 172 -67 272q-75 113 -221 113q-144 0 -219 -113q-69 -102 -69 -272q0 -172 66 -272q75 -112 222 -112h288v384zM912 1000q207 0 328 -146q114 -137 114 -352v-502q-42 -216 -216 -355q-177 -142 -417 -142q-278 0 -465 196q-184 193 -184 472v230q0 60 24 84
q24 25 72 25t90 -17q-32 -113 -32 -321v-1q0 -244 125 -393q134 -160 372 -160q203 0 330 107q121 102 147 275h-290q-205 0 -326 148q-114 138 -114 354q0 214 115 352q122 146 327 146zM867 1203q-30 -29 -69 -29t-67 28t-28 71q0 44 30 73t69 29q38 0 66 -29
q29 -29 29 -72q0 -42 -30 -71zM1129 1203q-30 -29 -68 -29q-39 0 -67 28t-28 71q0 44 30 73t68 29q39 0 67 -29t28 -72q0 -42 -30 -71z" />
    <glyph glyph-name="uni0643" unicode="&#x643;" horiz-adv-x="1505" arabic-form="isolated" 
d="M1409 1375q48 0 91 -17q-33 -113 -33 -321v-538q0 -215 -113 -352q-121 -146 -328 -147h-513q-208 1 -328 147q-113 137 -113 352v245q0 60 24 84t72 24q47 0 90 -17q-32 -112 -32 -320v-15q0 -385 288 -385h511q288 0 288 385v766q0 60 24 84q25 25 72 25zM936 936
q21 -21 21 -41q0 -6 -3 -13q-13 -29 -58 -29h-152q-28 0 -38 -6q-20 -12 -25 -37l-3 -15l-14 3q-44 9 -44 46q0 42 45 64q17 8 32 12q-28 44 -28 104q0 72 39 119q38 46 98 51h16q53 0 90 -17q45 -22 45 -65q0 -37 -44 -45l-14 -3l-1 15q-5 24 -27 36q-10 7 -39 7h-11
q-36 -1 -50 -25q-14 -23 -14 -73q0 -98 65 -98h64q17 0 30 11l10 8z" />
    <glyph glyph-name="uni0644" unicode="&#x644;" horiz-adv-x="1289" arabic-form="isolated" 
d="M1284 1357q-33 -113 -33 -321v-866q0 -289 -151 -472q-162 -196 -441 -196q-273 0 -434 196q-153 185 -153 472v230q0 60 24 84q24 25 72 25q47 0 90 -18q-32 -112 -32 -320v-1q0 -552 436 -552q435 0 435 552v1096q0 60 24 84q25 24 73 24q47 0 90 -17z" />
    <glyph glyph-name="uni0645" unicode="&#x645;" horiz-adv-x="1256" arabic-form="isolated" 
d="M809 116q288 0 288 384q0 172 -67 272q-75 113 -221 113q-143 0 -219 -113q-69 -102 -69 -272q0 -172 67 -272q74 -112 221 -112zM809 1000q207 0 328 -146q114 -137 114 -352q0 -217 -113 -355q-122 -147 -331 -147q-163 0 -276 97q-106 91 -145 246q-41 -15 -71 -46
q-57 -58 -57 -172v-513q0 -60 -24 -84q-24 -25 -72 -25q-47 0 -90 17q32 113 32 321v339q0 152 77 221t184 69h3q-1 16 -1 32q0 214 115 352q122 146 327 146z" />
    <glyph glyph-name="uni0646" unicode="&#x646;" horiz-adv-x="1289" arabic-form="isolated" 
d="M1284 835q-33 -112 -33 -320v-345q0 -289 -151 -472q-162 -196 -441 -196q-273 0 -434 196q-153 185 -153 472v230q0 60 24 84q24 25 72 25q47 0 90 -17q-32 -113 -32 -321v-1q0 -552 435 -552q436 0 436 552v574q0 60 24 84q25 24 73 24q47 0 90 -17zM704 680
q-30 -29 -69 -29t-67 28t-28 72q0 43 30 72t69 29t67 -29t28 -71q0 -43 -30 -72z" />
    <glyph glyph-name="uni0647" unicode="&#x647;" horiz-adv-x="961" arabic-form="isolated" 
d="M801 885h-287q-147 0 -222 -113q-66 -100 -66 -272q0 -170 68 -272q76 -113 220 -113q146 0 221 113q66 101 66 272v385zM956 498q0 -215 -114 -352q-122 -146 -328 -146q-205 0 -327 146q-115 138 -115 352q0 216 114 355q121 147 326 147h444v-502z" />
    <glyph glyph-name="uni0648" unicode="&#x648;" horiz-adv-x="1086" arabic-form="isolated" 
d="M859 500q0 172 -67 272q-75 113 -220 113q-144 0 -220 -113q-68 -102 -68 -272q0 -172 66 -272q75 -113 222 -113h287v385zM1013 0q-1 -214 -113 -350q-121 -146 -327 -147h-172q-93 0 -116 55q-4 10 -4 21q0 34 43 78q46 -39 106 -39h142q286 0 287 382h-289
q-205 0 -326 148q-114 138 -114 354q0 214 115 352q122 146 327 146q206 0 327 -146q114 -137 114 -352v-502z" />
    <glyph glyph-name="uni0649" unicode="&#x649;" horiz-adv-x="1281" arabic-form="isolated" 
d="M1246 75v-6q-28 -250 -176 -403q-158 -163 -410 -163q-273 0 -435 196q-153 184 -153 471v231q0 60 24 84t72 24t90 -17q-32 -113 -32 -321v-1q0 -552 436 -552q367 0 424 382h-155q-207 1 -327 148q-112 138 -112 353t113 352q120 145 325 147h4q131 -1 217 -43
q95 -46 95 -134q0 -65 -82 -81q-17 82 -83 121q-36 21 -154 21q-281 0 -281 -384q0 -385 287 -385h167q57 0 103 38q43 -43 43 -78z" />
    <glyph glyph-name="uni064A" unicode="&#x64a;" horiz-adv-x="1251" arabic-form="isolated" 
d="M1246 75v-6q-28 -250 -176 -403q-158 -163 -410 -163q-273 0 -435 196q-153 184 -153 471v231q0 60 24 84t72 24t90 -17q-32 -113 -32 -321v-1q0 -552 436 -552q367 0 424 382h-155q-207 1 -327 148q-112 138 -112 353t113 352q120 145 325 147h4q131 -1 217 -43
q95 -46 95 -134q0 -65 -82 -81q-17 82 -83 121q-36 21 -154 21q-281 0 -281 -384q0 -385 287 -385h167q57 0 103 38q43 -43 43 -78zM598 -757q-30 -29 -69 -29q-38 0 -66 28q-29 28 -29 71t31 73q30 29 68 29t67 -29q28 -30 28 -72t-30 -71zM861 -757q-30 -29 -69 -29
t-67 28t-28 71t30 73q30 29 69 29q38 0 66 -29q29 -30 29 -72t-30 -71z" />
    <glyph glyph-name="uniFE82" unicode="&#x622;" horiz-adv-x="608" arabic-form="final" 
d="M619 115v-115h-9q-207 1 -327 147q-113 137 -114 351v768q0 60 24 84t72 24t91 -16q-33 -113 -33 -321v-537q0 -385 287 -385h9zM433 1550v-4q0 -39 -63 -72q-27 -13 -64 -13q-9 0 -20 1l-97 35q-50 -1 -75 -59q-52 16 -54 46v4q0 39 50 65q38 20 77 20q9 0 19 -1l98 -35
q56 3 75 59q52 -17 54 -46z" />
    <glyph glyph-name="uniFE84" unicode="&#x623;" horiz-adv-x="610" arabic-form="final" 
d="M395 1556q21 -21 21 -40q0 -7 -3 -14q-13 -29 -58 -29h-152q-28 0 -38 -6q-20 -12 -25 -37l-3 -14l-14 2q-43 9 -43 46q0 43 44 64q17 8 32 12q-28 44 -28 104q0 72 40 119q37 46 98 51l15 1q54 -1 91 -18q44 -22 44 -65q0 -36 -43 -45l-15 -3l-1 15q-5 24 -26 36
q-11 7 -40 7h-11q-35 -1 -50 -25q-14 -23 -14 -73q0 -98 65 -98h64q17 0 31 11l10 9zM622 115v-115h-9q-207 1 -327 147q-113 137 -114 351v768q0 60 24 84t72 24t91 -16q-33 -113 -33 -321v-537q0 -385 287 -385h9z" />
    <glyph glyph-name="uniFE86" unicode="&#x624;" horiz-adv-x="1199" arabic-form="final" 
d="M860 500q0 172 -67 272q-75 113 -221 113q-144 0 -220 -113q-68 -102 -68 -272q0 -172 66 -272q75 -112 222 -112h288v384zM1219 0h-205q-2 -214 -114 -350q-120 -146 -327 -147h-172q-93 0 -116 55q-4 10 -4 21q0 34 43 78q46 -39 106 -39h142q286 0 288 382h-290
q-205 0 -326 148q-114 138 -114 354q0 214 115 352q122 146 327 146q207 0 328 -146q114 -137 114 -352v-386h205v-116zM707 1219q21 -21 21 -40q0 -7 -3 -14q-13 -30 -58 -30h-152q-28 0 -38 -6q-20 -12 -25 -37l-3 -14l-14 3q-43 8 -43 45q0 43 44 65q17 8 32 12
q-28 44 -28 104q0 72 39 119q38 45 99 51h15q54 0 90 -17q45 -22 45 -65q0 -37 -43 -45l-14 -3l-2 15q-5 24 -26 36q-11 6 -40 6h-11q-35 0 -50 -24q-14 -24 -14 -74q0 -98 65 -98h64q17 0 31 12l10 8z" />
    <glyph glyph-name="uniFE88" unicode="&#x625;" horiz-adv-x="611" arabic-form="final" 
d="M415 -357q21 -21 21 -40q0 -7 -3 -14q-13 -29 -58 -29h-152q-28 0 -38 -6q-20 -12 -25 -38l-3 -14l-14 3q-43 9 -43 45q0 43 44 65q18 8 32 12q-28 44 -28 104q0 72 39 119q38 45 99 51h15q54 0 90 -17q45 -22 45 -65q0 -37 -43 -45l-14 -3l-2 15q-5 23 -26 36
q-11 6 -40 6h-11q-36 0 -50 -24t-14 -74q0 -98 65 -98h64q17 0 31 12l10 8zM622 115v-116h-8q-208 1 -328 147q-113 137 -114 352v768q0 59 25 83q24 25 72 25q47 0 90 -17q-32 -113 -32 -321v-537q0 -384 287 -384h8z" />
    <glyph glyph-name="uniFE8A" unicode="&#x626;" horiz-adv-x="1428" arabic-form="final" 
d="M1438 116v-116h-115q-43 -222 -190 -355q-156 -142 -391 -142q-273 0 -434 196q-153 185 -154 472v230q0 60 25 84q24 25 72 25t90 -17q-33 -113 -33 -321v-1q0 -553 436 -553q368 0 425 382h-173q-93 0 -116 55q-4 10 -4 21q0 34 43 78q45 -38 103 -38h416zM387 704
q21 -21 21 -40q0 -7 -3 -14q-13 -29 -58 -29h-152q-28 0 -38 -6q-20 -12 -25 -37l-3 -14l-14 2q-43 9 -43 46q0 43 44 64q17 8 32 12q-28 44 -28 104q0 72 40 120q37 45 98 50l15 1q54 0 91 -18q44 -22 44 -64q0 -37 -43 -46l-14 -2l-2 14q-5 24 -26 37q-11 6 -40 6h-11
q-36 -1 -50 -25q-14 -23 -14 -73q0 -98 65 -98h64q17 0 31 11l10 9z" />
    <glyph glyph-name="uniFE8B" unicode="&#x626;" horiz-adv-x="523" arabic-form="initial" 
d="M502 1188q21 -21 21 -41q0 -6 -3 -13q-13 -30 -58 -30h-152q-28 0 -39 -6q-19 -11 -25 -37l-2 -14l-15 3q-43 8 -43 45q0 43 45 65q17 8 31 12q-27 44 -27 104q0 72 39 119q37 45 98 51h15q54 0 91 -17q44 -22 44 -65q0 -37 -43 -45l-14 -3l-2 15q-5 23 -26 36
q-10 6 -39 6h-12q-35 0 -50 -24q-14 -23 -14 -74q0 -98 65 -98h65q17 0 30 12l10 8zM382 1000q48 0 90 -17q-32 -113 -32 -321v-163q-1 -215 -114 -352q-120 -146 -328 -147h-8v115h8q288 1 288 385v392q0 60 24 83q24 25 72 25z" />
    <glyph glyph-name="uniFE8C" unicode="&#x626;" horiz-adv-x="725" arabic-form="medial" 
d="M507 1188q21 -21 21 -40q0 -7 -3 -14q-13 -30 -58 -30h-152q-28 0 -38 -6q-20 -11 -25 -37l-3 -14l-14 3q-43 8 -43 45q0 43 44 65q18 8 32 12q-28 44 -28 104q0 72 39 119q38 45 99 51h15q54 0 90 -17q45 -22 45 -65q0 -37 -44 -45l-13 -3l-2 15q-5 23 -26 36
q-11 6 -40 6h-11q-35 0 -50 -24q-14 -23 -14 -74q0 -98 65 -98h64q17 0 31 12l10 8zM735 115v-115h-8q-245 1 -364 199q-120 -198 -365 -199h-8v115h8q287 1 287 383v394q0 59 25 83q24 25 72 25t90 -17q-33 -113 -33 -321v-163q1 -383 288 -384h8z" />
    <glyph glyph-name="uniFE8E" unicode="&#x627;" horiz-adv-x="600" arabic-form="final" 
d="M610 115v-115h-9q-207 1 -328 147q-113 137 -113 351v768q0 60 24 84t72 24t90 -16q-32 -113 -32 -321v-537q0 -385 287 -385h9z" />
    <glyph glyph-name="uniFE90" unicode="&#x628;" horiz-adv-x="1753" arabic-form="final" 
d="M788 -131q38 0 66 -29q29 -29 29 -71q0 -43 -31 -72q-30 -29 -68 -29t-67 28q-28 29 -28 72t30 72t69 29zM1763 115v-115h-8q-245 1 -365 199q-119 -198 -364 -199h-513q-207 1 -328 147q-113 137 -113 351v246q0 60 24 84t72 24t90 -17q-32 -113 -32 -321v-14
q0 -385 288 -385h511q287 0 288 383v393q0 60 24 84q25 25 72 25q48 0 91 -17q-33 -112 -33 -321v-163q1 -384 288 -384h8z" />
    <glyph glyph-name="uniFE91" unicode="&#x628;" horiz-adv-x="545" arabic-form="initial" 
d="M411 -303q-30 -29 -69 -29t-67 28q-28 29 -28 72t30 72t69 29q38 0 67 -29q28 -29 28 -71t-30 -72zM382 1000q48 0 90 -17q-32 -113 -32 -321v-163q-1 -215 -114 -352q-120 -146 -328 -147h-8v115h8q288 0 288 385v391q0 60 24 84q24 25 72 25z" />
    <glyph glyph-name="uniFE92" unicode="&#x628;" horiz-adv-x="725" arabic-form="medial" 
d="M366 -131q39 0 67 -29t28 -71q0 -43 -30 -72t-68 -29q-39 0 -67 28q-28 29 -28 72t30 72t68 29zM736 115v-115h-9q-245 1 -364 199q-120 -198 -365 -199h-8v115h8q287 0 288 383v393q0 60 24 84q24 25 72 25q47 0 90 -17q-32 -113 -32 -321v-163q0 -384 287 -384h9z" />
    <glyph glyph-name="uniFE94" unicode="&#x629;" horiz-adv-x="1241" arabic-form="final" 
d="M801 885h-287q-147 0 -222 -113q-66 -100 -66 -272q0 -170 68 -272q76 -113 220 -113q146 0 221 113q66 101 66 272v385zM1252 115v-115h-10q-242 0 -363 199q-120 -199 -365 -199q-205 0 -327 146q-115 138 -115 352q0 216 114 355q121 147 326 147h444v-500
q0 -172 66 -272q75 -113 221 -113h9zM505 1203q-30 -30 -69 -30q-38 0 -66 29q-28 28 -28 71t30 72q29 30 68 30t67 -30q28 -29 28 -71t-30 -71zM768 1203q-30 -30 -69 -30t-67 29q-28 28 -28 71t30 72q30 30 69 30q38 0 66 -30q29 -29 29 -71t-30 -71z" />
    <glyph glyph-name="uniFE96" unicode="&#x62a;" horiz-adv-x="1753" arabic-form="final" 
d="M721 1203q-30 -30 -68 -30q-39 0 -67 29q-28 28 -28 71t30 72t68 29q39 0 67 -29t28 -71t-30 -71zM984 1203q-30 -30 -69 -30q-38 0 -67 29q-28 28 -28 71t30 72t69 29q38 0 67 -29q28 -29 28 -71q0 -43 -30 -71zM1763 115v-115h-8q-245 1 -365 199q-119 -198 -364 -199
h-512q-208 1 -329 147q-112 137 -113 351v246q0 60 24 84t72 24t90 -17q-32 -113 -32 -320v-15q0 -385 288 -385h511q288 0 288 383v393q0 60 24 84q25 25 72 25q48 0 91 -17q-33 -113 -33 -321v-163q1 -384 288 -384h8z" />
    <glyph glyph-name="uniFE97" unicode="&#x62a;" horiz-adv-x="565" arabic-form="initial" 
d="M272 1203q-30 -30 -68 -30q-39 0 -67 29q-28 28 -28 71t30 72t68 29q39 0 67 -29t28 -71q0 -43 -30 -71zM535 1203q-30 -30 -69 -30q-38 0 -66 29q-29 28 -29 71t30 72t69 29q38 0 67 -29q28 -29 28 -71t-30 -71zM382 1000q48 0 90 -17q-32 -112 -32 -321v-163
q-1 -215 -114 -352q-120 -146 -328 -147h-8v115h8q288 0 288 385v391q0 60 24 84q24 25 72 25z" />
    <glyph glyph-name="uniFE98" unicode="&#x62a;" horiz-adv-x="725" arabic-form="medial" 
d="M298 1203q-30 -30 -68 -30q-39 0 -67 29q-28 28 -28 71t30 72t68 29q39 0 67 -29t28 -71t-30 -71zM561 1203q-30 -30 -69 -30q-38 0 -67 29q-28 28 -28 71t30 72t69 29q38 0 67 -29q28 -29 28 -71t-30 -71zM736 115v-115h-9q-245 1 -364 199q-120 -198 -365 -199h-8v115
h8q287 0 288 383v393q0 60 24 84q24 25 72 25q47 0 90 -17q-32 -113 -32 -321v-163q0 -384 287 -384h9z" />
    <glyph glyph-name="uniFE9A" unicode="&#x62b;" horiz-adv-x="1753" arabic-form="final" 
d="M853 1420q-31 -29 -69 -29q-39 0 -67 28q-28 29 -28 72t30 72t69 29q38 0 66 -29q29 -29 29 -71t-30 -72zM721 1203q-30 -30 -68 -30q-39 0 -67 29q-28 28 -28 71t30 72t68 29q39 0 67 -29t28 -71t-30 -71zM984 1203q-30 -30 -69 -30q-38 0 -66 29q-29 28 -29 71t30 72
t69 29q38 0 67 -29q28 -29 28 -71t-30 -71zM1763 115v-115h-8q-245 1 -365 199q-119 -198 -364 -199h-513q-207 1 -328 147q-113 137 -113 351v246q0 60 24 84t72 24q47 0 90 -17q-32 -113 -32 -320v-15q0 -385 288 -385h511q288 0 288 383v393q0 60 24 84q25 25 72 25
q48 0 91 -17q-33 -114 -33 -321v-163q1 -384 288 -384h8z" />
    <glyph glyph-name="uniFE9B" unicode="&#x62b;" horiz-adv-x="570" arabic-form="initial" 
d="M404 1421q-30 -30 -69 -30t-67 29q-28 28 -28 71t30 72t69 29q38 0 66 -29q29 -29 29 -71t-30 -71zM272 1203q-30 -30 -68 -30q-39 0 -67 29q-28 28 -28 71t30 72t68 29q39 0 67 -29t28 -71t-30 -71zM535 1203q-30 -30 -69 -30q-38 0 -66 29q-29 28 -29 71t30 72t69 29
q38 0 67 -29q28 -29 28 -71t-30 -71zM382 1000q48 0 90 -17q-32 -113 -32 -321v-163q-1 -215 -114 -352q-120 -146 -328 -147h-8v115h8q288 0 288 385v391q0 60 24 84q24 25 72 25z" />
    <glyph glyph-name="uniFE9C" unicode="&#x62b;" horiz-adv-x="725" arabic-form="medial" 
d="M429 1420q-29 -29 -68 -29t-67 28q-28 29 -28 72t30 72t69 29q38 0 66 -29t28 -71t-30 -72zM298 1203q-30 -30 -68 -30q-39 0 -67 29q-28 28 -28 71t30 72t68 29q39 0 67 -29t28 -71t-30 -71zM561 1203q-30 -30 -69 -30q-38 0 -67 29q-28 28 -28 71t30 72t69 29
q38 0 67 -29q28 -29 28 -71t-30 -71zM736 115v-115h-9q-245 1 -364 199q-120 -198 -365 -199h-8v115h8q287 0 288 383v393q0 60 24 84q24 25 72 25q47 0 90 -17q-32 -113 -32 -321v-163q0 -384 287 -384h9z" />
    <glyph glyph-name="uniFE9E" unicode="&#x62c;" horiz-adv-x="1104" arabic-form="final" 
d="M875 -302q-31 -29 -69 -29q-39 0 -67 28t-28 71q0 44 30 73t69 29q38 0 66 -29q29 -30 29 -72t-30 -71zM364 0q-59 0 -108 -47q-51 -50 -51 -145q0 -96 52 -146q45 -44 107 -44h143q60 0 106 39q43 -44 43 -78q0 -11 -4 -21q-23 -55 -116 -55h-171q-117 0 -197 78
q-95 92 -96 225v4q1 133 96 226q83 79 193 79h6h445q-24 112 -24 286v176q0 176 -53 241q-54 67 -219 67q-110 0 -160 -25q-77 -39 -95 -118q-103 17 -103 81q0 87 101 129q115 48 272 48q218 0 315 -73q96 -73 96 -262v-275q0 -183 17 -275h165v-115h-760z" />
    <glyph glyph-name="uniFE9F" unicode="&#x62c;" horiz-adv-x="963" arabic-form="initial" 
d="M595 -303q-30 -29 -68 -29q-39 0 -67 28q-28 29 -28 72t30 72t69 29q38 0 66 -29t28 -71t-30 -72zM920 390q0 -253 38 -350q-46 -40 -107 -40h-861v115h801q-25 112 -25 285v176q0 177 -52 242q-54 67 -219 67q-110 0 -160 -26q-77 -39 -96 -118q-102 18 -102 82
q0 86 100 128q116 49 273 49q218 0 314 -73t96 -262v-275z" />
    <glyph glyph-name="uniFEA0" unicode="&#x62c;" horiz-adv-x="1135" arabic-form="medial" 
d="M1144 115v-115h-1154v115h801q-25 112 -25 285v176q0 176 -52 242q-54 67 -219 67q-111 0 -160 -26q-77 -39 -96 -118q-102 18 -102 82q0 86 100 128q116 49 273 49q218 0 314 -73t96 -262v-275q0 -183 18 -275h206zM595 -303q-30 -29 -68 -29q-39 0 -67 28
q-28 29 -28 72t30 72t68 29q39 0 67 -29t28 -71q0 -43 -30 -72z" />
    <glyph glyph-name="uniFEA2" unicode="&#x62d;" horiz-adv-x="1104" arabic-form="final" 
d="M364 0q-60 0 -108 -47q-51 -50 -51 -145q0 -96 52 -146q45 -44 107 -44h223q60 0 106 39q44 -44 44 -78q0 -11 -5 -21q-23 -55 -116 -55h-252q-116 0 -196 78q-95 92 -96 225v4q1 133 96 226q83 79 193 79h6h445q-24 112 -24 286v176q0 176 -53 241q-54 67 -219 67
q-110 0 -160 -25q-77 -39 -95 -118q-103 17 -103 81q0 87 101 129q115 48 272 48q218 0 315 -73q96 -73 96 -262v-275q0 -183 17 -275h165v-115h-760z" />
    <glyph glyph-name="uniFEA3" unicode="&#x62d;" horiz-adv-x="963" arabic-form="initial" 
d="M920 390q0 -253 38 -350q-46 -40 -107 -40h-861v115h801q-25 112 -25 285v176q0 177 -52 242q-54 67 -219 67q-110 0 -160 -26q-77 -39 -96 -118q-102 18 -102 82q0 86 100 128q116 49 273 49q218 0 314 -73t96 -262v-275z" />
    <glyph glyph-name="uniFEA4" unicode="&#x62d;" horiz-adv-x="1135" arabic-form="medial" 
d="M1144 115v-115h-1154v115h801q-25 112 -25 285v176q0 176 -52 242q-54 67 -219 67q-111 0 -160 -26q-77 -39 -96 -118q-102 18 -102 82q0 86 100 128q116 49 273 49q218 0 314 -73t96 -262v-275q0 -183 18 -275h206z" />
    <glyph glyph-name="uniFEA6" unicode="&#x62e;" horiz-adv-x="1104" arabic-form="final" 
d="M617 1203q-30 -29 -69 -29q-38 0 -66 28t-28 71q0 44 30 73q29 29 68 29t67 -29t28 -72q0 -42 -30 -71zM364 0q-60 0 -108 -47q-51 -50 -51 -145q0 -96 52 -146q45 -44 107 -44h223q60 0 106 39q44 -44 44 -78q0 -11 -5 -21q-23 -55 -116 -55h-252q-116 0 -196 78
q-95 92 -96 225v4q1 133 96 226q83 79 193 79h6h445q-24 112 -24 286v176q0 176 -53 241q-54 67 -219 67q-110 0 -160 -25q-77 -39 -95 -118q-103 17 -103 81q0 87 101 129q115 48 272 48q218 0 315 -73q96 -73 96 -262v-275q0 -183 17 -275h165v-115h-760z" />
    <glyph glyph-name="uniFEA7" unicode="&#x62e;" horiz-adv-x="963" arabic-form="initial" 
d="M590 1203q-30 -29 -69 -29q-38 0 -66 28t-28 71t30 72q29 30 68 30t67 -30q28 -28 28 -71q0 -42 -30 -71zM920 390q0 -253 38 -350q-45 -40 -106 -40h-862v115h801q-25 113 -25 285v177q0 176 -52 241q-54 67 -219 67q-110 0 -160 -25q-77 -40 -96 -118q-102 17 -102 81
q0 87 100 129q116 48 273 48q218 0 314 -73t96 -262v-275z" />
    <glyph glyph-name="uniFEA8" unicode="&#x62e;" horiz-adv-x="1135" arabic-form="medial" 
d="M586 1203q-30 -30 -69 -30q-38 0 -66 29q-28 28 -28 71t30 72q30 30 68 30q39 0 67 -30q28 -29 28 -71t-30 -71zM1144 115v-115h-1154v115h801q-25 111 -25 285v177q0 176 -52 241q-54 67 -219 67q-111 0 -160 -26q-77 -39 -96 -117q-102 17 -102 81q0 87 100 129
q116 48 273 48q218 0 314 -73t96 -262v-275q0 -182 18 -275h206z" />
    <glyph glyph-name="uniFEAA" unicode="&#x62f;" horiz-adv-x="1262" arabic-form="final" 
d="M1272 115v-115h-10q-242 0 -363 199q-119 -197 -363 -199h-266q-93 0 -116 54q-4 10 -4 21q0 35 43 78q45 -38 103 -38h238q288 0 288 385t-281 385q-118 0 -154 -22q-66 -39 -83 -121q-83 16 -83 81q0 88 95 134q86 42 218 43h4q205 -2 325 -147q113 -137 113 -352v-1
q0 -172 66 -272q75 -113 221 -113h9z" />
    <glyph glyph-name="uniFEAC" unicode="&#x630;" horiz-adv-x="1262" arabic-form="final" 
d="M614 1202q-30 -29 -68 -29q-39 0 -67 28q-28 29 -28 72t30 72t68 29q39 0 67 -29t28 -71t-30 -72zM1272 115v-115h-10q-242 0 -363 199q-119 -197 -363 -199h-266q-93 0 -116 54q-4 10 -4 21q0 35 43 78q45 -38 103 -38h238q288 0 288 385t-281 385q-118 0 -154 -22
q-66 -39 -83 -121q-83 16 -83 81q0 88 95 134q86 42 218 43h4q205 -2 325 -147q113 -137 113 -352v-1q0 -172 66 -272q75 -113 221 -113h9z" />
    <glyph glyph-name="uniFEAE" unicode="&#x631;" horiz-adv-x="718" arabic-form="final" 
d="M730 0h-207q-1 -214 -114 -350q-120 -146 -327 -147h-32q-93 0 -116 55q-4 10 -4 21q0 34 43 78q46 -39 106 -39h2q288 0 288 385v889q0 60 24 84q25 24 72 24q48 0 91 -17q-33 -112 -33 -320v-548h207v-115z" />
    <glyph glyph-name="uniFEB0" unicode="&#x632;" horiz-adv-x="718" arabic-form="final" 
d="M730 0h-207q-1 -214 -114 -350q-120 -146 -327 -147h-32q-93 0 -116 55q-4 10 -4 21q0 34 43 78q46 -39 106 -39h2q288 0 288 385v889q0 60 24 84q25 24 72 24q48 0 91 -17q-33 -112 -33 -320v-548h207v-115zM526 1203q-31 -29 -69 -29q-39 0 -67 28t-28 71q0 44 30 73
t69 29q38 0 66 -29q29 -29 29 -72q0 -42 -30 -71z" />
    <glyph glyph-name="uniFEB2" unicode="&#x633;" horiz-adv-x="2980" arabic-form="final" 
d="M2989 115v-115h-8q-245 1 -365 199q-120 -198 -364 -199h-1q-245 1 -365 199q-118 -197 -363 -199h-283q-43 -223 -190 -355q-156 -142 -391 -142q-273 0 -434 196q-153 185 -153 471v231q0 60 24 84t72 24t90 -17q-32 -112 -32 -320v-2q0 -552 436 -552q367 0 424 382
v745q0 59 24 84q24 24 72 24t91 -17q-33 -113 -33 -321v-400h283q286 1 287 384v246q0 59 24 84q24 24 72 24q47 0 90 -17q-32 -113 -32 -321v-16q0 -384 287 -384t288 384v393q0 60 24 84t72 24t90 -17q-32 -112 -32 -320v-164q0 -383 288 -384h8z" />
    <glyph glyph-name="uniFEB3" unicode="&#x633;" horiz-adv-x="1936" arabic-form="initial" 
d="M1841 1000q48 0 90 -17q-32 -113 -32 -321v-163q-1 -215 -114 -352q-121 -146 -328 -147q-246 1 -365 199q-120 -198 -364 -199h-1q-245 1 -364 199q-120 -198 -365 -199h-8v115h8q287 0 288 383v246q0 60 24 84q24 25 72 25q47 0 90 -17q-32 -113 -32 -321v-16
q0 -384 287 -384t288 383v246q0 60 24 84q25 25 72 25t91 -17q-33 -113 -33 -321v-16q0 -384 288 -384q287 0 287 385v392q0 59 25 83q24 25 72 25z" />
    <glyph glyph-name="uniFEB4" unicode="&#x633;" horiz-adv-x="2185" arabic-form="medial" 
d="M2195 115v-115h-9q-245 1 -364 199q-120 -198 -365 -199q-245 1 -365 199q-119 -198 -364 -199h-1q-245 1 -364 199q-119 -198 -364 -199h-9v115h9q286 0 287 383v246q0 60 24 84q24 25 72 25t90 -17q-32 -113 -32 -321v-16q0 -384 288 -384q286 0 287 383v246
q0 60 24 84q25 25 72 25q48 0 91 -17q-33 -113 -33 -321v-16q1 -384 288 -384t288 383v393q0 60 24 84q24 25 72 25q47 0 90 -17q-32 -113 -32 -321v-163q0 -384 287 -384h9z" />
    <glyph glyph-name="uniFEB6" unicode="&#x634;" horiz-adv-x="2980" arabic-form="final" 
d="M2989 115v-115h-8q-245 1 -365 199q-120 -198 -364 -199h-1q-245 1 -365 199q-118 -197 -363 -199h-283q-43 -223 -190 -355q-156 -142 -391 -142q-273 0 -434 196q-153 185 -153 471v231q0 60 24 84t72 24t90 -17q-32 -112 -32 -320v-2q0 -552 436 -552q367 0 424 382
v745q0 59 24 84q24 24 72 24t91 -17q-33 -113 -33 -321v-400h283q286 1 287 384v246q0 59 24 84q24 24 72 24q47 0 90 -17q-32 -113 -32 -321v-16q0 -384 287 -384t288 384v393q0 60 24 84t72 24t90 -17q-32 -112 -32 -320v-164q0 -383 288 -384h8zM1972 1421
q-30 -29 -69 -29q-38 0 -67 28q-28 28 -28 71q0 44 30 73t69 29t67 -29t28 -72q0 -42 -30 -71zM1840 1203q-30 -29 -68 -29q-39 0 -67 28t-28 71q0 44 30 73t69 29q38 0 66 -29q29 -29 29 -72q0 -42 -31 -71zM2103 1203q-30 -29 -69 -29q-38 0 -66 28q-29 28 -29 71
q0 44 31 73q30 29 68 29q39 0 67 -29t28 -72q0 -42 -30 -71z" />
    <glyph glyph-name="uniFEB7" unicode="&#x634;" horiz-adv-x="1936" arabic-form="initial" 
d="M1841 1000q48 0 90 -17q-32 -113 -32 -321v-163q-1 -215 -114 -352q-121 -146 -328 -147q-246 1 -365 199q-120 -198 -364 -199h-1q-245 1 -364 199q-120 -198 -365 -199h-8v115h8q287 0 288 383v246q0 60 24 84q24 25 72 25q47 0 90 -17q-32 -113 -32 -321v-16
q0 -384 287 -384t288 383v246q0 60 24 84q25 25 72 25t91 -17q-33 -113 -33 -321v-16q0 -384 288 -384q287 0 287 385v392q0 59 25 83q24 25 72 25zM1178 1421q-30 -30 -69 -30t-67 29q-28 28 -28 71t30 72q30 30 69 30q38 0 66 -30q29 -29 29 -71t-30 -71zM1046 1203
q-30 -29 -68 -29q-39 0 -67 28t-28 71t30 72q30 30 68 30q39 0 67 -30q28 -29 28 -71t-30 -71zM1309 1203q-30 -29 -69 -29q-38 0 -66 28q-29 28 -29 71t30 72q30 30 69 30t67 -30q28 -29 28 -71t-30 -71z" />
    <glyph glyph-name="uniFEB8" unicode="&#x634;" horiz-adv-x="2185" arabic-form="medial" 
d="M2195 115v-115h-9q-245 1 -364 199q-120 -198 -365 -199q-245 1 -365 199q-119 -198 -364 -199h-1q-245 1 -364 199q-119 -198 -364 -199h-9v115h9q286 0 287 383v246q0 60 24 84q24 25 72 25t90 -17q-32 -113 -32 -321v-16q0 -384 288 -384q286 0 287 383v246
q0 60 24 84q25 25 72 25q48 0 91 -17q-33 -113 -33 -321v-16q1 -384 288 -384t288 383v393q0 60 24 84q24 25 72 25q47 0 90 -17q-32 -113 -32 -321v-163q0 -384 287 -384h9zM1177 1421q-30 -30 -68 -30q-39 0 -67 29q-28 28 -28 71t30 72t69 29q38 0 66 -29t28 -71t-30 -71
zM1046 1202q-30 -29 -68 -29q-39 0 -67 29q-28 28 -28 71t30 72q29 30 68 30t67 -30q28 -29 28 -71t-30 -72zM1309 1202q-30 -29 -69 -29t-67 29q-28 28 -28 71t30 72q30 30 69 30q38 0 66 -30q29 -29 29 -71t-30 -72z" />
    <glyph glyph-name="uniFEBA" unicode="&#x635;" horiz-adv-x="2472" arabic-form="final" 
d="M1861 116q286 1 286 384q0 172 -67 272q-75 113 -221 113q-82 0 -190 -51q-228 -110 -429 -400v-318h621zM2493 116v-116h-202q-121 1 -216 53q-94 -52 -214 -53h-621q-43 -222 -190 -355q-156 -142 -391 -142q-272 0 -434 196q-153 185 -153 472v230q0 60 24 84
q24 25 72 25t90 -17q-32 -113 -32 -321v-1q0 -552 436 -552q367 0 424 381v892q0 60 24 84q25 24 72 24q48 0 91 -17q-33 -112 -33 -320v-37q310 374 619 374q207 0 328 -146q114 -137 114 -352q0 -247 -142 -386h334z" />
    <glyph glyph-name="uniFEBB" unicode="&#x635;" horiz-adv-x="1420" arabic-form="initial" 
d="M974 115q286 1 286 385q0 171 -66 272q-75 113 -221 113q-83 0 -190 -52q-229 -109 -430 -399v-319h621zM973 1000q207 0 328 -146q114 -137 114 -353q0 -215 -113 -353q-120 -147 -328 -148h-1005v115h230v777q0 59 24 83q25 25 73 25q47 0 90 -17q-33 -113 -33 -321
v-36q310 374 620 374z" />
    <glyph glyph-name="uniFEBC" unicode="&#x635;" horiz-adv-x="1587" arabic-form="medial" 
d="M976 115q286 1 286 385q0 171 -67 272q-74 113 -220 113q-83 0 -190 -52q-229 -109 -430 -399v-319h621zM1609 115v-115h-203q-121 0 -216 53q-93 -52 -214 -53h-1007v115h232v777q0 59 24 83q25 25 73 25q47 0 90 -17q-33 -113 -33 -321v-36q310 374 620 374
q206 0 327 -146q115 -137 115 -353q0 -246 -143 -386h335z" />
    <glyph glyph-name="uniFEBE" unicode="&#x636;" horiz-adv-x="2472" arabic-form="final" 
d="M1632 1203q-30 -29 -68 -29q-39 0 -67 28t-28 72q0 43 30 72q29 29 68 29t67 -29q28 -30 28 -71q0 -43 -30 -72zM1861 116q286 1 286 384q0 172 -67 272q-75 113 -221 113q-82 0 -190 -51q-228 -110 -429 -400v-318h621zM2493 116v-116h-202q-121 1 -216 53
q-94 -52 -214 -53h-621q-43 -222 -190 -355q-156 -142 -391 -142q-272 0 -434 196q-153 185 -153 472v230q0 60 24 84q24 25 72 25t90 -17q-32 -113 -32 -321v-1q0 -552 436 -552q367 0 424 381v892q0 60 24 84q25 24 72 24q48 0 91 -17q-33 -112 -33 -320v-37
q310 374 619 374q207 0 328 -146q114 -137 114 -352q0 -247 -142 -386h334z" />
    <glyph glyph-name="uniFEBF" unicode="&#x636;" horiz-adv-x="1420" arabic-form="initial" 
d="M745 1203q-30 -30 -68 -30q-39 0 -67 29q-28 28 -28 71t30 72q30 30 69 30q38 0 66 -30q28 -29 28 -71t-30 -71zM974 115q286 1 286 385q0 171 -66 272q-75 113 -221 113q-83 0 -190 -52q-229 -109 -430 -399v-319h621zM973 1000q207 0 328 -146q114 -137 114 -353
q0 -215 -113 -353q-120 -147 -328 -148h-1005v115h230v777q0 59 24 83q25 25 73 25q47 0 90 -17q-33 -113 -33 -321v-36q310 374 620 374z" />
    <glyph glyph-name="uniFEC0" unicode="&#x636;" horiz-adv-x="1587" arabic-form="medial" 
d="M747 1203q-30 -30 -68 -30q-39 0 -67 29q-28 28 -28 71t30 72q30 30 68 30q39 0 67 -30q28 -29 28 -71t-30 -71zM976 115q286 1 286 385q0 171 -67 272q-74 113 -220 113q-83 0 -190 -52q-229 -109 -430 -399v-319h621zM1609 115v-115h-203q-121 0 -216 53
q-93 -52 -214 -53h-1007v115h232v777q0 59 24 83q25 25 73 25q47 0 90 -17q-33 -113 -33 -321v-36q310 374 620 374q206 0 327 -146q115 -137 115 -353q0 -246 -143 -386h335z" />
    <glyph glyph-name="uniFEC2" unicode="&#x637;" horiz-adv-x="1690" arabic-form="final" 
d="M1078 115q286 1 286 385q0 171 -67 272q-75 113 -221 113q-83 0 -190 -52q-228 -109 -429 -399v-319h621zM1710 115v-115h-202q-121 0 -216 53q-94 -52 -214 -53h-872q-93 0 -116 54q-4 10 -4 21q0 35 43 78q46 -38 106 -38h68v1151q0 60 24 84q25 24 72 24q48 0 91 -16
q-33 -113 -33 -321v-411q309 374 619 374q207 0 328 -146q114 -137 114 -353q0 -246 -143 -386h335z" />
    <glyph glyph-name="uniFEC3" unicode="&#x637;" horiz-adv-x="1421" arabic-form="initial" 
d="M976 115q286 1 286 385q0 171 -66 272q-75 113 -221 113q-83 0 -191 -52q-228 -109 -429 -399v-319h621zM975 1000q206 0 327 -146q114 -137 114 -353q0 -215 -112 -353q-120 -147 -328 -148h-1007v115h232v1151q0 60 24 84q25 24 73 24q47 0 90 -16q-33 -113 -33 -321
v-411q310 374 620 374z" />
    <glyph glyph-name="uniFEC4" unicode="&#x637;" horiz-adv-x="1587" arabic-form="medial" 
d="M976 115q286 1 286 385q0 171 -67 272q-74 113 -221 113q-82 0 -190 -52q-228 -109 -429 -399v-319h621zM1608 115v-115h-202q-121 0 -216 53q-93 -52 -214 -53h-1007v115h232v1151q0 60 24 84q25 24 72 24q48 0 91 -16q-33 -112 -33 -321v-411q310 374 619 374
q207 0 328 -146q114 -137 114 -353q0 -246 -142 -386h334z" />
    <glyph glyph-name="uniFEC6" unicode="&#x638;" horiz-adv-x="1690" arabic-form="final" 
d="M1078 115q286 1 286 385q0 171 -67 272q-75 113 -221 113q-83 0 -190 -52q-228 -109 -429 -399v-319h621zM1710 115v-115h-202q-121 0 -216 53q-94 -52 -214 -53h-872q-93 0 -116 54q-4 10 -4 21q0 35 43 78q46 -38 106 -38h68v1151q0 60 24 84q25 24 72 24q48 0 91 -16
q-33 -113 -33 -321v-411q309 374 619 374q207 0 328 -146q114 -137 114 -353q0 -246 -143 -386h335zM843 1173q-39 0 -67 29q-28 28 -28 71t30 72t69 29q38 0 66 -29t28 -71t-30 -71q-30 -30 -68 -30z" />
    <glyph glyph-name="uniFEC7" unicode="&#x638;" horiz-adv-x="1421" arabic-form="initial" 
d="M742 1173q-39 0 -67 29q-28 28 -28 71t30 72t68 29q39 0 67 -29t28 -71t-30 -71q-30 -30 -68 -30zM976 115q286 1 286 385q0 171 -66 272q-75 113 -221 113q-83 0 -191 -52q-228 -109 -429 -399v-319h621zM975 1000q206 0 327 -146q114 -137 114 -353q0 -215 -112 -353
q-120 -147 -328 -148h-1007v115h232v1151q0 60 24 84q25 24 73 24q47 0 90 -16q-33 -113 -33 -321v-411q310 374 620 374z" />
    <glyph glyph-name="uniFEC8" unicode="&#x638;" horiz-adv-x="1587" arabic-form="medial" 
d="M741 1173q-38 0 -66 29q-29 28 -29 71t30 72t69 29t67 -29t28 -71t-30 -71q-30 -30 -69 -30zM976 115q286 1 286 385q0 171 -67 272q-74 113 -221 113q-82 0 -190 -52q-228 -109 -429 -399v-319h621zM1608 115v-115h-202q-121 0 -216 53q-93 -52 -214 -53h-1007v115h232
v1151q0 60 24 84q25 24 72 24q48 0 91 -16q-33 -112 -33 -321v-411q310 374 619 374q207 0 328 -146q114 -137 114 -353q0 -246 -142 -386h334z" />
    <glyph glyph-name="uniFECA" unicode="&#x639;" horiz-adv-x="1202" arabic-form="final" 
d="M533 116h66q287 0 287 384q0 170 -66 270q-73 113 -216 115l-252 -42zM364 0q-59 0 -108 -47q-51 -50 -51 -145q0 -96 52 -146q45 -43 107 -43h146q58 0 103 38q43 -44 43 -78q0 -11 -4 -21q-23 -55 -116 -55h-172q-116 0 -196 77q-95 92 -96 226v4q1 134 96 226
q83 80 194 80h5l-173 700q-7 29 -7 52q0 50 32 74q12 9 40 14l339 44q207 0 328 -146q114 -137 114 -352q0 -247 -143 -386h326v-116h-859z" />
    <glyph glyph-name="uniFECB" unicode="&#x639;" horiz-adv-x="944" arabic-form="initial" 
d="M856 258q83 -16 83 -81q0 -88 -95 -135q-81 -39 -185 -42h-669v115h272q-143 140 -143 386q0 215 113 352q120 145 325 147h4q130 -1 217 -43q95 -46 95 -134q0 -65 -82 -81q-18 82 -84 121q-36 22 -153 22q-281 0 -281 -385q0 -384 286 -385h71q102 0 144 25
q66 40 82 118z" />
    <glyph glyph-name="uniFECC" unicode="&#x639;" horiz-adv-x="1192" arabic-form="medial" 
d="M583 115q287 1 287 385q0 170 -65 270q-74 112 -217 115l-251 -43l180 -727h66zM1208 115v-115h-1224v115h368l-173 700q-8 30 -8 54q0 49 32 72q12 9 40 14l340 45q206 0 327 -146q114 -137 114 -353q0 -246 -142 -386h326z" />
    <glyph glyph-name="uniFECE" unicode="&#x63a;" horiz-adv-x="1202" arabic-form="final" 
d="M533 116h66q287 0 287 384q0 170 -66 270q-73 113 -216 115l-252 -42zM364 0q-59 0 -108 -47q-51 -50 -51 -145q0 -96 52 -146q45 -43 107 -43h146q58 0 103 38q43 -44 43 -78q0 -11 -4 -21q-23 -55 -116 -55h-172q-116 0 -196 77q-95 92 -96 226v4q1 134 96 226
q83 80 194 80h5l-173 700q-7 29 -7 52q0 50 32 74q12 9 40 14l339 44q207 0 328 -146q114 -137 114 -352q0 -247 -143 -386h326v-116h-859zM678 1203q-30 -29 -68 -29q-39 0 -67 28t-28 72q0 43 30 72t69 29q38 0 66 -29q29 -29 29 -72q0 -42 -31 -71z" />
    <glyph glyph-name="uniFECF" unicode="&#x63a;" horiz-adv-x="944" arabic-form="initial" 
d="M856 258q83 -16 83 -81q0 -88 -95 -135q-81 -39 -185 -42h-669v115h272q-143 140 -143 386q0 215 113 352q120 145 325 147h4q130 -1 217 -43q95 -46 95 -134q0 -65 -82 -81q-18 82 -84 121q-36 22 -153 22q-281 0 -281 -385q0 -384 286 -385h71q102 0 144 25
q66 40 82 118zM585 1203q-30 -29 -69 -29t-67 28t-28 71t30 72q30 30 69 30q38 0 66 -30q29 -28 29 -71q0 -42 -30 -71z" />
    <glyph glyph-name="uniFED0" unicode="&#x63a;" horiz-adv-x="1192" arabic-form="medial" 
d="M583 115q287 1 287 385q0 170 -65 270q-74 112 -217 115l-251 -43l180 -727h66zM1208 115v-115h-1224v115h368l-173 700q-8 30 -8 54q0 49 32 72q12 9 40 14l340 45q206 0 327 -146q114 -137 114 -353q0 -246 -142 -386h326zM660 1203q-30 -30 -69 -30q-38 0 -66 29
q-29 28 -29 71t30 72q30 30 69 30t67 -30q28 -28 28 -71q0 -42 -30 -71z" />
    <glyph glyph-name="uniFED2" unicode="&#x641;" horiz-adv-x="2047" arabic-form="final" 
d="M1417 1174q-38 0 -66 28q-29 28 -29 71t30 72q31 30 69 30t67 -30q28 -29 28 -71t-30 -71t-69 -29zM1407 115q147 0 221 113q67 100 67 272q0 170 -69 272q-76 113 -219 113q-146 0 -221 -113q-67 -101 -67 -272v-385h288zM2067 115v-115h-1553q-208 1 -328 147
q-113 137 -114 352v245q0 60 24 84q25 24 72 24q48 0 91 -17q-33 -112 -33 -320v-15q0 -385 288 -385h451v386q0 216 114 353q121 146 328 146q205 0 326 -146q116 -138 116 -353q0 -243 -147 -386h365z" />
    <glyph glyph-name="uniFED3" unicode="&#x641;" horiz-adv-x="1089" arabic-form="initial" 
d="M641 1174q-38 0 -67 28q-28 28 -28 71t30 72q31 30 69 30t66 -30q29 -29 29 -71t-30 -71t-69 -29zM642 115q147 0 222 113q66 100 66 272q0 170 -69 272q-75 113 -219 113q-146 0 -221 -113q-67 -101 -67 -272v-385h288zM642 1000q205 0 327 -146q115 -138 115 -353
t-114 -354q-121 -147 -326 -147h-654v115h210v386q0 216 114 353q121 146 328 146z" />
    <glyph glyph-name="uniFED4" unicode="&#x641;" horiz-adv-x="1248" arabic-form="medial" 
d="M620 1174q-39 0 -67 28t-28 71t30 72q30 30 68 30q39 0 67 -30q28 -29 28 -71t-30 -71t-68 -29zM645 115q147 0 221 113q67 100 67 272q0 170 -69 272q-76 113 -219 113q-146 0 -221 -113q-67 -101 -67 -272v-385h288zM1258 115v-115h-1273v115h218v386q0 216 114 353
q121 146 328 146q205 0 326 -146q116 -138 116 -353q0 -243 -147 -386h318z" />
    <glyph glyph-name="uniFED6" unicode="&#x642;" horiz-adv-x="1575" arabic-form="final" 
d="M1200 500q0 172 -67 272q-75 113 -221 113q-144 0 -219 -113q-69 -102 -69 -272q0 -172 66 -272q75 -112 222 -112h288v384zM1616 116v-116h-262q-42 -216 -216 -355q-177 -142 -417 -142q-278 0 -465 196q-184 192 -184 472v230q0 60 24 84q24 25 72 25t90 -17
q-32 -113 -32 -321v-1q0 -244 125 -393q134 -160 373 -160q202 0 329 107q121 102 147 275h-290q-205 0 -326 148q-114 138 -114 354q0 214 115 352q122 146 327 146q207 0 328 -146q114 -137 114 -352v-386h262zM867 1203q-30 -29 -69 -29q-38 0 -67 28q-28 28 -28 71
q0 44 30 73t69 29q38 0 66 -29q29 -29 29 -72q0 -42 -30 -71zM1129 1203q-30 -29 -68 -29q-39 0 -67 28t-28 71q0 44 30 73t68 29q39 0 67 -29t28 -72q0 -42 -30 -71z" />
    <glyph glyph-name="uniFED7" unicode="&#x642;" horiz-adv-x="1089" arabic-form="initial" 
d="M532 1173q-38 0 -67 29q-28 28 -28 71t30 72q30 30 69 30q38 0 67 -30q28 -29 28 -71t-30 -71q-30 -30 -69 -30zM795 1173q-39 0 -67 29q-28 28 -28 71t30 72q30 30 68 30q39 0 67 -30q28 -29 28 -71t-30 -71q-30 -30 -68 -30zM642 115q147 0 221 113q67 100 67 272
q0 170 -69 272q-76 113 -219 113q-146 0 -221 -113q-67 -101 -67 -272v-385h288zM642 1000q204 0 326 -146q116 -138 116 -353t-115 -354q-121 -147 -326 -147h-653v115h210v386q0 216 114 353q121 146 328 146z" />
    <glyph glyph-name="uniFED8" unicode="&#x642;" horiz-adv-x="1273" arabic-form="medial" 
d="M538 1173q-39 0 -67 29q-28 28 -28 71t30 72q30 30 69 30q38 0 66 -30q28 -29 28 -71t-30 -71q-30 -30 -68 -30zM800 1173q-38 0 -66 29q-29 28 -29 71t30 72q31 30 69 30q39 0 67 -30q28 -29 28 -71t-30 -71q-30 -30 -69 -30zM660 115q147 0 221 113q67 100 67 272
q0 170 -69 272q-76 113 -219 113q-146 0 -221 -113q-67 -101 -67 -272v-385h288zM1283 115v-115h-1293v115h228v386q0 216 114 353q121 146 328 146q205 0 326 -146q116 -138 116 -353q0 -243 -147 -386h328z" />
    <glyph glyph-name="uniFEDA" unicode="&#x643;" horiz-adv-x="1753" arabic-form="final" 
d="M664 798q-44 9 -44 46q0 42 45 64q16 8 32 12q-28 44 -28 104q0 72 39 119q38 46 99 51h15q54 0 90 -17q45 -22 45 -65q0 -36 -44 -45l-14 -3l-1 15q-5 24 -27 36q-10 7 -39 7h-11q-36 -1 -50 -25q-14 -23 -14 -73q0 -98 65 -98h64q17 0 30 11l10 9l10 -10q21 -21 21 -41
q0 -6 -3 -13q-13 -29 -58 -29h-152q-28 0 -38 -6q-20 -12 -25 -37l-3 -14zM1763 115v-115h-8q-245 1 -365 199q-119 -198 -364 -199h-513q-207 1 -328 147q-113 137 -113 352v245q0 60 24 84t72 24q47 0 90 -17q-32 -112 -32 -320v-15q0 -385 288 -385h511q287 0 288 383
v768q0 60 24 84q25 25 72 25q48 0 91 -17q-33 -113 -33 -321v-538q1 -384 288 -384h8z" />
    <glyph glyph-name="uniFEDB" unicode="&#x643;" horiz-adv-x="1102" arabic-form="initial" 
d="M883 242q106 -89 214 -104q-34 -100 -85 -128q-18 -10 -37 -10h-995v115h820l-628 558q-32 37 -32 70q0 9 2 17q7 22 72 71q168 129 517 368q134 109 170 176q73 -42 93 -103q3 -10 3 -20q0 -41 -53 -84l-620 -430q120 -128 559 -496z" />
    <glyph glyph-name="uniFEDC" unicode="&#x643;" horiz-adv-x="1184" arabic-form="medial" 
d="M1214 115v-115h-1234v115h826q-4 3 -9 7l-625 551q-33 37 -33 69q0 9 3 18q7 22 72 71q168 129 517 368q134 110 170 176q73 -42 93 -103q3 -10 3 -20q0 -41 -53 -84l-621 -430q81 -86 467 -409q106 -89 214 -104q-25 -73 -61 -110h271z" />
    <glyph glyph-name="uniFEDE" unicode="&#x644;" horiz-adv-x="1413" arabic-form="final" 
d="M1434 0h-199q-43 -223 -187 -355q-154 -142 -389 -142q-273 0 -434 196q-153 185 -153 472v230q0 60 24 84q24 25 72 25t90 -17q-32 -113 -32 -321v-1q0 -553 436 -553q435 0 435 553v1096q0 59 24 84q25 24 73 24q47 0 90 -17q-33 -113 -33 -321l-2 -921h185v-116z" />
    <glyph glyph-name="uniFEDF" unicode="&#x644;" horiz-adv-x="477" arabic-form="initial" 
d="M382 1374q48 0 90 -16q-32 -113 -32 -321v-538q-1 -215 -114 -352q-120 -146 -328 -147h-8v115h8q288 0 288 385v766q0 60 24 84t72 24z" />
    <glyph glyph-name="uniFEE0" unicode="&#x644;" horiz-adv-x="725" arabic-form="medial" 
d="M736 115v-115h-9q-245 1 -364 199q-120 -198 -365 -199h-8v115h8q287 0 288 383v768q0 60 24 84t72 24t90 -16q-32 -113 -32 -321v-538q0 -384 287 -384h9z" />
    <glyph glyph-name="uniFEE2" unicode="&#x645;" horiz-adv-x="1536" arabic-form="final" 
d="M809 116q288 0 288 384q0 172 -67 272q-75 113 -221 113q-143 0 -219 -113q-69 -102 -69 -272q0 -172 66 -272q75 -112 222 -112zM1547 116v-116h-10q-242 0 -363 200q-120 -200 -367 -200q-163 0 -276 97q-106 91 -145 246q-41 -15 -71 -46q-57 -58 -57 -172v-513
q0 -60 -24 -84q-24 -25 -72 -25q-47 0 -90 17q32 114 32 321v339q0 152 77 221t184 69h3q-1 13 -1 32q0 214 115 352q122 146 327 146q207 0 328 -146q114 -137 114 -352v-2q0 -172 66 -272q75 -112 222 -112h8z" />
    <glyph glyph-name="uniFEE3" unicode="&#x645;" horiz-adv-x="1175" arabic-form="initial" 
d="M728 115q288 0 288 385q0 171 -67 272q-75 113 -221 113q-144 0 -220 -113q-68 -102 -68 -272q0 -172 66 -272q75 -113 222 -113zM728 1000q207 0 328 -146q114 -137 114 -353t-114 -354q-121 -147 -330 -147q-243 0 -363 200q-121 -200 -363 -200h-10v115h8
q147 0 221 113q67 100 67 272v1q0 215 115 353q122 146 327 146z" />
    <glyph glyph-name="uniFEE4" unicode="&#x645;" horiz-adv-x="1456" arabic-form="medial" 
d="M728 115q288 0 288 385q0 171 -67 272q-75 113 -221 113q-144 0 -219 -113q-69 -102 -69 -272q0 -172 66 -272q75 -113 222 -113zM1466 115v-115h-10q-242 0 -363 199q-120 -199 -367 -199q-243 0 -363 200q-121 -200 -363 -200h-10v115h8q147 0 221 113q67 100 67 272v1
q0 215 115 353q122 146 327 146q207 0 328 -146q114 -137 114 -353v-1q0 -172 66 -272q75 -113 222 -113h8z" />
    <glyph glyph-name="uniFEE6" unicode="&#x646;" horiz-adv-x="1386" arabic-form="final" 
d="M704 681q-30 -29 -68 -29q-39 0 -67 28t-28 72q0 43 30 72t68 29q39 0 67 -29t28 -71q0 -43 -30 -72zM1396 0h-160q-43 -223 -188 -355q-154 -142 -388 -142q-273 0 -435 196q-152 185 -153 472v230q0 60 24 84q25 25 72 25q48 0 91 -17q-33 -113 -33 -321v-1
q0 -553 436 -553t436 553v574q0 60 24 84t72 24t90 -17q-32 -113 -32 -320v-400h144v-116z" />
    <glyph glyph-name="uniFEE7" unicode="&#x646;" horiz-adv-x="477" arabic-form="initial" 
d="M440 1203q-30 -29 -68 -29q-39 0 -67 28t-28 71t30 73q30 29 68 29q39 0 67 -29q28 -30 28 -72t-30 -71zM382 1000q48 0 90 -17q-32 -113 -32 -321v-163q-1 -215 -114 -352q-120 -146 -328 -147h-8v115h8q288 1 288 385v392q0 60 24 83q24 25 72 25z" />
    <glyph glyph-name="uniFEE8" unicode="&#x646;" horiz-adv-x="725" arabic-form="medial" 
d="M379 1174q-38 0 -66 28q-29 28 -29 71t30 73q31 29 69 29q39 0 67 -29q28 -30 28 -72t-30 -71t-69 -29zM735 115v-115h-8q-245 1 -365 199q-119 -198 -364 -199h-8v115h8q287 1 287 383v394q0 60 25 83q24 25 72 25q47 0 90 -17q-33 -112 -33 -321v-163q1 -383 288 -384
h8z" />
    <glyph glyph-name="uniFEEA" unicode="&#x647;" horiz-adv-x="1241" arabic-form="final" 
d="M801 885h-287q-147 0 -222 -113q-66 -100 -66 -272q0 -170 68 -272q76 -113 220 -113q146 0 221 113q66 101 66 272v385zM1252 115v-115h-10q-242 0 -363 199q-120 -199 -365 -199q-205 0 -327 146q-115 138 -115 352q0 216 114 355q121 147 326 147h444v-500
q0 -172 66 -272q75 -113 221 -113h9z" />
    <glyph glyph-name="uniFEEB" unicode="&#x647;" horiz-adv-x="1132" arabic-form="initial" 
d="M712 315q3 17 3 34q0 56 -33 106q-28 42 -72 54q-16 4 -30 4q-25 0 -45 -13q-30 -20 -39 -48q-4 -18 -4 -36q0 -10 1 -20q10 -61 125 -234q75 53 94 153zM688 1000q207 -2 327 -149q112 -137 112 -353q0 -214 -113 -351q-120 -145 -325 -147h-109l-34 53l-33 -53h-543
v115h540q-122 184 -165 287q-29 68 -29 115q0 48 24 93q25 45 91 89q42 29 98 29q32 0 68 -10q99 -25 166 -126q65 -99 65 -214q0 -36 -6 -74q-18 -97 -97 -187q248 24 248 383q0 385 -288 385h-372q-58 0 -103 -39q-44 45 -44 80q0 10 4 20q24 54 117 54h401z" />
    <glyph glyph-name="uniFEEC" unicode="&#x647;" horiz-adv-x="1311" arabic-form="medial" 
d="M726 315q3 18 3 35q0 56 -33 105q-28 42 -72 54q-16 4 -30 4q-25 0 -45 -13q-31 -20 -39 -48q-5 -17 -5 -35q0 -10 2 -21q11 -61 125 -233q75 52 94 152zM1330 115v-115h-203q-121 0 -216 53q-93 -52 -212 -53h-109l-34 53l-33 -53h-543v115h540q-121 184 -165 287
q-29 68 -29 115t24 93q24 45 91 89q43 28 98 28q32 0 68 -9q99 -25 166 -126q66 -98 66 -213q0 -37 -7 -75q-18 -97 -97 -187q248 24 248 383q0 385 -288 385h-369q-60 0 -106 -39q-44 44 -44 78q0 12 5 22q23 54 116 54h401q207 -2 327 -149q112 -137 112 -352
q0 -245 -142 -384h335z" />
    <glyph glyph-name="uniFEEE" unicode="&#x648;" horiz-adv-x="1189" arabic-form="final" 
d="M859 500q0 172 -67 272q-75 113 -220 113q-144 0 -220 -113q-68 -102 -68 -272q0 -172 66 -272q75 -113 222 -113h287v385zM1219 115v-115h-206q-1 -214 -113 -350q-121 -146 -327 -147h-172q-93 0 -116 55q-4 10 -4 21q0 34 43 78q46 -39 106 -39h142q286 0 287 382
h-289q-205 0 -326 148q-114 138 -114 354q0 214 115 352q122 146 327 146q206 0 327 -146q114 -137 114 -352v-387h206z" />
    <glyph glyph-name="uniFEF0" unicode="&#x649;" horiz-adv-x="1364" arabic-form="final" 
d="M1355 115v-115h-115q-43 -223 -190 -356q-156 -141 -390 -141q-273 0 -435 196q-153 184 -153 471v231q0 59 24 84q24 24 72 24t90 -17q-32 -113 -32 -321v-1q0 -552 436 -552q367 0 424 382h-173q-93 0 -116 54q-4 10 -4 21q0 35 43 78q45 -38 103 -38h416z" />
    <glyph glyph-name="uniFEF2" unicode="&#x64a;" horiz-adv-x="1345" arabic-form="final" 
d="M1355 115v-115h-115q-43 -223 -190 -356q-156 -141 -390 -141q-273 0 -435 196q-153 184 -153 471v231q0 59 24 84q24 24 72 24t90 -17q-32 -113 -32 -321v-1q0 -552 436 -552q367 0 424 382h-173q-93 0 -116 54q-4 10 -4 21q0 35 43 78q45 -38 103 -38h416zM596 -757
q-30 -29 -68 -29q-39 0 -67 28t-28 71t30 73q30 29 69 29q38 0 66 -29t28 -72q0 -42 -30 -71zM859 -757q-30 -29 -69 -29q-38 0 -66 28q-29 28 -29 71t30 73q31 29 69 29t67 -29q28 -30 28 -72t-30 -71z" />
    <glyph glyph-name="uniFEF3" unicode="&#x64a;" horiz-adv-x="618" arabic-form="initial" 
d="M220 -303q-30 -29 -69 -29t-67 28q-28 29 -28 72t30 72t69 29q38 0 66 -29q29 -29 29 -71q0 -43 -30 -72zM482 -303q-30 -29 -68 -29q-39 0 -67 28q-28 29 -28 72t30 72t68 29q39 0 67 -29t28 -71q0 -43 -30 -72zM456 1000q48 0 90 -17q-32 -113 -32 -321v-163
q-1 -215 -114 -352q-120 -146 -328 -147h-92v115h92q288 0 288 385v391q0 60 24 84q24 25 72 25z" />
    <glyph glyph-name="uniFEF4" unicode="&#x64a;" horiz-adv-x="726" arabic-form="medial" 
d="M298 -303q-30 -29 -69 -29q-38 0 -66 28q-28 29 -28 72t30 72t68 29q39 0 67 -29t28 -71q0 -43 -30 -72zM561 -303q-30 -29 -69 -29q-38 0 -67 28q-28 29 -28 72t30 72t69 29q38 0 66 -29q29 -29 29 -71q0 -43 -30 -72zM736 115v-115h-9q-245 1 -364 199
q-120 -198 -365 -199h-8v115h8q287 0 287 383v393q0 60 25 84q24 25 72 25q47 0 90 -17q-32 -113 -32 -321v-163q0 -384 287 -384h9z" />
    <glyph glyph-name=".notdef" horiz-adv-x="1024" 
d="M100 0v1434h824v-1434h-824zM150 50h724v1334h-724v-1334zM325 1148q31 28 58 43q53 30 112 30q92 0 148 -47.5t56 -127.5q0 -49 -23 -98.5t-87 -129.5q-63 -80 -99 -132t-36 -99q0 -38 24 -133h-32q-35 97 -35 148q0 76 81.5 218t81.5 217q0 57 -33 90t-91 33
q-38 0 -69 -17q-26 -15 -56 -40v45zM389 334l57 58q11 10 20 10q10 0 22 -11l56 -60q9 -11 9 -20q0 -11 -10 -22l-56 -62q-14 -14 -21 -14q-11 0 -20 10l-61 71q-7 9 -7 18q0 10 11 22z" />
    <glyph glyph-name=".null" horiz-adv-x="0" 
 />
    <glyph glyph-name=".null" horiz-adv-x="0" 
 />
    <glyph glyph-name="nonmarkingreturn" horiz-adv-x="508" 
 />
    <glyph glyph-name="space" unicode=" " horiz-adv-x="508" 
 />
    <glyph glyph-name="space" unicode="&#xa0;" horiz-adv-x="508" 
 />
    <glyph glyph-name="exclam" unicode="!" horiz-adv-x="637" 
d="M330 -20q-51 0 -88 36.5t-37 92.5q0 55 37 93t88 38t87 -38t36 -93q0 -56 -36 -92.5t-87 -36.5zM244 717q0 516 -37 672q72 14 106 14q97 0 97 -100q0 -58 -18.5 -231t-18.5 -320v-90q0 -164 33 -254q-41 -21 -76 -21q-82 0 -84 98q-2 27 -2 232z" />
    <glyph glyph-name="quotedbl" unicode="&#x22;" horiz-adv-x="707" 
d="M131 1115q0 85 -14.5 189.5t-14.5 133.5q0 28 28 49.5t67 21.5t63.5 -22.5t24.5 -89.5q0 -68 -39 -324q-8 -49 -24.5 -68.5t-43.5 -19.5q-28 0 -53 8q6 37 6 122zM471 1115q0 85 -14.5 189.5t-14.5 133.5q0 28 28 49.5t67 21.5q38 0 63 -22.5t25 -89.5q0 -68 -39 -324
q-8 -49 -24.5 -68.5t-44.5 -19.5t-52 8q6 37 6 122z" />
    <glyph glyph-name="numbersign" unicode="#" 
d="M422 557q190 0 244 2q12 74 30 238q-53 2 -174 2h-63q-27 -150 -37 -242zM1002.5 446.5q-21.5 -10.5 -47.5 -10.5q-27 0 -212 10q-20 -178 -20 -225t8 -121q-29 -16 -65 -16q-62 0 -62 68q0 30 43 299q-53 2 -174 2h-65q-23 -203 -23 -241t8 -112q-28 -16 -65 -16
q-62 0 -62 68q0 30 43 299q-170 -9 -274 -37q-6 20 -6 65q0 82 118 82q117 0 181 -2l30 238q-170 -9 -274 -37q-6 20 -6 67q0 82 129 82l166 -2q30 226 37 342q28 6 55 6q63 0 63 -65q0 -14 -51 -285h234q2 19 18 157t19 187q28 6 55 6q63 0 63 -65q0 -4 -49 -281
q242 11 279 13q-2 -45 -5.5 -69t-27 -47.5t-53.5 -23.5q-31 0 -215 11q-19 -111 -35 -234q186 8 287 14q-5 -63 -14 -89.5t-30.5 -37z" />
    <glyph glyph-name="dollar" unicode="$" 
d="M485 788v461q-84 -10 -136 -66.5t-52 -154.5t48 -150.5t140 -89.5zM565 594v-494q101 6 165.5 69.5t64.5 176.5t-58.5 163t-171.5 85zM803 1090q-29 61 -94.5 104t-143.5 53v-487q213 -60 295 -146t82 -240q0 -155 -101.5 -269.5t-273.5 -122.5q4 -91 8 -138l-30 -4
q-60 0 -60 56v84q-143 4 -251.5 59t-108.5 129q0 41 23.5 62.5t72.5 45.5q31 -65 104.5 -111t159.5 -61v512q-77 25 -124.5 46.5t-102.5 64.5q-108 84 -108 281q0 153 93 245.5t240 112.5q-4 96 -8 141q21 6 35 6q55 0 55 -55v-84q129 0 237.5 -50t108.5 -136
q0 -78 -108 -98z" />
    <glyph glyph-name="percent" unicode="%" horiz-adv-x="1540" 
d="M1438 320q0 -156 -79 -248t-213 -92t-213 92t-79 249q0 156 79 247t213 91t213 -92t79 -247zM1143 82q74 0 117 63.5t43 160.5t-41 175t-113 78t-118 -61.5t-46 -158.5t42 -177t116 -80zM309 51l606 957q156 247 246 409q35 -2 63.5 -20.5t28.5 -41.5q0 -24 -14 -46
l-606 -959q-146 -229 -246 -409q-88 18 -94 61q0 25 16 49zM686 1022q0 -156 -79 -248t-213 -92t-213 92t-79 249t79 248t213 91t213 -92t79 -248zM391 784q74 0 117 63.5t43 161.5q0 97 -41 175t-112 78q-72 0 -118.5 -61.5t-46.5 -158.5q0 -98 42 -178t116 -80z" />
    <glyph glyph-name="ampersand" unicode="&#x26;" horiz-adv-x="1262" 
d="M647 967.5q39 60.5 39 131.5q0 70 -43 121.5t-131 51.5q-193 0 -193 -193q0 -90 121 -295q80 54 124 88.5t83 95zM387 612q-131 -110 -131 -238t86 -204t214 -76t218 66q-211 200 -387 452zM324 709q-146 217 -146 357t99.5 226t246.5 86q146 0 225.5 -76.5t79.5 -183.5
q0 -65 -26.5 -127.5t-58 -102.5t-89.5 -85q-63 -51 -157 -109q176 -256 368 -420q37 80 37 176q0 95 -18 136q45 24 73 24q89 0 89 -121q0 -167 -80 -290q127 -84 229 -84q4 -21 4 -50q0 -30 -24.5 -57.5t-75.5 -27.5q-101 0 -238 104q-137 -104 -317 -104t-311.5 98
t-131.5 272q0 119 58.5 202t163.5 157z" />
    <glyph glyph-name="quotesingle" unicode="'" horiz-adv-x="489" 
d="M152 1115q0 85 -14.5 189.5t-14.5 133.5q0 28 27.5 49.5t66.5 21.5t63.5 -22.5t24.5 -89.5q0 -68 -39 -324q-8 -49 -24.5 -68.5t-43.5 -19.5q-28 0 -53 8q7 37 7 122z" />
    <glyph glyph-name="parenleft" unicode="(" horiz-adv-x="702" 
d="M226 183.5q-42 183.5 -42 357.5t42 354t99.5 308t119 211t99.5 83t70 -47q-127 -143 -204.5 -398t-77.5 -519q0 -265 80 -512.5t202 -389.5q-32 -47 -69 -47t-97.5 81t-120 208t-101.5 310.5z" />
    <glyph glyph-name="parenright" unicode=")" horiz-adv-x="655" 
d="M429 895q42 -180 42 -354t-42 -357.5t-101.5 -310.5t-120 -208t-96.5 -81q-37 0 -70 47q123 142 203 389.5t80 512.5q0 264 -78 519t-205 398q33 47 71 47t99 -83t118.5 -211t99.5 -308z" />
    <glyph glyph-name="asterisk" unicode="*" horiz-adv-x="831" 
d="M412 1085q-33 -45 -156 -256q-39 15 -70.5 43.5t-31.5 58.5t29.5 63.5t79.5 81.5t65 63q-66 28 -256 94q8 47 32.5 85t53.5 38q28 0 50.5 -11.5t77 -48t76.5 -51.5q-4 55 -30 266q35 11 65 11q97 0 97 -80q0 -21 -27 -203q41 27 213 152q59 -52 59 -111q0 -43 -47 -68
q-57 -30 -194 -79q45 -48 213 -195q-47 -84 -113 -84q-27 0 -51.5 27.5t-70.5 101.5t-64 102z" />
    <glyph glyph-name="plus" unicode="+" 
d="M621 911l-15 -338q242 0 383 17q6 -19 6 -58q0 -40 -20.5 -65t-52.5 -25l-318 15q0 -224 17 -404q-31 -6 -64 -6t-58.5 19.5t-25.5 54.5l14 338q-202 -2 -381 -17q-6 31 -6 63t18.5 58.5t55.5 26.5l315 -15q0 263 -16 404q19 6 59 6q39 0 64 -20.5t25 -53.5z" />
    <glyph glyph-name="comma" unicode="," horiz-adv-x="465" 
d="M219 -45q0 100 -100 121q-21 33 -21 72q0 38 35 68t86 30t89 -47t38 -161t-70.5 -222.5t-166.5 -108.5q-54 0 -54 62q0 16 2 24h11q65 0 108 49t43 113z" />
    <glyph glyph-name="hyphen" unicode="-" horiz-adv-x="471" 
d="M125 602l170 -8q96 0 160 14q6 -18 6 -57t-20.5 -61.5t-53.5 -22.5l-158 10q-96 0 -172 -16q-6 31 -6 63q0 31 17.5 54.5t56.5 23.5z" />
    <glyph glyph-name="period" unicode="." horiz-adv-x="473" 
d="M228 -20q-52 0 -89 36.5t-37 92.5q0 55 37 93t89 38q51 0 86.5 -38t35.5 -93q0 -56 -35.5 -92.5t-86.5 -36.5z" />
    <glyph glyph-name="slash" unicode="/" horiz-adv-x="528" 
d="M264 231q-45 -299 -61 -475q-27 -6 -49 -6q-68 0 -68 57q0 15 193 1231q45 299 61 475l43 7q74 0 74 -56z" />
    <glyph glyph-name="zero" unicode="0" 
d="M547 -20q-223 0 -354.5 189t-131.5 510q0 320 131.5 509.5t354.5 189.5t355 -189.5t132 -508.5q0 -320 -132 -510t-355 -190zM877 643q0 332 -148 516q-76 98 -182 98q-144 0 -238 -149.5t-94 -366.5q0 -352 145 -540q78 -101 185 -101q149 0 240.5 156t91.5 387z" />
    <glyph glyph-name="one" unicode="1" 
d="M502 117l4 608q0 289 -6 516q-221 -22 -256 -29q-6 25 -6 45q0 78 79 89q220 32 256 32q89 0 89 -78q0 -16 -5 -118q-12 -308 -12 -545v-127q0 -268 14 -399q142 0 213 8q9 -25 9 -45q0 -78 -80 -78l-328 4q-156 0 -219 -2q-10 31 -10 49q0 70 118 70h140z" />
    <glyph glyph-name="two" unicode="2" 
d="M195 1081q-78 11 -78 68q0 80 128 154.5t283 74.5q154 0 269.5 -98t115.5 -276q0 -107 -32.5 -197t-119.5 -196.5t-197.5 -210t-311.5 -271.5q70 -4 234 -4q163 0 263.5 10t200.5 47q29 -51 29 -95t-51 -62q-78 -29 -353 -29q-276 0 -397 4q-94 0 -94 96q0 19 2 27
q418 387 546 540.5t128 294.5q0 140 -74 218.5t-170 78.5t-182 -48t-139 -126z" />
    <glyph glyph-name="three" unicode="3" 
d="M666 745q149 -65 204.5 -151t55.5 -205q0 -166 -129 -287.5t-355 -121.5q-153 0 -231 38.5t-78 87.5q0 66 76 76q70 -82 231 -82q160 0 244 85t84 200t-98.5 199t-272.5 84q-30 0 -45 4q-35 6 -35 67q0 17 2 29q203 0 304.5 81t101.5 180t-59.5 163.5t-144.5 64.5
t-156.5 -40.5t-116.5 -118.5q-39 0 -63.5 20.5t-24.5 46.5q0 72 112.5 142.5t267.5 70.5q154 0 248.5 -93t94.5 -222q0 -96 -54.5 -180t-162.5 -138z" />
    <glyph glyph-name="four" unicode="4" 
d="M236 559q106 -6 224 -6t228 6q0 277 6 627q-86 -94 -217 -273.5t-241 -353.5zM678 1354q29 24 80 24t88 -4q0 -6 -6 -90q-13 -219 -13 -536v-183q152 13 201 35q16 -37 16 -88t-44 -66.5t-171 -17.5q0 -303 39 -432q-37 -16 -90 -16t-73.5 26.5t-20.5 100.5q0 73 4 319
q-434 0 -551 14q-47 6 -47 84q0 29 4 58q88 151 291 421.5t293 350.5z" />
    <glyph glyph-name="five" unicode="5" 
d="M885 1303q0 -91 -159 -91t-380 13l-29 -359q78 13 146 13q225 0 341 -116t116 -312q0 -197 -129 -334t-357 -137q-153 0 -231 38.5t-78 87.5q0 66 76 76q69 -82 230 -82t246 99.5t85 232.5t-98.5 231.5t-268.5 98.5q-88 0 -170 -10q-20 20 -20 74q0 53 26 534
q60 -4 306 -4q245 0 327 16q21 -31 21 -69z" />
    <glyph glyph-name="six" unicode="6" 
d="M819 396q0 126 -74.5 207t-204.5 81t-266 -123q7 -334 144 -422q59 -39 145 -39q121 0 188.5 85t67.5 211zM547 -20q-121 0 -207 49t-131 135q-88 162 -88 399q0 316 168 559q80 115 207 185.5t278 70.5q84 0 84 -71q0 -23 -8 -60q-57 8 -82 8q-219 0 -346 -167.5
t-146 -411.5q146 125 312 125t277.5 -104.5t111.5 -277.5t-118 -306t-312 -133z" />
    <glyph glyph-name="seven" unicode="7" 
d="M842 1223q-314 -11 -578 -11q-155 0 -155 91q0 28 20 69q100 -16 229 -16q516 0 621 4q16 -33 16 -75t-12 -79q-65 -205 -547 -1085q-41 -76 -72.5 -108.5t-66.5 -32.5q-59 0 -131 79q174 183 382 554.5t294 609.5z" />
    <glyph glyph-name="eight" unicode="8" 
d="M569 815q201 86 201 266q0 84 -68.5 130t-164.5 46q-97 0 -164.5 -46t-67.5 -130q0 -159 264 -266zM256 368q0 -114 77 -191t205 -77t203.5 77t75.5 189q0 111 -75.5 183t-235.5 141q-125 -55 -187.5 -132t-62.5 -190zM539 -20q-209 0 -323 108.5t-114 261.5
q0 152 77 243t214 150q-123 68 -180 144t-57 203t111.5 207.5t269.5 80.5q157 0 270 -80.5t113 -210.5q0 -221 -248 -325q151 -72 227 -165t76 -246q0 -154 -113.5 -262.5t-322.5 -108.5z" />
    <glyph glyph-name="nine" unicode="9" 
d="M248 964q0 -126 74.5 -207t204.5 -81t266 123q-7 334 -146 422q-57 39 -143 39q-121 0 -188.5 -85t-67.5 -211zM520 1380q121 0 207 -49t133 -135q86 -162 86 -399q0 -316 -168 -559q-80 -115 -207 -185.5t-278 -70.5q-84 0 -84 71q0 23 8 60q57 -9 82 -9q219 0 346 168
t146 412q-146 -125 -312 -125t-277.5 104.5t-111.5 277.5t118 306t312 133z" />
    <glyph glyph-name="colon" unicode=":" horiz-adv-x="473" 
d="M228 -20q-52 0 -89 36.5t-37 92.5q0 55 37 93t89 38q51 0 86.5 -38t35.5 -93q0 -56 -35.5 -92.5t-86.5 -36.5zM228 719q-52 0 -89 37t-37 92t37 93t89 38q51 0 86.5 -38t35.5 -93t-35.5 -92t-86.5 -37z" />
    <glyph glyph-name="semicolon" unicode=";" horiz-adv-x="504" 
d="M221 719q-51 0 -88 37t-37 92t37 93t88 38t87 -38t36 -93t-36 -92t-87 -37zM219 -45q0 100 -100 121q-21 33 -21 72q0 38 35 68t86 30t89 -47t38 -161t-70.5 -222.5t-166.5 -108.5q-54 0 -54 62q0 16 2 24h11q65 0 108 49t43 113z" />
    <glyph glyph-name="less" unicode="&#x3c;" 
d="M817 897l-444 -383q76 -76 444 -408q-37 -69 -100 -69q-29 0 -51 22l-449 455l449 430q26 23 54 23t55.5 -21.5t41.5 -48.5z" />
    <glyph glyph-name="equal" unicode="=" 
d="M881 238l-320 16q-233 0 -414 -16q-6 30 -6 62t18.5 58.5t55.5 26.5q6 0 129 -7t301 -7t303 14q6 -18 6 -58t-20.5 -64.5t-52.5 -24.5zM881 647l-320 17q-233 0 -414 -17q-6 31 -6 63q0 31 18.5 58t55.5 27q6 0 129 -7.5t301 -7.5t303 15q6 -19 6 -59t-20.5 -64.5
t-52.5 -24.5z" />
    <glyph glyph-name="greater" unicode="&#x3e;" 
d="M690 514l-444 383q14 27 41.5 48.5t55.5 21.5t54 -23l449 -430l-449 -455q-22 -22 -51 -22q-63 0 -100 69q368 332 444 408z" />
    <glyph glyph-name="question" unicode="?" horiz-adv-x="782" 
d="M449 408q-43 -21 -78 -21q-95 0 -95 139q0 123 111 248q45 51 92 103q111 124 111 256q0 86 -72 129q-43 24 -112 24q-70 0 -140.5 -42t-89.5 -111q-94 14 -94 90q0 82 90 130t222 48t224 -55q123 -72 123 -218q0 -92 -32.5 -165.5t-78.5 -120.5t-93 -90
q-111 -105 -111 -215q0 -62 23 -129zM373 -20q-51 0 -88 36.5t-37 92.5q0 55 37 93t88 38t87 -38t36 -93q0 -56 -36 -92.5t-87 -36.5z" />
    <glyph glyph-name="at" unicode="@" horiz-adv-x="1763" 
d="M743 111q-100 0 -163.5 74.5t-63.5 215.5q0 209 108.5 357.5t277.5 148.5t298 -94q-76 -303 -76 -461q0 -112 81 -112t156 108.5t75 307.5q0 198 -114 318t-349 120q-191 0 -344.5 -112t-230 -274.5t-76.5 -349.5q0 -188 119.5 -322t353.5 -134q112 0 205.5 45t125.5 119
q88 -37 88 -99q0 -80 -123.5 -135t-289.5 -55q-303 0 -461 170t-158 422q0 149 57.5 296.5t159 269.5t260 197.5t345.5 75.5q264 0 419.5 -146.5t155.5 -370.5t-134 -387t-271 -163q-138 0 -177 158q-104 -188 -254 -188zM985 418q8 53 21.5 165.5t17.5 145.5
q-70 57 -155 57t-147.5 -94t-62.5 -248q0 -90 31 -149t84 -59t110.5 47t100.5 135z" />
    <glyph glyph-name="A" unicode="A" horiz-adv-x="1128" 
d="M795 549q-70 182 -211 616q-19 -47 -94.5 -262t-133.5 -354q160 -4 269 -4q108 0 170 4zM838 428q-230 -4 -279 -4t-254 4q-137 -346 -172 -471q-67 14 -95 32.5t-28 46.5q0 27 88 232q295 695 408 1084q39 6 88 6t69.5 -17.5t43.5 -91.5q129 -415 259 -754t199 -475
q-57 -40 -98 -40q-66 0 -88 55q-39 100 -141 393z" />
    <glyph glyph-name="B" unicode="B" horiz-adv-x="1120" 
d="M459 1253q-49 0 -140 -8q9 -172 9 -461q65 -4 112 -4q381 0 381 234q0 239 -362 239zM557 104q133 0 223 75t90 211t-101 212t-241 76q-141 0 -202 -10q0 -164 -27 -490q39 -31 113.5 -52.5t144.5 -21.5zM141 109q33 233 33 649t-27 596q152 24 351 24q198 0 339.5 -82
t141.5 -278q0 -197 -178 -277q227 -96 227 -350q0 -194 -126 -302.5t-308 -108.5q-297 0 -453 129z" />
    <glyph glyph-name="C" unicode="C" horiz-adv-x="1233" 
d="M1053 274q90 -36 90 -105t-117 -129t-289 -60q-288 0 -462.5 193.5t-174.5 514.5q0 320 174.5 505t470.5 185q160 0 268.5 -64.5t108.5 -158.5q0 -84 -116 -102q-39 100 -123 150t-178 50q-193 0 -315 -152.5t-122 -396.5q0 -245 123 -422.5t344 -177.5q99 0 184 43
t134 127z" />
    <glyph glyph-name="D" unicode="D" horiz-adv-x="1300" 
d="M135 109q29 186 31 616v58q0 386 -25 571q123 24 300 24t304 -34.5t232.5 -111.5t164 -216t58.5 -334q0 -307 -164 -504.5t-454 -197.5q-291 0 -447 129zM313 1245q9 -141 9 -464q0 -324 -29 -603q110 -74 256 -74q145 0 239.5 49.5t145.5 133.5q94 155 94 354
q0 305 -151.5 458.5t-432.5 153.5q-45 0 -131 -8z" />
    <glyph glyph-name="E" unicode="E" horiz-adv-x="995" 
d="M160 117l4 342v409q0 293 -29 478q219 18 481 18q261 0 297 -31q19 -16 19 -59t-17 -84q-116 43 -380 43q-109 0 -226 -6q8 -90 8 -434h162q172 0 246 8q8 -17 8 -59t-21.5 -58t-71.5 -18t-142 -2h-181q0 -447 15 -537q90 -4 145 -4q344 0 441 47q16 -41 16 -84t-19 -59
q-36 -31 -314 -31q-279 0 -339.5 3t-81 29.5t-20.5 88.5z" />
    <glyph glyph-name="F" unicode="F" horiz-adv-x="932" 
d="M160 111l4 362v395q0 293 -29 478q219 18 481 18q261 0 297 -31q19 -16 19 -59t-17 -84q-116 43 -380 43q-109 0 -226 -6q8 -90 8 -244v-211h162q170 0 246 8q8 -16 8 -64t-32.5 -60.5t-151.5 -12.5h-232v-227q0 -277 39 -406q-37 -16 -96 -16t-79.5 26.5t-20.5 90.5z
" />
    <glyph glyph-name="G" unicode="G" horiz-adv-x="1260" 
d="M1143 174q0 -74 -117 -134t-289 -60q-288 0 -462.5 193.5t-174.5 514.5q0 320 174.5 505t470.5 185q160 0 268.5 -64.5t108.5 -158.5q0 -84 -116 -102q-39 100 -123 150t-178 50q-193 0 -315 -152.5t-122 -396.5q0 -245 123 -422.5t342 -177.5q164 0 264 99
q-4 256 -14 413q35 7 74 7q100 0 100 -78l-6 -131q-8 -131 -8 -240z" />
    <glyph glyph-name="H" unicode="H" horiz-adv-x="1284" 
d="M145 111l5 362v410q0 288 -15 475q35 6 84 6q100 0 100 -78q0 -10 -4 -82q-12 -219 -12 -403q98 -4 327 -4q228 0 326 4v104q-2 295 -14 453q35 6 84 6q100 0 100 -78q0 -12 -4 -82q-12 -213 -12 -377v-411q0 -277 39 -406q-37 -16 -96 -16q-60 0 -80.5 26.5t-20.5 90.5
l4 362v207q-104 -4 -329 -4q-226 0 -324 4v-264q0 -277 39 -406q-37 -16 -96 -16q-60 0 -80.5 26.5t-20.5 90.5z" />
    <glyph glyph-name="I" unicode="I" horiz-adv-x="453" 
d="M145 111l5 362v410q0 288 -15 475q35 6 84 6q100 0 100 -78q0 -12 -4 -82q-12 -213 -12 -377v-411q0 -277 39 -406q-37 -16 -96 -16q-60 0 -80.5 26.5t-20.5 90.5z" />
    <glyph glyph-name="J" unicode="J" horiz-adv-x="455" 
d="M152 279l-2 604q0 288 -15 475q35 6 84 6q100 0 100 -78q0 -10 -4 -76q-12 -196 -12 -348v-635q0 -112 -24.5 -200t-60.5 -137.5t-79 -82.5q-73 -51 -133 -51q-76 0 -84 117q119 25 178 86q43 45 50 182q2 45 2 138z" />
    <glyph glyph-name="K" unicode="K" horiz-adv-x="1055" 
d="M145 111l5 362v410q0 288 -15 475q41 6 70 6q114 0 114 -78q0 -10 -4 -88q-12 -233 -12 -432q176 141 344 312t205 282q106 -19 106 -78t-143 -210.5t-336 -313.5q228 -379 375 -559q25 -31 39 -43q45 -43 106 -43q25 0 48 6q8 -29 8 -61q0 -33 -35 -55.5t-86 -22.5
q-88 0 -184 104q-86 92 -166 213t-145.5 223.5t-86.5 132.5q-35 -26 -49 -37v-200q0 -277 39 -406q-33 -16 -94 -16q-62 0 -82.5 27.5t-20.5 89.5z" />
    <glyph glyph-name="L" unicode="L" horiz-adv-x="879" 
d="M145 117l5 342v424q0 288 -15 475q35 6 84 6q100 0 100 -78q0 -12 -4 -82q-12 -213 -12 -377v-184q0 -426 14 -516q86 -4 136 -4q319 0 411 47q15 -43 15 -85t-19 -58q-35 -31 -297 -31t-320.5 3t-78 29.5t-19.5 88.5z" />
    <glyph glyph-name="M" unicode="M" horiz-adv-x="1632" 
d="M170 111l4 362v516q0 230 -39 361q66 16 119 16q86 0 145 -98q80 -140 162 -340.5t128 -338.5t130 -401q64 254 171.5 549t240.5 531q55 98 149 98q70 0 115 -16q-37 -123 -37 -457v-477q0 -277 39 -406q-37 -16 -96 -16q-60 0 -80.5 26.5t-20.5 65.5t3 168q2 387 2 889
q-189 -379 -412 -1139q-25 -8 -55 -8q-80 0 -103 53q-49 111 -185 493t-243 597v-723q0 -277 39 -406q-37 -16 -86 -16t-69.5 26.5t-20.5 90.5z" />
    <glyph glyph-name="N" unicode="N" horiz-adv-x="1288" 
d="M993 244q-12 147 -12 516v123q0 288 -14 475q34 6 63 6q100 0 100 -78q0 -12 -4 -82q-12 -213 -12 -377v-350q0 -289 14 -475q-32 -8 -67 -8q-70 0 -107 55q-84 129 -290.5 494.5t-354.5 586.5q-2 -77 -2 -714q0 -277 39 -406q-37 -16 -86 -16t-69.5 26.5t-20.5 90.5
l4 362v410q0 342 -39 467q39 16 88 16t72 -14q88 -54 313.5 -427.5t384.5 -680.5z" />
    <glyph glyph-name="O" unicode="O" horiz-adv-x="1458" 
d="M1358 680q0 -320 -171 -510t-459 -190t-458 190t-170 510q0 319 170 508.5t458 189.5t459 -189.5t171 -508.5zM1083 1055q-51 90 -143 144t-211 54q-211 0 -336 -144t-125 -368q0 -243 103 -432q51 -94 142 -149.5t212 -55.5q221 0 341 148.5t120 385.5q0 236 -103 417z
" />
    <glyph glyph-name="P" unicode="P" horiz-adv-x="1032" 
d="M315 674q91 -51 218 -51q126 0 205 80.5t79 218.5q0 188 -88 259.5t-274 71.5q-54 0 -148 -8q8 -119 8 -418v-153zM158 111l4 362v410q0 282 -27 471q152 24 305 24q549 0 549 -442q0 -213 -128 -325.5t-286 -112.5q-159 0 -260 65v-147q0 -277 39 -406q-37 -16 -96 -16
t-79.5 26.5t-20.5 90.5z" />
    <glyph glyph-name="Q" unicode="Q" horiz-adv-x="1458" 
d="M1083 1055q-51 90 -143 144t-211 54q-211 0 -336 -144t-125 -368q0 -243 103 -432q51 -94 142 -149.5t212 -55.5q221 0 341 148.5t120 385.5q0 236 -103 417zM666 -18q-260 20 -413 207.5t-153 498.5t170 500.5t458 189.5t459 -189.5t171 -499.5t-152.5 -496.5
t-412.5 -208.5q24 -90 86.5 -135.5t145.5 -45.5t126 16.5t100 61.5q21 -12 40.5 -43t19.5 -51q0 -51 -83 -80t-188 -29q-149 0 -248.5 82t-125.5 222z" />
    <glyph glyph-name="R" unicode="R" horiz-adv-x="1085" 
d="M158 111l4 362v410q0 282 -27 471q152 24 305 24q549 0 549 -407q0 -168 -92 -271.5t-244 -132.5q0 -2 35 -75.5t48.5 -98t41.5 -80.5q53 -102 92 -141q54 -59 131 -59q25 0 56 6q18 -37 18 -62q0 -77 -153 -77q-84 0 -156 81q-39 45 -66.5 80t-67.5 109t-56.5 105.5
t-55.5 116.5t-45 97q-57 9 -57 45q0 19 10 56q57 -11 96 -11q138 0 215.5 81t77.5 233q0 151 -86 215.5t-264 64.5q-66 0 -160 -8q8 -119 8 -418v-411q0 -277 39 -406q-37 -16 -96 -16t-79.5 26.5t-20.5 90.5z" />
    <glyph glyph-name="S" unicode="S" horiz-adv-x="1061" 
d="M821 1092q-35 67 -125 111t-190 44t-171 -57t-71 -154q0 -98 52.5 -152.5t130 -76t170 -52t170 -63.5t130 -112.5t52.5 -192.5t-41 -193.5t-111 -125.5q-135 -88 -308 -88t-295 56t-122 136q0 47 51 80q17 10 54 29q39 -76 140 -124t211 -48q109 0 191 62t82 169
q0 106 -72.5 162.5t-176 85t-207 63.5t-176 118t-72.5 220q0 189 124 289t316 100q141 0 261 -49t120 -135q0 -82 -117 -102z" />
    <glyph glyph-name="T" unicode="T" horiz-adv-x="952" 
d="M397 111l4 362v410q0 190 -6 350q-291 0 -389 -8q-6 18 -6 57t21.5 53.5t70.5 16.5t217 2h242q323 0 395 6q6 -19 6 -56q0 -38 -21.5 -52.5t-76.5 -16.5t-285 -2q-14 -293 -14 -406v-411q0 -277 39 -406q-37 -16 -96 -16q-60 0 -80.5 26.5t-20.5 90.5z" />
    <glyph glyph-name="U" unicode="U" horiz-adv-x="1319" 
d="M164 393l18 633q0 195 -35 322q41 16 97 16q55 0 82.5 -23.5t27.5 -96.5t-15 -373t-15 -454q0 -155 82.5 -230.5t187.5 -75.5q104 0 215 49t180 114l2 263v346q0 288 -14 475q35 6 84 6q100 0 100 -78q0 -4 -4 -76q-12 -215 -12 -555t6 -447.5t33 -197.5q-37 -16 -95 -16
q-59 0 -80.5 25.5t-21.5 95.5v22q-82 -69 -196.5 -113t-210.5 -44q-193 0 -304.5 91t-111.5 322z" />
    <glyph glyph-name="V" unicode="V" horiz-adv-x="1143" 
d="M948 1366q58 12 96 12q78 0 78 -100q0 -225 -143 -603t-293 -569q-51 -67 -86 -89.5t-69 -22.5q-35 0 -80 4q-66 330 -223.5 756t-268.5 534q86 76 149 76q62 0 99 -88q80 -182 188.5 -518t169.5 -584q121 135 256 494.5t135 595.5q0 73 -8 102z" />
    <glyph glyph-name="W" unicode="W" horiz-adv-x="1929" 
d="M1714 1366q58 12 94 12q80 0 80 -88q0 -237 -134 -613t-279 -571q-52 -67 -83.5 -89.5t-66.5 -22.5t-76 4q-80 430 -256 903q-65 -227 -162.5 -449.5t-169 -317.5t-103.5 -117.5t-65 -22.5q-34 0 -75 4q-60 328 -208.5 755t-250.5 535q84 76 147 76q62 0 99 -88
q76 -178 172 -510t155 -592q111 133 234 492.5t123 595.5q0 73 -8 104q57 12 94 12q80 0 80 -88q0 -59 -11 -116q136 -213 320 -1000q111 135 234.5 493.5t123.5 594.5q0 73 -8 104z" />
    <glyph glyph-name="X" unicode="X" horiz-adv-x="1180" 
d="M51 88q0 121 455 619q-301 483 -445 575q78 96 152 96q43 0 104 -86q132 -188 297 -463q115 140 205 300.5t103 246.5q145 -28 145 -114q0 -56 -119 -225t-260 -328q320 -545 479 -641q-77 -88 -133 -88q-57 0 -114 79q-121 160 -340 525q-117 -113 -238 -301.5
t-149 -302.5q-142 26 -142 108z" />
    <glyph glyph-name="Y" unicode="Y" horiz-adv-x="1026" 
d="M1016 1284q0 -51 -155.5 -289.5t-272.5 -378.5v-174q0 -299 39 -432q-37 -16 -96 -16q-60 0 -80.5 26.5t-20.5 90.5q2 188 4 364v127q-297 559 -454 666q30 41 44.5 53t28.5 25q25 20 56 20q51 0 98 -70q123 -178 328 -557q98 129 209.5 345t115.5 292q156 -10 156 -92z
" />
    <glyph glyph-name="Z" unicode="Z" 
d="M1022 1327q33 -37 33 -84t-35 -92l-827 -1034q73 -8 165 -8q398 0 648 65q20 -53 20 -93t-35 -56q-78 -37 -397 -37q-320 0 -504 24q-37 49 -37 109q0 59 51 123l773 985q-97 12 -250 12q-289 0 -512 -55q-21 49 -21 86q0 57 60 74q86 20 362 20q275 0 506 -39z" />
    <glyph glyph-name="bracketleft" unicode="[" horiz-adv-x="778" 
d="M442 1360v-1634q78 4 147 4q68 0 87.5 -17.5t19.5 -48.5t-8 -53h-381v1864h381q8 -17 8 -54q0 -65 -89 -65t-165 4z" />
    <glyph glyph-name="backslash" unicode="\" horiz-adv-x="528" 
d="M264 231q-192 1203 -192 1233q0 56 73 56q25 0 43 -7q17 -176 62 -475q192 -1216 192 -1231q0 -57 -67 -57q-23 0 -49 6q-17 176 -62 475z" />
    <glyph glyph-name="bracketright" unicode="]" horiz-adv-x="717" 
d="M315 -274v1634q-75 -4 -142 -4t-89.5 15t-22.5 50t9 54h381v-1864h-381q-9 22 -9 53q0 66 89 66q88 0 165 -4z" />
    <glyph glyph-name="asciicircum" unicode="^" horiz-adv-x="963" 
d="M483 1192q-315 -338 -377 -338q-22 0 -55 33q47 80 193.5 243.5t236.5 251.5q90 -88 236.5 -251.5t193.5 -243.5q-32 -33 -48 -33q-17 0 -39.5 13.5t-52.5 39t-58.5 51t-65.5 63.5t-60.5 62.5t-58 61.5t-45.5 47z" />
    <glyph glyph-name="underscore" unicode="_" 
d="M1022 -311l-309 16h-293q-234 0 -414 -16q-6 30 -6 62t18.5 58.5t55.5 26.5q6 0 129 -7t213 -7h291q260 0 383 14q6 -18 6 -58t-20.5 -64.5t-53.5 -24.5z" />
    <glyph glyph-name="grave" unicode="`" horiz-adv-x="412" 
d="M-31 1438q76 -84 160 -148.5t121 -94.5t37 -60q0 -31 -33 -60q-57 43 -156.5 98.5t-149.5 92.5t-50 84t71 88z" />
    <glyph glyph-name="a" unicode="a" horiz-adv-x="950" 
d="M803 639l-4 -277q0 -235 39 -352q-33 -16 -79 -16t-64.5 21.5t-24.5 68.5q-127 -104 -262 -104q-316 0 -316 288q0 105 49 154t135 74q154 41 390 55q0 174 -43 240.5t-183 66.5q-57 0 -118.5 -37t-92.5 -106q-94 18 -94 82q0 80 98.5 128t252.5 48q153 0 235 -73
t82 -261zM664 446q-60 -6 -89.5 -10t-80 -10t-75 -12t-60 -16.5t-53 -23t-36.5 -26.5q-34 -29 -34 -80q0 -92 53 -136t135 -44q139 0 235 92q-2 29 -2 105q0 75 7 161z" />
    <glyph glyph-name="b" unicode="b" horiz-adv-x="1040" 
d="M285 864q149 109 313 109t263.5 -116t99.5 -343t-111 -380.5t-328 -153.5t-381 139q15 123 15 373q0 249 -10.5 597.5t-22.5 426.5q24 6 74 6q92 0 92 -78q0 -27 -2 -270.5t-2 -309.5zM287 750l2 -304q0 -163 -6 -245q120 -107 261 -107q140 0 206.5 118t66.5 291
t-73.5 264t-184.5 91q-147 0 -272 -108z" />
    <glyph glyph-name="c" unicode="c" horiz-adv-x="915" 
d="M535 94q61 0 124.5 26.5t90.5 80.5q81 -33 81 -82q0 -68 -93 -103.5t-210 -35.5q-186 0 -311 121.5t-125 363.5q0 129 41 230.5t109 160.5q137 117 301 117q104 0 198.5 -47t94.5 -133q0 -74 -99 -88q-20 73 -86.5 113t-140.5 40q-115 0 -193.5 -101.5t-78.5 -285.5
t82.5 -280.5t214.5 -96.5z" />
    <glyph glyph-name="d" unicode="d" horiz-adv-x="1057" 
d="M913 1444l-18 -987q0 -342 39 -447q-33 -16 -78 -16q-86 0 -90 102q-123 -116 -277 -116q-155 0 -276 140t-121 359t126 356.5t304 137.5q123 0 238 -70q4 131 4 298t-16 315q32 6 73 6q92 0 92 -78zM756 797q-109 61 -211 61q-144 0 -226.5 -97t-82.5 -268t86 -288
t208 -117q121 0 230 117q-4 528 -4 592z" />
    <glyph glyph-name="e" unicode="e" horiz-adv-x="963" 
d="M549 973q143 0 232 -81t89 -175t-28.5 -147.5t-74.5 -84t-132 -47.5q-131 -24 -393 -24q16 -148 88.5 -234t216.5 -86q143 0 203 107q81 -33 81 -90q0 -58 -93 -94.5t-208 -36.5q-192 0 -315 121.5t-123 366.5t136.5 375t320.5 130zM541 860q-123 0 -210 -84t-91 -260
q292 0 389 43q41 19 70.5 53.5t29.5 93.5q0 58 -54 106t-134 48z" />
    <glyph glyph-name="f" unicode="f" horiz-adv-x="621" 
d="M172 100l4 738q-67 0 -160 -11q-6 21 -6 56q0 57 76 65q45 4 90 4q0 308 90 416q82 96 246 96q74 0 127 -22.5t53 -61.5t-41 -94q-69 64 -171 64q-103 0 -136 -72t-33 -229v-97q199 0 279 9q8 -17 8 -53t-21.5 -50t-78 -16t-187.5 -2v-426q0 -273 39 -404
q-37 -16 -86 -16t-70.5 24.5t-21.5 81.5z" />
    <glyph glyph-name="g" unicode="g" horiz-adv-x="1061" 
d="M291 -76q-76 -112 -76 -192q0 -133 248 -133q180 0 274 57t94 133t-38.5 100.5t-120.5 24.5h-211q-117 0 -170 10zM486 356q124 0 181.5 57.5t57.5 173.5q0 115 -66.5 193t-181.5 78q-244 0 -244 -233q0 -117 64.5 -193t188.5 -76zM479 242q-61 0 -112 12
q-31 -37 -54.5 -84t-23.5 -72q0 -51 135 -51h235q304 0 304 -219q0 -154 -148.5 -249t-348.5 -95t-297 69.5t-97 180.5q0 110 135 217q-62 45 -62 94q0 78 142 236q-197 88 -197 325q0 156 110.5 261.5t271.5 105.5t263 -80q86 115 185 115q41 0 70.5 -18.5t29.5 -50.5
t-16 -75q-17 4 -72 4t-131 -41q67 -94 67 -221q0 -168 -114.5 -266t-274.5 -98z" />
    <glyph glyph-name="h" unicode="h" horiz-adv-x="1034" 
d="M731 98l12 551q0 92 -55 150.5t-121 58.5q-67 0 -151 -38t-137 -97q-9 -291 -9 -424t15 -297q-33 -6 -70 -6q-92 0 -92 78q0 16 4 180q16 487 16 810q0 322 -16 452q33 6 74 6q92 0 92 -75t-14 -601q147 127 329 127q277 0 277 -320l-8 -334q0 -188 34 -309
q-41 -16 -87 -16t-69.5 23.5t-23.5 80.5z" />
    <glyph glyph-name="i" unicode="i" horiz-adv-x="436" 
d="M145 111l5 362q0 293 -15 479q33 6 70 6q96 0 96 -77q0 -11 -4 -82q-12 -219 -12 -439q0 -221 39 -350q-37 -16 -87 -16q-51 0 -71.5 26.5t-20.5 90.5zM319 1177q0 -47 -32.5 -78.5t-74.5 -31.5t-72.5 30.5t-30.5 78.5q0 47 32.5 78.5t74.5 31.5t72.5 -31.5t30.5 -77.5z
" />
    <glyph glyph-name="j" unicode="j" horiz-adv-x="461" 
d="M170 -162l-6 635q0 293 -14 479q32 6 69 6q96 0 96 -77q0 -9 -4 -70q-12 -188 -12 -422l8 -536q0 -181 -90 -276t-258 -95q-94 0 -164.5 30.5t-70.5 76.5t53 85q84 -86 211 -86q82 0 132 59.5t50 190.5zM338 1177q0 -47 -33 -78.5t-75 -31.5t-72.5 30.5t-30.5 78.5
q0 47 33 78.5t75 31.5q41 0 72 -31.5t31 -77.5z" />
    <glyph glyph-name="k" unicode="k" horiz-adv-x="977" 
d="M135 100l4 586v238q0 483 -16 592q33 6 72 6q94 0 94 -78q0 -8 -2 -94q-13 -316 -13 -514q146 137 314 137q133 0 202.5 -73t69.5 -188q0 -116 -76.5 -207t-214.5 -106q109 -180 163 -236.5t118 -56.5q33 0 53 9q19 -37 19 -67t-43 -49t-82 -19q-80 0 -148 73
q-67 74 -114.5 153t-78 130t-40.5 70q-54 6 -54 43q0 22 11 49q65 -15 104 -15q113 0 174.5 62.5t61.5 138.5t-42 125t-114 49t-149.5 -42t-133.5 -105v-297q0 -273 39 -404q-37 -16 -86 -16t-70.5 24.5t-21.5 81.5z" />
    <glyph glyph-name="l" unicode="l" horiz-adv-x="436" 
d="M135 100l4 586v238q0 483 -16 592q33 6 72 6q94 0 94 -78q0 -8 -2 -109q-13 -372 -13 -602v-319q0 -273 39 -404q-37 -16 -86 -16t-70.5 24.5t-21.5 81.5z" />
    <glyph glyph-name="m" unicode="m" horiz-adv-x="1583" 
d="M1280 98l12 531q0 116 -48 172.5t-126 56.5q-119 0 -254 -108q4 -279 4 -444t13 -304q-33 -6 -70 -6q-92 0 -92 78q0 8 2 82q8 176 8 473q0 229 -180 229q-117 0 -252 -113q4 -278 4 -441t12 -302q-32 -6 -69 -6q-92 0 -92 78q0 8 5 150.5t5 283.5q0 336 -39 434
q41 16 74 16q94 0 94 -102q63 51 151 84t170 33q168 0 228 -133q55 55 154.5 94t198.5 39t169 -68.5t70 -220.5l-7 -365q0 -188 35 -309q-41 -16 -87 -16t-69.5 23.5t-23.5 80.5z" />
    <glyph glyph-name="n" unicode="n" horiz-adv-x="1063" 
d="M760 98l12 531q0 114 -56.5 171.5t-144.5 57.5q-139 0 -274 -113q4 -278 4 -441t12 -302q-32 -6 -69 -6q-92 0 -92 78q0 8 5 150.5t5 283.5q0 336 -39 434q41 16 74 16q94 0 94 -102q61 47 157.5 82t203.5 35q106 0 182.5 -68.5t76.5 -220.5l-6 -365q0 -188 35 -309
q-41 -16 -87 -16t-69.5 23.5t-23.5 80.5z" />
    <glyph glyph-name="o" unicode="o" horiz-adv-x="1075" 
d="M983 475q0 -225 -123 -360t-322 -135q-200 0 -323 135t-123 360t123 361.5t323 136.5q199 0 322 -136.5t123 -361.5zM538 94q142 0 222 96.5t80 264.5t-82 285.5t-223 117.5q-142 0 -220.5 -97t-78.5 -265t79.5 -285t222.5 -117z" />
    <glyph glyph-name="p" unicode="p" horiz-adv-x="1059" 
d="M156 -401l6 911q0 324 -39 432q37 16 80 16q88 0 88 -102q155 117 316 117t260.5 -109.5t99.5 -333.5q0 -319 -195 -471q-102 -79 -234 -79t-241 69q0 -348 14.5 -431t26.5 -120q-37 -16 -89 -16t-72.5 26.5t-20.5 90.5zM301 156q94 -62 246 -62q92 0 158 62
q116 114 116 344q0 184 -70.5 271t-195.5 87t-258 -113q4 -450 4 -589z" />
    <glyph glyph-name="q" unicode="q" horiz-adv-x="1061" 
d="M766 80q-111 -100 -270 -100q-160 0 -282 141t-122 363q0 221 127 355t318 134q229 0 399 -139q-33 -351 -33 -792t35 -544q-41 -16 -90 -16q-90 0 -90 104q0 103 4 273t4 221zM524 858q-121 0 -204.5 -97t-83.5 -267t85 -285t214 -115t233 113q2 221 20 553
q-106 98 -264 98z" />
    <glyph glyph-name="r" unicode="r" horiz-adv-x="645" 
d="M133 111l4 362q0 293 -14 479q33 6 70 6q88 0 88 -77q0 -4 -1 -28t-1 -44q40 63 109 113.5t126 50.5q111 0 111 -80q0 -39 -41 -92q-45 39 -100 39q-56 0 -113.5 -45t-96.5 -119q-2 -70 -2 -303q0 -234 39 -363q-37 -16 -87 -16t-70.5 26.5t-20.5 90.5z" />
    <glyph glyph-name="s" unicode="s" horiz-adv-x="838" 
d="M635 725q-23 59 -92.5 96t-141.5 37q-73 0 -124.5 -38t-51.5 -103q0 -66 54.5 -100.5t132 -53t155.5 -42t132.5 -85t54.5 -160.5q0 -145 -104.5 -220.5t-238.5 -75.5q-135 0 -232 47t-97 116q0 60 92 86q23 -65 97.5 -100t162.5 -35t142.5 39t54.5 111q0 71 -54.5 104
t-132 50.5t-155.5 41t-132.5 89t-54.5 179.5q0 113 105.5 189t220.5 76t207 -43t92 -112q0 -70 -92 -93z" />
    <glyph glyph-name="t" unicode="t" horiz-adv-x="721" 
d="M197 842q-7 0 -191 -15q-6 19 -6 59t30.5 53t104.5 13h58q-5 138 -13 230q31 6 68 6q98 0 98 -78q0 -29 -8 -160q260 0 344 11q8 -17 8 -53t-21.5 -50t-80 -16t-254.5 -2q-4 -222 -4 -431q0 -210 40 -265.5t129 -55.5t150 62q37 -39 37 -78t-53 -65.5t-129 -26.5
q-170 0 -240.5 98t-70.5 293q4 370 4 471z" />
    <glyph glyph-name="u" unicode="u" horiz-adv-x="1061" 
d="M907 881l-8 -465q0 -260 39 -406q-41 -16 -76 -16q-94 0 -94 102q-147 -116 -326 -116q-290 0 -290 288l6 365q0 186 -35 309q41 16 87 16t69.5 -23.5t23.5 -80.5l-12 -530q0 -111 54 -170.5t140 -59.5q148 0 277 113q-2 88 -2 328q0 239 -15 417q33 6 70 6q92 0 92 -77z
" />
    <glyph glyph-name="v" unicode="v" horiz-adv-x="899" 
d="M754 973q75 0 75 -78q0 -139 -101 -416.5t-208 -404.5q-39 -47 -65.5 -63.5t-57.5 -16.5q-32 0 -63 6q-47 236 -155.5 533.5t-184.5 373.5q61 56 113 56q51 0 81 -72q43 -98 127 -338t125 -406q84 109 169 344.5t85 407.5q0 33 -6 64q31 10 66 10z" />
    <glyph glyph-name="w" unicode="w" horiz-adv-x="1419" 
d="M1274 973q76 0 76 -76t-36 -215t-87 -274q-131 -324 -236 -398q-24 -16 -54 -16t-60 6q-54 270 -162 586q-113 -357 -236 -512q-39 -47 -62.5 -63.5t-52.5 -16.5q-30 0 -61 6q-45 236 -143.5 535t-165.5 372q61 56 113 56q51 0 81 -72q37 -92 111 -334t111 -410
q75 109 153 344.5t78 405.5q0 35 -6 66q31 10 65 10q76 0 76 -82t-2 -96q47 -78 108.5 -272.5t100.5 -375.5q76 109 153.5 344.5t77.5 405.5q0 35 -6 66q31 10 66 10z" />
    <glyph glyph-name="x" unicode="x" horiz-adv-x="887" 
d="M670 973q114 -21 114 -78q0 -92 -264 -391q217 -371 336 -445q-59 -79 -107 -79q-49 0 -90 57q-79 108 -233 360q-84 -96 -166 -220t-98 -197q-111 18 -111 77q0 54 67.5 138t95.5 117.5t90.5 102t66.5 72.5q-207 340 -314 408q64 78 111 78t90 -55q98 -146 205 -320
q78 100 138.5 208.5t68.5 166.5z" />
    <glyph glyph-name="y" unicode="y" horiz-adv-x="903" 
d="M770 973q72 0 72 -89t-73 -319.5t-173 -443.5q-180 -383 -340 -582q-41 -53 -80 -53q-57 0 -113 82q62 39 164.5 158.5t178.5 240.5q-72 238 -195 542t-211 388q72 66 118 66t79 -66q49 -98 145 -343t143 -407q88 191 155 410t67 346q0 10 -5 60q31 10 68 10z" />
    <glyph glyph-name="z" unicode="z" horiz-adv-x="930" 
d="M774 924q33 -33 33 -93q0 -61 -35 -96l-604 -629q70 -6 137 -6q219 0 455 62q18 -37 18 -73t-17.5 -53.5t-35.5 -23.5q-92 -24 -300 -24t-343 24q-31 43 -31 105q0 61 45 106l596 613q-114 12 -221 12q-213 0 -360 -49q-17 41 -17 81v9q2 45 51.5 60.5t251.5 15.5
q201 0 377 -41z" />
    <glyph glyph-name="braceleft" unicode="{" horiz-adv-x="872" 
d="M373 586q51 -19 96 -86.5t45 -130.5v-408q0 -43 3 -61.5t18 -38.5q22 -31 135 -31q51 0 74.5 -15.5t23.5 -50.5q0 -36 -8 -53q-27 -2 -74 -2q-178 0 -243.5 54.5t-65.5 173.5v428q0 61 -59.5 115.5t-174.5 54.5v102q115 0 175.5 55.5t60.5 116.5v428q0 119 64.5 173
t242.5 54q47 0 74 -2q8 -16 8 -52t-23.5 -51.5t-102.5 -15.5t-104.5 -26.5t-25.5 -104.5v-407q0 -64 -44 -132.5t-95 -86.5z" />
    <glyph glyph-name="bar" unicode="|" 
d="M485 279v630q0 484 -16 592q33 6 61 6q95 0 95 -77q0 -9 -2 -111q-13 -371 -13 -600v-631q0 -483 17 -592q-33 -6 -62 -6q-94 0 -94 78q0 8 4 108q10 254 10 603z" />
    <glyph glyph-name="braceright" unicode="}" horiz-adv-x="827" 
d="M457 586q-51 18 -95.5 86.5t-44.5 132.5v407q0 41 -3 60.5t-19 38.5q-25 32 -105 32q-81 0 -105 15.5t-24 51.5t9 52q26 2 73 2q179 0 243.5 -54t64.5 -173v-428q0 -61 60 -116.5t175 -55.5v-102q-115 0 -174 -54.5t-59 -115.5v-428q0 -119 -65.5 -173.5t-244.5 -54.5
q-47 0 -73 2q-9 17 -9 53q0 35 24 50.5t78 15.5t86 6t46 25.5t17 38t3 61.5v408q0 63 45.5 130.5t96.5 86.5z" />
    <glyph glyph-name="asciitilde" unicode="~" horiz-adv-x="1118" 
d="M82 547q0 127 201 127q104 0 267 -41t238 -41q136 0 209 72q39 -52 39 -109t-73.5 -88t-155.5 -31t-237.5 41t-239.5 41q-135 0 -209 -72q-39 52 -39 101z" />
    <glyph glyph-name="uni060C" unicode="&#x60c;" horiz-adv-x="434" 
d="M199 295q0 -100 100 -121q20 -33 20 -72t-34.5 -68.5t-85.5 -29.5q-52 0 -89.5 47t-37.5 161t70.5 222.5t166.5 108.5q53 0 53 -62q0 -16 -2 -24h-10q-65 0 -108 -49.5t-43 -112.5z" />
    <glyph glyph-name="uni061B" unicode="&#x61b;" horiz-adv-x="434" 
d="M197 264q51 0 88 -37t37 -92t-37 -93t-88 -38q-52 0 -87.5 38t-35.5 93t35.5 92t87.5 37zM199 1028q0 -100 100 -121q20 -33 20 -71q0 -39 -34.5 -69t-85.5 -30q-52 0 -89.5 47t-37.5 161t70.5 222.5t166.5 108.5q53 0 53 -62q0 -16 -2 -24h-10q-65 0 -108 -49t-43 -113z
" />
    <glyph glyph-name="uni0640" unicode="&#x640;" horiz-adv-x="201" 
d="M222 115v-115h-242v115h242z" />
    <glyph glyph-name="uni064B" unicode="&#x64b;" horiz-adv-x="3365" 
d="M215 95q13 -11 16 -45q1 -5 1 -11q0 -11 -3 -24q-37 8 -82 8q-27 0 -60 -3l-242 -19h-1q-9 -1 -18 -1q-26 0 -35 8q-14 11 -17 45v6q0 13 3 29q36 -8 81 -8q28 0 61 3l242 19q12 1 19 1q25 0 35 -8zM215 264q13 -11 16 -45q1 -5 1 -11q0 -11 -3 -24q-37 8 -82 8
q-26 0 -60 -3l-242 -19h-1q-8 -1 -18 -1q-26 0 -35 8q-14 11 -17 45v6q0 13 3 29q36 -8 81 -8q28 0 61 3l242 19q9 1 19 1q25 0 35 -8z" />
    <glyph glyph-name="uni064C" unicode="&#x64c;" horiz-adv-x="0" 
d="M78 81q89 7 89 77v8q-5 67 -85 67q-8 0 -15 -1q-43 -3 -64 -22q-22 -19 -22 -51v-9l5 -59l1 -16l16 1zM218 162q1 -7 1 -14q0 -55 -35 -91q-38 -39 -102 -44l-166 -12q-7 -1 -15 -1q-53 0 -82 29q-30 29 -36 89q-7 84 -76 84q-23 0 -50 -10l-5 20q55 18 94 18
q73 0 81 -69l1 -20q3 -77 59 -77l44 4l-2 16l-6 56q-1 7 -1 14q0 53 36 89q38 40 103 44q8 1 15 1q59 0 97 -33q41 -34 45 -93z" />
    <glyph glyph-name="uni064D" unicode="&#x64d;" horiz-adv-x="0" 
d="M215 -177q13 -11 16 -46q1 -5 1 -10q0 -11 -3 -25q-37 9 -82 9q-27 0 -60 -3l-242 -19h-1q-9 -1 -18 -1q-26 0 -35 8q-14 11 -17 45v6q0 13 3 29q36 -8 81 -8q28 0 61 3l242 19q12 1 19 1q25 0 35 -8zM215 -8q13 -11 16 -45q1 -5 1 -11q0 -11 -3 -24q-37 8 -82 8
q-26 0 -60 -3l-242 -19h-1q-8 -1 -18 -1q-26 0 -35 8q-14 11 -17 45v6q0 13 3 29q36 -8 81 -8q28 0 61 3l242 19q9 1 19 1q25 0 35 -8z" />
    <glyph glyph-name="uni064E" unicode="&#x64e;" horiz-adv-x="0" 
d="M215 95q13 -11 16 -45q1 -5 1 -11q0 -11 -3 -24q-37 8 -82 8q-27 0 -60 -3l-242 -19h-1q-9 -1 -18 -1q-26 0 -35 8q-14 11 -17 45v6q0 13 3 29q36 -8 81 -8q28 0 61 3l242 19q12 1 19 1q25 0 35 -8z" />
    <glyph glyph-name="uni064F" unicode="&#x64f;" horiz-adv-x="0" 
d="M165 165v9q-5 67 -84 67q-7 0 -16 -1q-42 -3 -64 -21q-21 -20 -21 -52v-9l4 -59l2 -16l16 1l75 5q88 7 88 76zM215 170q1 -7 1 -14q0 -55 -35 -90q-38 -39 -103 -44l-166 -13l-112 -8h-1q-5 -1 -12 -1q-15 0 -20 4q-8 7 -11 35q0 10 3 32q19 -5 53 -5q8 0 22 1l93 7
l-2 18l-5 56q-1 7 -1 14q0 54 35 90q39 39 103 44h15q59 0 98 -32q40 -34 45 -94z" />
    <glyph glyph-name="uni0650" unicode="&#x650;" horiz-adv-x="0" 
d="M215 -8q13 -11 16 -45q1 -5 1 -11q0 -11 -3 -24q-37 8 -82 8q-26 0 -60 -3l-242 -19h-1q-8 -1 -18 -1q-26 0 -35 8q-14 11 -17 45v6q0 13 3 29q36 -8 81 -8q28 0 61 3l242 19q9 1 19 1q25 0 35 -8z" />
    <glyph glyph-name="uni0651" unicode="&#x651;" horiz-adv-x="0" 
d="M174 230q8 9 30 9q12 0 27 -6q-12 -33 -12 -83v-22q-1 -55 -31 -90q-33 -38 -89 -38h-5q-49 0 -81 30l-12 11l-12 -11q-32 -30 -81 -30h-3q-53 0 -86 35q-34 36 -34 94v67q0 26 9 34q8 9 30 9q12 0 27 -6q-12 -33 -12 -83v-21q0 -96 66 -96h2q39 0 56 36q11 23 11 60v50
q0 25 8 34q9 8 31 8q12 0 27 -5q-12 -33 -12 -84v-3q0 -96 66 -96h5q66 0 66 96v67q0 26 9 34z" />
    <glyph glyph-name="uni0652" unicode="&#x652;" horiz-adv-x="0" 
d="M2 235q-80 0 -80 -94q0 -95 80 -95q79 0 79 95q0 94 -79 94zM-1 0q-62 0 -99 42q-35 40 -35 104q0 63 36 103q36 42 99 42t99 -42q36 -40 36 -103q0 -64 -36 -104q-36 -42 -100 -42z" />
    <glyph glyph-name="uni0660" unicode="&#x660;" 
d="M547 -20q-223 0 -354.5 189t-131.5 510q0 320 131.5 509.5t354.5 189.5t355 -189.5t132 -508.5q0 -320 -132 -510t-355 -190zM877 643q0 332 -148 516q-76 98 -182 98q-144 0 -238 -149.5t-94 -366.5q0 -352 145 -540q78 -101 185 -101q149 0 240.5 156t91.5 387z" />
    <glyph glyph-name="uni0661" unicode="&#x661;" 
d="M502 117l4 608q0 289 -6 516q-221 -22 -256 -29q-6 25 -6 45q0 78 79 89q220 32 256 32q89 0 89 -78q0 -16 -5 -118q-12 -308 -12 -545v-127q0 -268 14 -399q142 0 213 8q9 -25 9 -45q0 -78 -80 -78l-328 4q-156 0 -219 -2q-10 31 -10 49q0 70 118 70h140z" />
    <glyph glyph-name="uni0662" unicode="&#x662;" 
d="M195 1081q-78 11 -78 68q0 80 128 154.5t283 74.5q154 0 269.5 -98t115.5 -276q0 -107 -32.5 -197t-119.5 -196.5t-197.5 -210t-311.5 -271.5q70 -4 234 -4q163 0 263.5 10t200.5 47q29 -51 29 -95t-51 -62q-78 -29 -353 -29q-276 0 -397 4q-94 0 -94 96q0 19 2 27
q418 387 546 540.5t128 294.5q0 140 -74 218.5t-170 78.5t-182 -48t-139 -126z" />
    <glyph glyph-name="uni0663" unicode="&#x663;" 
d="M666 745q149 -65 204.5 -151t55.5 -205q0 -166 -129 -287.5t-355 -121.5q-153 0 -231 38.5t-78 87.5q0 66 76 76q70 -82 231 -82q160 0 244 85t84 200t-98.5 199t-272.5 84q-30 0 -45 4q-35 6 -35 67q0 17 2 29q203 0 304.5 81t101.5 180t-59.5 163.5t-144.5 64.5
t-156.5 -40.5t-116.5 -118.5q-39 0 -63.5 20.5t-24.5 46.5q0 72 112.5 142.5t267.5 70.5q154 0 248.5 -93t94.5 -222q0 -96 -54.5 -180t-162.5 -138z" />
    <glyph glyph-name="uni0664" unicode="&#x664;" 
d="M236 559q106 -6 224 -6t228 6q0 277 6 627q-86 -94 -217 -273.5t-241 -353.5zM678 1354q29 24 80 24t88 -4q0 -6 -6 -90q-13 -219 -13 -536v-183q152 13 201 35q16 -37 16 -88t-44 -66.5t-171 -17.5q0 -303 39 -432q-37 -16 -90 -16t-73.5 26.5t-20.5 100.5q0 73 4 319
q-434 0 -551 14q-47 6 -47 84q0 29 4 58q88 151 291 421.5t293 350.5z" />
    <glyph glyph-name="uni0665" unicode="&#x665;" 
d="M885 1303q0 -91 -159 -91t-380 13l-29 -359q78 13 146 13q225 0 341 -116t116 -312q0 -197 -129 -334t-357 -137q-153 0 -231 38.5t-78 87.5q0 66 76 76q69 -82 230 -82t246 99.5t85 232.5t-98.5 231.5t-268.5 98.5q-88 0 -170 -10q-20 20 -20 74q0 53 26 534
q60 -4 306 -4q245 0 327 16q21 -31 21 -69z" />
    <glyph glyph-name="uni0666" unicode="&#x666;" 
d="M819 396q0 126 -74.5 207t-204.5 81t-266 -123q7 -334 144 -422q59 -39 145 -39q121 0 188.5 85t67.5 211zM547 -20q-121 0 -207 49t-131 135q-88 162 -88 399q0 316 168 559q80 115 207 185.5t278 70.5q84 0 84 -71q0 -23 -8 -60q-57 8 -82 8q-219 0 -346 -167.5
t-146 -411.5q146 125 312 125t277.5 -104.5t111.5 -277.5t-118 -306t-312 -133z" />
    <glyph glyph-name="uni0667" unicode="&#x667;" 
d="M842 1223q-314 -11 -578 -11q-155 0 -155 91q0 28 20 69q100 -16 229 -16q516 0 621 4q16 -33 16 -75t-12 -79q-65 -205 -547 -1085q-41 -76 -72.5 -108.5t-66.5 -32.5q-59 0 -131 79q174 183 382 554.5t294 609.5z" />
    <glyph glyph-name="uni0668" unicode="&#x668;" 
d="M569 815q201 86 201 266q0 84 -68.5 130t-164.5 46q-97 0 -164.5 -46t-67.5 -130q0 -159 264 -266zM256 368q0 -114 77 -191t205 -77t203.5 77t75.5 189q0 111 -75.5 183t-235.5 141q-125 -55 -187.5 -132t-62.5 -190zM539 -20q-209 0 -323 108.5t-114 261.5
q0 152 77 243t214 150q-123 68 -180 144t-57 203t111.5 207.5t269.5 80.5q157 0 270 -80.5t113 -210.5q0 -221 -248 -325q151 -72 227 -165t76 -246q0 -154 -113.5 -262.5t-322.5 -108.5z" />
    <glyph glyph-name="uni0669" unicode="&#x669;" 
d="M248 964q0 -126 74.5 -207t204.5 -81t266 123q-7 334 -146 422q-57 39 -143 39q-121 0 -188.5 -85t-67.5 -211zM520 1380q121 0 207 -49t133 -135q86 -162 86 -399q0 -316 -168 -559q-80 -115 -207 -185.5t-278 -70.5q-84 0 -84 71q0 23 8 60q57 -9 82 -9q219 0 346 168
t146 412q-146 -125 -312 -125t-277.5 104.5t-111.5 277.5t118 306t312 133z" />
    <glyph glyph-name="uni066A" unicode="&#x66a;" horiz-adv-x="1626" 
d="M1524 279q0 -138 -76 -218.5t-204 -80.5t-203.5 80.5t-75.5 218.5q0 137 75.5 218t203.5 81t204 -81t76 -218zM1241 72q74 0 117 55t43 140t-41 152.5t-112 67.5q-72 0 -118.5 -53t-46.5 -138t42 -154.5t116 -69.5zM371 33l540 690q187 238 287 383q31 -4 58.5 -25.5
t27.5 -41.5q0 -21 -20 -50l-541 -692q-178 -227 -287 -383q-86 27 -86 72q0 20 21 47zM662 727q0 -137 -76 -218t-204 -81t-204 81t-76 218t76 218t204 81t204 -81t76 -218zM379 520q74 0 117 55.5t43 140.5t-41 152.5t-113 67.5t-118 -53.5t-46 -138.5t42 -154.5t116 -69.5
z" />
    <glyph glyph-name="_1" horiz-adv-x="0" 
 />
    <glyph glyph-name="_2" horiz-adv-x="0" 
 />
    <glyph glyph-name="_3" horiz-adv-x="0" 
 />
    <glyph glyph-name="_4" horiz-adv-x="0" 
 />
  </font>
</defs>
</svg>
